<svg version="1.2" xmlns="http://www.w3.org/2000/svg" viewBox="0 0 216 38" width="216" height="38">
	<title>create-insights-svg</title>
	<style>
		.s0 { fill: #fe7264 } 
		.s1 { fill: #fefefe } 
	</style>
	<path id="Layer" class="s0" d="m0 19c0-10.5 8.5-19 19-19h178c10.5 0 19 8.5 19 19 0 10.5-8.5 19-19 19h-178c-10.5 0-19-8.5-19-19z"/>
	<path id="GERAR INSIGHTS" class="s1" aria-label="GERAR INSIGHTS"  d="m24 24.2q-1.6 0-3-0.6-1.4-0.6-2.5-1.7-1-1.1-1.6-2.6-0.6-1.4-0.6-3.1 0-1.7 0.6-3.1 0.6-1.5 1.6-2.6 1.1-1.1 2.5-1.7 1.4-0.6 3-0.6 1.6 0 2.7 0.4 1.1 0.4 2.2 1.3 0.2 0.1 0.3 0.3 0.1 0.1 0.1 0.2 0 0.1 0 0.3 0 0.4-0.3 0.7-0.2 0.2-0.6 0.2-0.4 0.1-0.7-0.2-0.8-0.7-1.6-1-0.8-0.3-2.1-0.3-1.1 0-2.2 0.4-1 0.5-1.8 1.4-0.8 0.8-1.2 1.9-0.5 1.1-0.5 2.4 0 1.3 0.5 2.4 0.4 1.1 1.2 1.9 0.8 0.9 1.8 1.3 1.1 0.5 2.2 0.5 1.1 0 2-0.3 0.9-0.4 1.7-1 0.4-0.3 0.7-0.2 0.4 0 0.6 0.2 0.3 0.3 0.3 0.7 0 0.2-0.1 0.4-0.1 0.2-0.3 0.4-1 0.8-2.3 1.3-1.2 0.4-2.6 0.4zm5.3-7.3v4.8l-2-0.4v-3.6h-2.8q-0.4 0-0.7-0.2-0.3-0.3-0.3-0.7 0-0.4 0.3-0.6 0.3-0.3 0.7-0.3h3.7q0.5 0 0.8 0.3 0.3 0.3 0.3 0.7zm-5.8 7.3q-1.6 0-3-0.6-1.4-0.6-2.5-1.7-1-1.1-1.6-2.6-0.6-1.4-0.6-3.1 0-1.7 0.6-3.1 0.6-1.5 1.6-2.6 1.1-1.1 2.5-1.7 1.4-0.6 3-0.6 1.6 0 2.7 0.4 1.1 0.4 2.2 1.3 0.2 0.1 0.2 0.3 0.1 0.1 0.2 0.2 0 0.1 0 0.3 0 0.4-0.3 0.7-0.2 0.2-0.6 0.2-0.4 0.1-0.8-0.2-0.7-0.7-1.5-1-0.8-0.3-2.1-0.3-1.2 0-2.2 0.4-1 0.5-1.8 1.4-0.8 0.8-1.3 1.9-0.4 1.1-0.4 2.4 0 1.3 0.4 2.4 0.5 1.1 1.3 1.9 0.8 0.9 1.8 1.3 1 0.5 2.2 0.5 1 0 1.9-0.3 1-0.4 1.8-1 0.4-0.3 0.7-0.2 0.4 0 0.6 0.2 0.2 0.3 0.2 0.7 0 0.2 0 0.4-0.1 0.2-0.3 0.4-1 0.8-2.3 1.3-1.2 0.4-2.6 0.4zm5.2-7.3v4.8l-2-0.4v-3.6h-2.7q-0.5 0-0.8-0.2-0.3-0.3-0.3-0.7 0-0.4 0.3-0.6 0.3-0.3 0.8-0.3h3.7q0.5 0 0.8 0.3 0.2 0.3 0.2 0.7zm14.5 7.1h-9q-0.5 0-0.8-0.3-0.3-0.3-0.3-0.7v-13.6q0-0.4 0.3-0.7 0.3-0.3 0.8-0.3h9q0.5 0 0.7 0.3 0.3 0.2 0.3 0.7 0 0.4-0.3 0.6-0.2 0.3-0.7 0.3h-8v4.9h5.7q0.5 0 0.8 0.2 0.3 0.3 0.3 0.7 0 0.4-0.3 0.7-0.3 0.3-0.8 0.3h-5.7v5h8q0.5 0 0.7 0.2 0.3 0.3 0.3 0.7 0 0.5-0.3 0.7-0.2 0.3-0.7 0.3zm-0.5 0h-9.1q-0.4 0-0.7-0.3-0.3-0.3-0.3-0.7v-13.6q0-0.4 0.3-0.7 0.3-0.3 0.7-0.3h9.1q0.4 0 0.7 0.3 0.3 0.2 0.3 0.7 0 0.4-0.3 0.6-0.3 0.3-0.7 0.3h-8v4.9h5.7q0.5 0 0.8 0.2 0.2 0.3 0.2 0.7 0 0.4-0.2 0.7-0.3 0.3-0.8 0.3h-5.7v5h8q0.4 0 0.7 0.2 0.3 0.3 0.3 0.7 0 0.5-0.3 0.7-0.3 0.3-0.7 0.3zm6 0q-0.4 0-0.7-0.3-0.3-0.3-0.3-0.7v-13.6q0-0.4 0.3-0.7 0.3-0.3 0.7-0.3h3.6q1.5 0 2.7 0.6 1.1 0.6 1.8 1.7 0.6 1.1 0.6 2.6 0 1.4-0.6 2.4-0.7 1.1-1.8 1.7-1.2 0.6-2.7 0.6h-2.6v5q0 0.4-0.3 0.7-0.2 0.3-0.7 0.3zm8.3 0q-0.3 0-0.5-0.1-0.2-0.1-0.4-0.4l-3.6-5.8 2-0.6 3.3 5.3q0.4 0.6 0.1 1.1-0.3 0.5-0.9 0.5zm-7.3-13.7v5.8h2.6q0.9 0 1.6-0.4 0.7-0.3 1.1-1 0.4-0.6 0.4-1.4 0-0.9-0.4-1.6-0.4-0.6-1.1-1-0.7-0.4-1.6-0.4zm-1.6 13.7q-0.4 0-0.7-0.3-0.3-0.3-0.3-0.7v-13.6q0-0.4 0.3-0.7 0.3-0.3 0.7-0.3h3.6q1.5 0 2.7 0.6 1.2 0.6 1.8 1.7 0.7 1.1 0.7 2.6 0 1.4-0.7 2.4-0.6 1.1-1.8 1.7-1.2 0.6-2.7 0.6h-2.5v5q0 0.4-0.3 0.7-0.3 0.3-0.8 0.3zm8.3 0q-0.2 0-0.5-0.1-0.2-0.1-0.4-0.4l-3.6-5.8 2.1-0.6 3.2 5.3q0.4 0.6 0.1 1.1-0.2 0.5-0.9 0.5zm-7.2-13.7v5.8h2.5q1 0 1.7-0.4 0.7-0.3 1.1-1 0.4-0.6 0.4-1.4 0-0.9-0.4-1.6-0.4-0.6-1.1-1-0.7-0.4-1.7-0.4zm11 13.7q-0.5 0-0.8-0.5-0.3-0.5-0.1-1l5.6-13.4q0.3-0.7 1-0.7 0.7 0 1 0.7l5.6 13.4q0.3 0.6 0 1.1-0.3 0.4-0.9 0.4-0.3 0-0.6-0.2-0.2-0.1-0.4-0.4l-4.9-12.4h0.5l-5 12.4q-0.1 0.3-0.4 0.4-0.3 0.2-0.6 0.2zm10.5-3.4h-9.4l0.8-1.8h7.8zm-11 3.5q-0.5 0-0.8-0.5-0.3-0.5-0.1-1l5.6-13.4q0.3-0.7 1-0.7 0.7 0 1 0.7l5.6 13.4q0.2 0.6-0.1 1-0.2 0.5-0.8 0.5-0.3 0-0.6-0.2-0.3-0.2-0.4-0.5l-4.9-12.3h0.5l-5 12.3q-0.2 0.4-0.4 0.5-0.3 0.2-0.6 0.2zm10.5-3.5h-9.4l0.8-1.7h7.8zm6.3 3.5q-0.4 0-0.7-0.3-0.3-0.3-0.3-0.8v-13.5q0-0.5 0.3-0.8 0.3-0.3 0.7-0.3h3.6q1.5 0 2.7 0.7 1.1 0.6 1.8 1.7 0.6 1.1 0.6 2.6 0 1.3-0.6 2.4-0.7 1-1.8 1.6-1.2 0.6-2.7 0.6h-2.6v5q0 0.5-0.3 0.8-0.2 0.3-0.7 0.3zm8.3 0q-0.3 0-0.5-0.2-0.2-0.1-0.4-0.3l-3.6-5.8 2-0.6 3.3 5.3q0.4 0.5 0.1 1.1-0.3 0.5-0.9 0.5zm-7.3-13.7v5.7h2.6q0.9 0 1.6-0.3 0.7-0.4 1.1-1 0.4-0.6 0.4-1.4 0-0.9-0.4-1.6-0.4-0.7-1.1-1.1-0.7-0.3-1.6-0.3zm-1.6 13.7q-0.4 0-0.7-0.3-0.3-0.3-0.3-0.8v-13.5q0-0.5 0.3-0.8 0.3-0.3 0.7-0.3h3.6q1.5 0 2.7 0.7 1.2 0.6 1.8 1.7 0.7 1.1 0.7 2.6 0 1.3-0.7 2.4-0.6 1-1.8 1.6-1.2 0.6-2.7 0.6h-2.5v5q0 0.5-0.3 0.8-0.3 0.3-0.8 0.3zm8.3 0q-0.2 0-0.5-0.2-0.2-0.1-0.4-0.3l-3.6-5.8 2.1-0.6 3.2 5.3q0.4 0.5 0.1 1.1-0.2 0.5-0.9 0.5zm-7.2-13.7v5.7h2.5q1 0 1.7-0.3 0.7-0.4 1.1-1 0.4-0.6 0.4-1.4 0-0.9-0.4-1.6-0.4-0.7-1.1-1.1-0.7-0.3-1.7-0.3zm19.1 13.7q-0.4 0-0.7-0.3-0.3-0.3-0.3-0.8v-13.5q0-0.5 0.3-0.8 0.3-0.3 0.7-0.3 0.5 0 0.7 0.3 0.3 0.3 0.3 0.8v13.5q0 0.5-0.3 0.8-0.2 0.3-0.7 0.3zm-0.5 0q-0.5 0-0.8-0.3-0.3-0.3-0.3-0.8v-13.5q0-0.5 0.3-0.8 0.3-0.3 0.8-0.3 0.4 0 0.7 0.3 0.3 0.3 0.3 0.8v13.5q0 0.5-0.3 0.8-0.3 0.3-0.7 0.3zm7.1 0q-0.4 0-0.7-0.3-0.3-0.3-0.3-0.8v-13.5q0-0.5 0.3-0.8 0.3-0.3 0.7-0.3 0.5 0 0.8 0.4l8.7 11.6v-10.9q0-0.5 0.3-0.8 0.3-0.3 0.8-0.3 0.4 0 0.7 0.3 0.3 0.3 0.3 0.8v13.5q0 0.5-0.3 0.8-0.3 0.3-0.7 0.3-0.2 0-0.5-0.1-0.2-0.1-0.3-0.3l-8.8-11.6v10.9q0 0.5-0.3 0.8-0.2 0.3-0.7 0.3zm-0.5 0q-0.5 0-0.8-0.3-0.2-0.3-0.2-0.8v-13.5q0-0.5 0.2-0.8 0.3-0.3 0.8-0.3 0.5 0 0.8 0.4l8.7 11.6v-10.9q0-0.5 0.3-0.8 0.3-0.3 0.7-0.3 0.5 0 0.8 0.3 0.3 0.3 0.3 0.8v13.5q0 0.5-0.3 0.8-0.3 0.3-0.8 0.3-0.2 0-0.4-0.1-0.2-0.1-0.4-0.3l-8.7-11.6v10.9q0 0.5-0.3 0.8-0.3 0.3-0.7 0.3zm21.6 0.2q-1.3 0-2.5-0.4-1.1-0.4-2-1.2-0.8-0.7-1.2-1.6-0.2-0.4 0-0.8 0.2-0.4 0.7-0.5 0.3 0 0.7 0.2 0.3 0.1 0.5 0.5 0.3 0.5 0.8 0.9 0.6 0.5 1.3 0.7 0.8 0.3 1.7 0.3 0.9 0 1.7-0.3 0.9-0.3 1.4-0.9 0.5-0.6 0.5-1.4 0-1.1-0.9-1.9-0.8-0.8-2.7-1-2.5-0.3-3.9-1.5-1.4-1.2-1.4-3 0-1.3 0.7-2.3 0.8-0.9 2-1.4 1.3-0.4 2.9-0.4 1.2 0 2.1 0.3 0.9 0.3 1.6 0.9 0.7 0.6 1.2 1.5 0.2 0.4 0.2 0.8-0.1 0.4-0.4 0.6-0.4 0.2-0.8 0.1-0.5-0.1-0.7-0.5-0.3-0.6-0.8-1-0.4-0.4-1-0.6-0.7-0.3-1.5-0.3-1.5 0-2.5 0.6-1 0.6-1 1.7 0 0.6 0.3 1.2 0.3 0.5 1.2 0.9 0.8 0.4 2.4 0.6 2.3 0.2 3.7 1.5 1.3 1.2 1.3 3.1 0 1.2-0.5 2-0.4 0.9-1.2 1.4-0.8 0.6-1.8 0.9-1 0.3-2.1 0.3zm-0.5 0q-1.3 0-2.5-0.4-1.1-0.4-2-1.2-0.9-0.7-1.3-1.6-0.2-0.4 0-0.8 0.3-0.4 0.8-0.5 0.3 0 0.7 0.2 0.3 0.1 0.5 0.5 0.2 0.5 0.8 0.9 0.5 0.5 1.3 0.7 0.8 0.3 1.7 0.3 0.9 0 1.7-0.3 0.8-0.3 1.3-0.9 0.5-0.6 0.5-1.4 0-1.1-0.8-1.9-0.8-0.8-2.7-1-2.5-0.3-3.9-1.5-1.4-1.2-1.4-3 0-1.3 0.7-2.3 0.7-0.9 2-1.4 1.3-0.4 2.8-0.4 1.3 0 2.2 0.3 0.9 0.3 1.6 0.9 0.6 0.6 1.1 1.5 0.3 0.4 0.3 0.8-0.1 0.4-0.4 0.6-0.4 0.2-0.8 0.1-0.5-0.1-0.7-0.5-0.3-0.6-0.8-1-0.4-0.4-1.1-0.6-0.6-0.3-1.4-0.3-1.5 0-2.5 0.6-1 0.6-1 1.7 0 0.6 0.3 1.2 0.3 0.5 1.1 0.9 0.9 0.4 2.4 0.6 2.4 0.2 3.7 1.5 1.4 1.2 1.4 3.1 0 1.2-0.5 2-0.5 0.9-1.3 1.4-0.7 0.6-1.8 0.9-1 0.3-2 0.3zm10.9-0.2q-0.5 0-0.8-0.3-0.3-0.3-0.3-0.8v-13.5q0-0.5 0.3-0.8 0.3-0.3 0.8-0.3 0.4 0 0.7 0.3 0.3 0.3 0.3 0.8v13.5q0 0.5-0.3 0.8-0.3 0.3-0.7 0.3zm-0.6 0q-0.4 0-0.7-0.3-0.3-0.3-0.3-0.8v-13.5q0-0.5 0.3-0.8 0.3-0.3 0.7-0.3 0.5 0 0.8 0.3 0.3 0.3 0.3 0.8v13.5q0 0.5-0.3 0.8-0.3 0.3-0.8 0.3zm13.1 0.2q-1.6 0-3-0.6-1.4-0.7-2.5-1.7-1-1.1-1.6-2.6-0.6-1.5-0.6-3.2 0-1.6 0.6-3.1 0.6-1.4 1.6-2.5 1.1-1.1 2.5-1.7 1.4-0.7 3-0.7 1.6 0 2.7 0.4 1.1 0.4 2.2 1.4 0.2 0.1 0.3 0.2 0.1 0.1 0.1 0.3 0 0.1 0 0.3 0 0.4-0.3 0.6-0.2 0.3-0.6 0.3-0.4 0-0.7-0.3-0.8-0.6-1.6-0.9-0.8-0.4-2.1-0.4-1.1 0-2.2 0.5-1 0.5-1.8 1.3-0.8 0.9-1.2 2-0.5 1.1-0.5 2.3 0 1.3 0.5 2.4 0.4 1.1 1.2 2 0.8 0.8 1.8 1.3 1.1 0.5 2.2 0.5 1.1 0 2-0.4 0.9-0.3 1.7-1 0.4-0.2 0.7-0.2 0.4 0 0.6 0.3 0.3 0.2 0.3 0.7 0 0.2-0.1 0.4-0.1 0.2-0.3 0.3-1 0.9-2.3 1.3-1.2 0.5-2.6 0.5zm5.3-7.3v4.8l-2-0.4v-3.6h-2.8q-0.4 0-0.7-0.3-0.3-0.2-0.3-0.6 0-0.4 0.3-0.7 0.3-0.2 0.7-0.2h3.7q0.5 0 0.8 0.3 0.3 0.2 0.3 0.7zm-5.8 7.3q-1.6 0-3-0.6-1.4-0.7-2.5-1.7-1-1.1-1.6-2.6-0.6-1.5-0.6-3.2 0-1.6 0.6-3.1 0.6-1.4 1.6-2.5 1.1-1.1 2.5-1.7 1.4-0.7 3-0.7 1.6 0 2.7 0.4 1.1 0.4 2.2 1.4 0.2 0.1 0.2 0.2 0.1 0.1 0.2 0.3 0 0.1 0 0.3 0 0.4-0.3 0.6-0.2 0.3-0.6 0.3-0.4 0-0.8-0.3-0.7-0.6-1.5-0.9-0.8-0.4-2.1-0.4-1.2 0-2.2 0.5-1 0.5-1.8 1.3-0.8 0.9-1.3 2-0.4 1.1-0.4 2.3 0 1.3 0.4 2.4 0.5 1.1 1.3 2 0.8 0.8 1.8 1.3 1 0.5 2.2 0.5 1 0 1.9-0.4 1-0.3 1.8-1 0.4-0.2 0.7-0.2 0.4 0 0.6 0.3 0.2 0.2 0.2 0.7 0 0.2 0 0.4-0.1 0.2-0.3 0.3-1 0.9-2.3 1.3-1.2 0.5-2.6 0.5zm5.2-7.3v4.8l-2-0.4v-3.6h-2.7q-0.5 0-0.8-0.3-0.3-0.2-0.3-0.6 0-0.4 0.3-0.7 0.3-0.2 0.8-0.2h3.7q0.5 0 0.8 0.3 0.2 0.2 0.2 0.7zm5.5 7.1q-0.5 0-0.8-0.3-0.3-0.3-0.3-0.8v-13.5q0-0.5 0.3-0.8 0.3-0.3 0.8-0.3 0.4 0 0.7 0.3 0.3 0.3 0.3 0.8v5.7h9.3v-5.7q0-0.5 0.3-0.8 0.3-0.3 0.7-0.3 0.5 0 0.8 0.3 0.2 0.3 0.2 0.8v13.5q0 0.5-0.2 0.8-0.3 0.3-0.8 0.3-0.4 0-0.7-0.3-0.3-0.3-0.3-0.8v-5.9h-9.3v5.9q0 0.5-0.3 0.8-0.3 0.3-0.7 0.3zm-0.6 0q-0.4 0-0.7-0.3-0.3-0.3-0.3-0.8v-13.5q0-0.5 0.3-0.8 0.3-0.3 0.7-0.3 0.5 0 0.8 0.3 0.3 0.3 0.3 0.8v5.7h9.3v-5.7q0-0.5 0.3-0.8 0.3-0.3 0.7-0.3 0.5 0 0.7 0.3 0.3 0.3 0.3 0.8v13.5q0 0.5-0.3 0.8-0.2 0.3-0.7 0.3-0.4 0-0.7-0.3-0.3-0.3-0.3-0.8v-5.9h-9.3v5.9q0 0.5-0.3 0.8-0.3 0.3-0.8 0.3zm22.1 0q-0.4 0-0.7-0.3-0.3-0.3-0.3-0.8v-14.6h2v14.6q0 0.5-0.3 0.8-0.3 0.3-0.7 0.3zm5.3-13.7h-10.7q-0.4 0-0.7-0.3-0.2-0.3-0.2-0.7 0-0.4 0.2-0.7 0.3-0.3 0.7-0.3h10.7q0.5 0 0.7 0.3 0.3 0.3 0.3 0.7 0 0.4-0.3 0.7-0.2 0.3-0.7 0.3zm-5.8 13.7q-0.5 0-0.8-0.3-0.3-0.3-0.3-0.8v-14.6h2.1v14.6q0 0.5-0.3 0.8-0.3 0.3-0.7 0.3zm5.3-13.7h-10.7q-0.4 0-0.7-0.3-0.2-0.3-0.2-0.7 0-0.4 0.2-0.7 0.3-0.3 0.7-0.3h10.7q0.4 0 0.7 0.3 0.3 0.3 0.3 0.7 0 0.4-0.3 0.7-0.3 0.3-0.7 0.3zm8.7 13.9q-1.3 0-2.4-0.4-1.2-0.4-2.1-1.2-0.8-0.7-1.2-1.6-0.2-0.4 0-0.8 0.2-0.4 0.7-0.5 0.4 0 0.7 0.2 0.4 0.1 0.5 0.5 0.3 0.5 0.8 0.9 0.6 0.5 1.4 0.7 0.7 0.3 1.6 0.3 1 0 1.8-0.3 0.8-0.3 1.3-0.9 0.5-0.6 0.5-1.4 0-1.1-0.9-1.9-0.8-0.8-2.7-1-2.5-0.3-3.9-1.5-1.4-1.2-1.4-3 0-1.3 0.7-2.3 0.8-0.9 2-1.4 1.3-0.4 2.9-0.4 1.2 0 2.1 0.3 0.9 0.3 1.6 0.9 0.7 0.6 1.2 1.5 0.3 0.4 0.2 0.8 0 0.4-0.4 0.6-0.4 0.2-0.8 0.1-0.4-0.1-0.7-0.5-0.3-0.6-0.7-1-0.5-0.4-1.1-0.6-0.6-0.3-1.5-0.3-1.5 0-2.5 0.6-1 0.6-1 1.7 0 0.6 0.3 1.2 0.4 0.5 1.2 0.9 0.8 0.4 2.4 0.6 2.4 0.2 3.7 1.5 1.3 1.2 1.3 3.1 0 1.2-0.5 2-0.4 0.9-1.2 1.4-0.8 0.6-1.8 0.9-1 0.3-2.1 0.3zm-0.5 0q-1.3 0-2.5-0.4-1.1-0.4-2-1.2-0.8-0.7-1.2-1.6-0.2-0.4 0-0.8 0.2-0.4 0.7-0.5 0.3 0 0.7 0.2 0.3 0.1 0.5 0.5 0.3 0.5 0.8 0.9 0.6 0.5 1.3 0.7 0.8 0.3 1.7 0.3 0.9 0 1.7-0.3 0.9-0.3 1.4-0.9 0.5-0.6 0.5-1.4 0-1.1-0.9-1.9-0.8-0.8-2.7-1-2.5-0.3-3.9-1.5-1.4-1.2-1.4-3 0-1.3 0.7-2.3 0.8-0.9 2-1.4 1.3-0.4 2.9-0.4 1.2 0 2.1 0.3 0.9 0.3 1.6 0.9 0.7 0.6 1.2 1.5 0.2 0.4 0.2 0.8-0.1 0.4-0.4 0.6-0.4 0.2-0.8 0.1-0.5-0.1-0.7-0.5-0.3-0.6-0.8-1-0.4-0.4-1-0.6-0.7-0.3-1.5-0.3-1.5 0-2.5 0.6-1 0.6-1 1.7 0 0.6 0.3 1.2 0.3 0.5 1.2 0.9 0.8 0.4 2.4 0.6 2.3 0.2 3.7 1.5 1.3 1.2 1.3 3.1 0 1.2-0.5 2-0.4 0.9-1.2 1.4-0.8 0.6-1.8 0.9-1 0.3-2.1 0.3z"/>
</svg>