<svg version="1.2" xmlns="http://www.w3.org/2000/svg" viewBox="0 0 216 38" width="216" height="38">
	<title>send-btn-svg</title>
	<style>
		.s0 { fill: #fe7264 } 
		.s1 { fill: #ffffff } 
	</style>
	<path id="Layer" class="s0" d="m0 19c0-10.5 8.5-19 19-19h178c10.5 0 19 8.5 19 19 0 10.5-8.5 19-19 19h-178c-10.5 0-19-8.5-19-19z"/>
	<path id="Gerar Insights" class="s1" aria-label="Gerar Insights"  d="m36.4 25.2q-1.8 0-3.4-0.6-1.6-0.7-2.8-1.9-1.2-1.2-1.9-2.7-0.6-1.6-0.6-3.4 0-1.8 0.6-3.4 0.7-1.5 1.9-2.7 1.2-1.2 2.8-1.9 1.6-0.6 3.4-0.6 1.2 0 2.2 0.2 1.1 0.2 2 0.7 0.3 0.2 0.5 0.5 0.2 0.4 0.2 0.7 0 0.6-0.4 1-0.4 0.5-1 0.5-0.2 0-0.4-0.1-0.2 0-0.4-0.1-0.6-0.3-1.2-0.4-0.7-0.2-1.5-0.2-1.5 0-2.8 0.8-1.3 0.8-2.1 2.1-0.7 1.3-0.7 2.9 0 1.6 0.7 2.9 0.8 1.3 2.1 2.1 1.3 0.8 2.8 0.8 0.8 0 1.6-0.2 0.9-0.1 1.4-0.4l-0.2 0.8v-4.2l0.4 0.4h-2.6q-0.7 0-1.1-0.4-0.4-0.4-0.4-1 0-0.7 0.4-1.1 0.4-0.4 1.1-0.4h3.9q0.6 0 1 0.5 0.4 0.4 0.4 1v5.1q0 0.5-0.2 0.8-0.2 0.3-0.5 0.5-1.1 0.6-2.4 1.1-1.3 0.3-2.8 0.3zm14.6 0q-2 0-3.5-0.8-1.5-0.9-2.3-2.3-0.8-1.5-0.8-3.3 0-2.2 0.8-3.7 0.9-1.5 2.3-2.4 1.5-0.8 3-0.8 1.3 0 2.4 0.5 1.1 0.5 1.9 1.4 0.8 0.9 1.3 2 0.5 1.2 0.5 2.5 0 0.6-0.4 0.9-0.5 0.4-1 0.4h-9.2l-0.7-2.4h8.8l-0.6 0.5v-0.7q0-0.7-0.5-1.2-0.4-0.6-1.1-0.9-0.6-0.3-1.4-0.3-0.7 0-1.3 0.2-0.6 0.1-1.1 0.6-0.4 0.5-0.7 1.2-0.3 0.8-0.3 2 0 1.3 0.6 2.2 0.5 0.9 1.4 1.3 0.8 0.5 1.8 0.5 0.9 0 1.4-0.1 0.5-0.2 0.8-0.4 0.4-0.2 0.6-0.3 0.5-0.3 0.9-0.3 0.5 0 0.8 0.4 0.4 0.4 0.4 0.8 0 0.7-0.7 1.2-0.6 0.5-1.7 1-1.2 0.3-2.4 0.3zm9.6-0.2q-0.6 0-1.1-0.4-0.4-0.4-0.4-1.1v-9.9q0-0.6 0.4-1 0.5-0.4 1.1-0.4 0.6 0 1 0.4 0.4 0.4 0.4 1v2.3l-0.1-1.6q0.2-0.6 0.6-1 0.5-0.5 1-0.8 0.5-0.3 1.1-0.4 0.6-0.2 1.2-0.2 0.7 0 1.2 0.4 0.5 0.4 0.5 1 0 0.8-0.4 1.1-0.4 0.4-0.9 0.4-0.4 0-0.8-0.2-0.4-0.2-0.9-0.2-0.4 0-0.8 0.3-0.5 0.1-0.9 0.6-0.3 0.4-0.6 1.1-0.2 0.6-0.2 1.4v5.7q0 0.7-0.4 1.1-0.4 0.4-1 0.4zm19.2-13.1q0.6 0 1 0.4 0.4 0.4 0.4 1.1v10.1q0 0.7-0.4 1.1-0.4 0.4-1 0.4-0.6 0-1.1-0.4-0.4-0.4-0.4-1.1v-1.1l0.6 0.2q0 0.3-0.4 0.7-0.3 0.5-0.9 0.9-0.6 0.4-1.3 0.8-0.8 0.2-1.7 0.2-1.7 0-3-0.8-1.4-0.9-2.2-2.4-0.7-1.5-0.7-3.4 0-2 0.7-3.5 0.8-1.5 2.1-2.3 1.4-0.9 3-0.9 1 0 1.9 0.3 0.8 0.3 1.5 0.8 0.6 0.5 0.9 1 0.4 0.5 0.4 0.8l-0.9 0.3v-1.7q0-0.6 0.4-1 0.5-0.5 1.1-0.5zm-4.9 10.7q1.1 0 1.9-0.5 0.8-0.6 1.2-1.5 0.5-0.9 0.5-2 0-1.2-0.5-2.1-0.4-0.9-1.2-1.4-0.8-0.5-1.9-0.5-1 0-1.8 0.5-0.8 0.5-1.2 1.4-0.5 0.9-0.5 2.1 0 1.1 0.5 2 0.4 0.9 1.2 1.5 0.8 0.5 1.8 0.5zm10.9 2.4q-0.6 0-1.1-0.4-0.4-0.4-0.4-1.1v-9.9q0-0.6 0.4-1 0.5-0.4 1.1-0.4 0.6 0 1 0.4 0.4 0.4 0.4 1v2.3l-0.1-1.6q0.2-0.6 0.6-1 0.5-0.5 1-0.8 0.5-0.3 1.1-0.4 0.6-0.2 1.2-0.2 0.7 0 1.2 0.4 0.5 0.4 0.5 1 0 0.8-0.4 1.1-0.4 0.4-0.9 0.4-0.4 0-0.8-0.2-0.4-0.2-0.9-0.2-0.4 0-0.8 0.3-0.5 0.1-0.9 0.6-0.3 0.4-0.6 1.1-0.2 0.6-0.2 1.4v5.7q0 0.7-0.4 1.1-0.4 0.4-1 0.4zm18.9-15.3v13.8q0 0.7-0.4 1.1-0.5 0.4-1.1 0.4-0.7 0-1.1-0.4-0.4-0.4-0.4-1.1v-13.8q0-0.7 0.4-1.1 0.5-0.4 1.2-0.4 0.5 0 1 0.4 0.4 0.4 0.4 1.1zm10.2 2.2q1.8 0 2.7 0.8 1 0.7 1.3 2 0.4 1.2 0.4 2.7v6.1q0 0.7-0.4 1.1-0.5 0.4-1.1 0.4-0.6 0-1-0.4-0.4-0.4-0.4-1.1v-6.1q0-0.8-0.2-1.4-0.2-0.7-0.8-1.1-0.5-0.3-1.5-0.3-0.9 0-1.6 0.3-0.6 0.4-1 1.1-0.3 0.6-0.3 1.4v6.1q0 0.7-0.5 1.1-0.4 0.4-1 0.4-0.6 0-1-0.4-0.4-0.4-0.4-1.1v-9.9q0-0.6 0.4-1 0.4-0.4 1-0.4 0.6 0 1 0.4 0.5 0.4 0.5 1v1.1l-0.4-0.1q0.2-0.4 0.6-0.9 0.4-0.5 1-0.9 0.5-0.4 1.2-0.6 0.7-0.3 1.5-0.3zm6.7 11.1q-0.2-0.3-0.2-0.9 0-0.5 0.6-0.9 0.4-0.2 0.9-0.2 0.4 0.1 0.8 0.5 0.7 0.7 1.5 1.1 0.7 0.3 1.9 0.3 0.3 0 0.8-0.1 0.4-0.1 0.7-0.3 0.4-0.4 0.4-1 0-0.5-0.4-0.8-0.4-0.3-1-0.5-0.5-0.3-1.3-0.5-0.7-0.2-1.5-0.4-0.8-0.3-1.4-0.7-0.7-0.4-1.1-1.1-0.4-0.7-0.4-1.8 0-1.2 0.7-2 0.7-0.9 1.7-1.3 1.1-0.5 2.3-0.5 0.7 0 1.5 0.2 0.9 0.2 1.6 0.6 0.7 0.4 1.2 1 0.3 0.4 0.4 0.9 0 0.5-0.5 0.9-0.4 0.3-0.8 0.3-0.5-0.1-0.8-0.4-0.4-0.5-1.1-0.8-0.7-0.3-1.6-0.3-0.4 0-0.8 0.1-0.4 0-0.7 0.3-0.3 0.3-0.3 0.9 0 0.5 0.3 0.9 0.4 0.3 1 0.5 0.6 0.2 1.3 0.4 0.7 0.2 1.5 0.4 0.7 0.3 1.4 0.7 0.6 0.5 1 1.2 0.3 0.6 0.3 1.7 0 1.2-0.7 2.1-0.7 0.9-1.8 1.3-1.1 0.4-2.2 0.4-1.4 0-2.8-0.4-1.4-0.5-2.4-1.8zm15.1-9.4v9.9q0 0.7-0.4 1.1-0.5 0.4-1.1 0.4-0.6 0-1-0.4-0.4-0.4-0.4-1.1v-9.9q0-0.6 0.4-1 0.4-0.4 1-0.4 0.6 0 1.1 0.4 0.4 0.4 0.4 1zm-1.5-3q-0.8 0-1.2-0.3-0.3-0.2-0.3-0.9v-0.5q0-0.7 0.4-0.9 0.4-0.3 1.1-0.3 0.9 0 1.2 0.3 0.3 0.3 0.3 0.9v0.5q0 0.7-0.3 1-0.4 0.2-1.2 0.2zm9.7 1.3q1 0 1.9 0.3 0.8 0.3 1.4 0.8 0.7 0.5 1 1 0.3 0.5 0.3 0.8l-0.6 0.3v-1.7q0-0.6 0.4-1 0.4-0.5 1.1-0.5 0.6 0 1 0.4 0.4 0.4 0.4 1.1v10.7q0 2.1-0.9 3.3-0.9 1.3-2.4 1.8-1.4 0.6-3.1 0.6-0.5 0-1.3-0.1-0.7-0.1-1.4-0.3-0.7-0.2-1.1-0.3-0.7-0.3-1-0.8-0.2-0.5-0.1-1 0.2-0.7 0.7-0.9 0.5-0.3 1-0.1 0.3 0.1 0.8 0.3 0.6 0.2 1.2 0.4 0.7 0.2 1.2 0.2 1.8 0 2.7-0.8 0.8-0.7 0.8-2v-2l0.3 0.2q0 0.3-0.3 0.7-0.3 0.5-0.9 0.9-0.6 0.4-1.3 0.8-0.8 0.2-1.7 0.2-1.7 0-3-0.8-1.4-0.9-2.2-2.4-0.8-1.5-0.8-3.4 0-2 0.8-3.5 0.8-1.5 2.1-2.3 1.4-0.9 3-0.9zm0.5 2.7q-1.1 0-1.9 0.5-0.8 0.5-1.3 1.4-0.4 0.9-0.4 2.1 0 1.1 0.4 2 0.5 0.9 1.3 1.5 0.8 0.5 1.9 0.5 1.1 0 1.9-0.5 0.8-0.6 1.3-1.5 0.4-0.9 0.4-2 0-1.2-0.4-2.1-0.5-0.9-1.3-1.4-0.8-0.5-1.9-0.5zm16.3-2.7q1.7 0 2.6 0.8 0.9 0.7 1.2 2 0.4 1.2 0.4 2.7v6.1q0 0.7-0.4 1.1-0.4 0.4-1.1 0.4-0.6 0-1-0.4-0.4-0.4-0.4-1.1v-6.1q0-0.8-0.2-1.4-0.2-0.7-0.7-1.1-0.5-0.3-1.4-0.3-1 0-1.6 0.3-0.6 0.4-1 1.1-0.3 0.6-0.3 1.4v6.1q0 0.7-0.4 1.1-0.4 0.4-1 0.4-0.7 0-1.1-0.4-0.4-0.4-0.4-1.1v-14.8q0-0.6 0.4-1 0.4-0.5 1.1-0.5 0.6 0 1 0.5 0.4 0.4 0.4 1v6l-0.4-0.1q0.3-0.4 0.6-0.9 0.4-0.5 1-0.9 0.5-0.4 1.2-0.6 0.7-0.3 1.5-0.3zm7.4 0.5h5.7q0.6 0 1 0.4 0.4 0.4 0.4 0.9 0 0.6-0.4 1-0.4 0.3-1 0.3h-5.7q-0.5 0-0.9-0.3-0.4-0.4-0.4-1 0-0.6 0.4-0.9 0.4-0.4 0.9-0.4zm2.6-3q0.6 0 1 0.4 0.4 0.4 0.4 1.1v10.6q0 0.4 0.1 0.6 0.2 0.2 0.4 0.3 0.2 0.1 0.5 0.1 0.3 0 0.5-0.1 0.3-0.1 0.6-0.1 0.3 0 0.6 0.3 0.3 0.3 0.3 0.9 0 0.6-0.8 1.1-0.7 0.4-1.5 0.4-0.5 0-1.2-0.1-0.6-0.1-1.1-0.4-0.5-0.3-0.9-1-0.4-0.7-0.4-1.8v-10.8q0-0.7 0.4-1.1 0.5-0.4 1.1-0.4zm6.8 13.6q-0.2-0.3-0.2-0.9 0-0.5 0.6-0.9 0.4-0.2 0.9-0.2 0.4 0.1 0.8 0.5 0.7 0.7 1.5 1.1 0.7 0.3 1.9 0.3 0.3 0 0.8-0.1 0.4-0.1 0.7-0.3 0.4-0.4 0.4-1 0-0.5-0.4-0.8-0.4-0.3-1-0.5-0.5-0.3-1.3-0.5-0.7-0.2-1.5-0.4-0.8-0.3-1.4-0.7-0.7-0.4-1.1-1.1-0.4-0.7-0.4-1.8 0-1.2 0.7-2 0.7-0.9 1.7-1.3 1.1-0.5 2.3-0.5 0.7 0 1.5 0.2 0.9 0.2 1.6 0.6 0.7 0.4 1.3 1 0.2 0.4 0.3 0.9 0 0.5-0.5 0.9-0.4 0.3-0.8 0.3-0.5-0.1-0.8-0.4-0.4-0.5-1.1-0.8-0.7-0.3-1.6-0.3-0.3 0-0.8 0.1-0.4 0-0.7 0.3-0.3 0.3-0.3 0.9 0 0.5 0.3 0.9 0.4 0.3 1 0.5 0.6 0.2 1.3 0.4 0.7 0.2 1.5 0.4 0.7 0.3 1.4 0.7 0.6 0.5 1 1.2 0.4 0.6 0.4 1.7 0 1.2-0.8 2.1-0.7 0.9-1.8 1.3-1 0.4-2.2 0.4-1.4 0-2.8-0.4-1.4-0.5-2.4-1.8z"/>
</svg>