<svg width="1077" height="83" viewBox="0 0 1077 83" fill="none" xmlns="http://www.w3.org/2000/svg">
<path d="M23.5176 72.2881L38.8984 18.0156H47.6875L27.8242 82H21.6279L23.5176 72.2881ZM9.71875 18.0156L24.9678 72.2881L26.9893 82H20.793L0.929688 18.0156H9.71875ZM92.8896 44.4707V55.5889C92.8896 60.1006 92.3916 64.0703 91.3955 67.498C90.4287 70.8965 89.0078 73.7383 87.1328 76.0234C85.2578 78.3086 83.002 80.0225 80.3652 81.165C77.7285 82.3076 74.7549 82.8789 71.4443 82.8789C68.251 82.8789 65.3359 82.3076 62.6992 81.165C60.0625 80.0225 57.792 78.3086 55.8877 76.0234C53.9834 73.7383 52.5039 70.8965 51.4492 67.498C50.4238 64.0703 49.9111 60.1006 49.9111 55.5889V44.4707C49.9111 39.959 50.4238 36.0039 51.4492 32.6055C52.4746 29.1777 53.9395 26.3213 55.8438 24.0361C57.748 21.751 60.0186 20.0371 62.6553 18.8945C65.292 17.7227 68.207 17.1367 71.4004 17.1367C74.7109 17.1367 77.6846 17.7227 80.3213 18.8945C82.9873 20.0371 85.2432 21.751 87.0889 24.0361C88.9639 26.3213 90.3994 29.1777 91.3955 32.6055C92.3916 36.0039 92.8896 39.959 92.8896 44.4707ZM84.8916 55.5889V44.3828C84.8916 40.8672 84.5986 37.8496 84.0127 35.3301C83.4268 32.7812 82.5625 30.7012 81.4199 29.0898C80.2773 27.4785 78.8711 26.292 77.2012 25.5303C75.5312 24.7393 73.5977 24.3438 71.4004 24.3438C69.3203 24.3438 67.4453 24.7393 65.7754 25.5303C64.1348 26.292 62.7285 27.4785 61.5566 29.0898C60.3848 30.7012 59.4766 32.7812 58.832 35.3301C58.2168 37.8496 57.9092 40.8672 57.9092 44.3828V55.5889C57.9092 59.1338 58.2168 62.1807 58.832 64.7295C59.4766 67.249 60.3848 69.3291 61.5566 70.9697C62.7578 72.5811 64.1934 73.7822 65.8633 74.5732C67.5332 75.335 69.3936 75.7158 71.4443 75.7158C73.6416 75.7158 75.5752 75.335 77.2451 74.5732C78.9443 73.7822 80.3506 72.5811 81.4639 70.9697C82.6064 69.3291 83.4561 67.249 84.0127 64.7295C84.5986 62.1807 84.8916 59.1338 84.8916 55.5889ZM132.95 61.6533H141.036C140.831 66.0479 139.938 69.8418 138.355 73.0352C136.803 76.1992 134.532 78.6309 131.544 80.3301C128.585 82.0293 124.879 82.8789 120.426 82.8789C117.232 82.8789 114.347 82.249 111.769 80.9893C109.19 79.7295 106.979 77.9277 105.133 75.584C103.316 73.2109 101.925 70.3691 100.958 67.0586C99.9912 63.748 99.5078 60.0273 99.5078 55.8965V44.0752C99.5078 39.9736 99.9912 36.2676 100.958 32.957C101.954 29.6465 103.375 26.8193 105.221 24.4756C107.096 22.1025 109.366 20.2861 112.032 19.0264C114.728 17.7666 117.774 17.1367 121.173 17.1367C125.333 17.1367 128.849 17.9717 131.72 19.6416C134.62 21.2822 136.847 23.6992 138.399 26.8926C139.981 30.0566 140.86 33.9385 141.036 38.5381H132.95C132.745 35.1689 132.218 32.4297 131.368 30.3203C130.519 28.1816 129.259 26.6143 127.589 25.6182C125.948 24.5928 123.81 24.0801 121.173 24.0801C118.829 24.0801 116.793 24.5488 115.064 25.4863C113.365 26.4238 111.959 27.7715 110.846 29.5293C109.762 31.2578 108.941 33.3525 108.385 35.8135C107.857 38.2451 107.594 40.9697 107.594 43.9873V55.8965C107.594 58.709 107.813 61.3311 108.253 63.7627C108.722 66.1943 109.454 68.333 110.45 70.1787C111.476 71.9951 112.809 73.416 114.449 74.4414C116.09 75.4668 118.082 75.9795 120.426 75.9795C123.385 75.9795 125.729 75.4961 127.457 74.5293C129.186 73.5625 130.46 72.0244 131.28 69.915C132.13 67.8057 132.687 65.0518 132.95 61.6533ZM181.888 75.1006V82H154.114V75.1006H181.888ZM155.564 18.0156V82H147.479V18.0156H155.564ZM178.152 45.5254V52.4248H154.114V45.5254H178.152ZM181.448 18.0156V24.959H154.114V18.0156H181.448ZM166.639 0.349609L175.867 12.3467V12.7861H169.583L164.31 5.35938L159.08 12.7861H152.84V12.3027L161.98 0.349609H166.639ZM240.106 59.4561H227.011V48.7773H240.106C241.923 48.7773 243.402 48.3672 244.545 47.5469C245.717 46.7266 246.566 45.5986 247.094 44.1631C247.621 42.6982 247.885 41.0576 247.885 39.2412C247.885 37.3955 247.606 35.6816 247.05 34.0996C246.522 32.4883 245.688 31.1846 244.545 30.1885C243.432 29.1924 241.952 28.6943 240.106 28.6943H231.142V82H218.31V18.0156H240.106C244.413 18.0156 248.119 18.9238 251.225 20.7402C254.33 22.5566 256.703 25.0615 258.344 28.2549C260.014 31.4189 260.849 35.0518 260.849 39.1533C260.849 43.2842 260.014 46.873 258.344 49.9199C256.703 52.9375 254.33 55.2812 251.225 56.9512C248.119 58.6211 244.413 59.4561 240.106 59.4561ZM265.006 18.0156H285.528C289.806 18.0156 293.453 18.748 296.471 20.2129C299.488 21.6777 301.803 23.8457 303.414 26.7168C305.025 29.5879 305.831 33.1328 305.831 37.3516C305.831 40.8086 305.362 43.7676 304.425 46.2285C303.487 48.6602 302.154 50.6963 300.426 52.3369C298.697 53.9482 296.632 55.2373 294.229 56.2041L290.318 58.5332H273.663L273.619 47.8545H285.177C286.935 47.8545 288.385 47.4736 289.527 46.7119C290.699 45.9209 291.563 44.8223 292.12 43.416C292.706 41.9805 292.999 40.3105 292.999 38.4062C292.999 36.3848 292.735 34.6562 292.208 33.2207C291.71 31.7559 290.904 30.6426 289.791 29.8809C288.707 29.0898 287.286 28.6943 285.528 28.6943H277.882V82H265.006V18.0156ZM294.054 82L282.32 53.4795L295.812 53.4355L307.809 81.3848V82H294.054ZM355.252 45.042V55.7207C355.252 60.2324 354.695 64.1875 353.582 67.5859C352.498 70.9551 350.945 73.7822 348.924 76.0674C346.932 78.3232 344.515 80.0225 341.673 81.165C338.86 82.3076 335.74 82.8789 332.312 82.8789C328.885 82.8789 325.75 82.3076 322.908 81.165C320.096 80.0225 317.664 78.3232 315.613 76.0674C313.592 73.7822 312.024 70.9551 310.911 67.5859C309.798 64.1875 309.241 60.2324 309.241 55.7207V45.042C309.241 40.4131 309.783 36.3701 310.867 32.9131C311.951 29.4268 313.519 26.5264 315.569 24.2119C317.62 21.8682 320.052 20.1104 322.864 18.9385C325.677 17.7373 328.797 17.1367 332.225 17.1367C335.652 17.1367 338.772 17.7373 341.585 18.9385C344.397 20.1104 346.829 21.8682 348.88 24.2119C350.931 26.5264 352.498 29.4268 353.582 32.9131C354.695 36.3701 355.252 40.4131 355.252 45.042ZM342.464 55.7207V44.9541C342.464 41.9072 342.244 39.3145 341.805 37.1758C341.365 35.0078 340.706 33.2354 339.827 31.8584C338.948 30.4814 337.879 29.4707 336.619 28.8262C335.359 28.1816 333.895 27.8594 332.225 27.8594C330.555 27.8594 329.075 28.1816 327.786 28.8262C326.526 29.4707 325.457 30.4814 324.578 31.8584C323.729 33.2354 323.084 35.0078 322.645 37.1758C322.234 39.3145 322.029 41.9072 322.029 44.9541V55.7207C322.029 58.6504 322.249 61.1553 322.688 63.2354C323.128 65.3154 323.787 67.0146 324.666 68.333C325.545 69.6514 326.614 70.6328 327.874 71.2773C329.163 71.8926 330.643 72.2002 332.312 72.2002C333.953 72.2002 335.403 71.8926 336.663 71.2773C337.952 70.6328 339.021 69.6514 339.871 68.333C340.721 67.0146 341.365 65.3154 341.805 63.2354C342.244 61.1553 342.464 58.6504 342.464 55.7207ZM326.204 14.4561L334.817 0.876953H348.66L336.531 14.4561H326.204ZM417.136 18.0156V82H404.348V18.0156H417.136ZM428.192 18.0156H439.486L452.538 61.7852L465.546 18.0156H475.521L457.328 82H447.704L428.192 18.0156ZM423.622 18.0156H434.389L436.059 60.2031V82H423.622V18.0156ZM470.6 18.0156H481.41V82H469.018V60.2031L470.6 18.0156ZM532.369 45.042V55.7207C532.369 60.2324 531.812 64.1875 530.699 67.5859C529.615 70.9551 528.062 73.7822 526.041 76.0674C524.049 78.3232 521.632 80.0225 518.79 81.165C515.978 82.3076 512.857 82.8789 509.43 82.8789C506.002 82.8789 502.867 82.3076 500.025 81.165C497.213 80.0225 494.781 78.3232 492.73 76.0674C490.709 73.7822 489.142 70.9551 488.028 67.5859C486.915 64.1875 486.358 60.2324 486.358 55.7207V45.042C486.358 40.4131 486.9 36.3701 487.984 32.9131C489.068 29.4268 490.636 26.5264 492.687 24.2119C494.737 21.8682 497.169 20.1104 499.981 18.9385C502.794 17.7373 505.914 17.1367 509.342 17.1367C512.77 17.1367 515.89 17.7373 518.702 18.9385C521.515 20.1104 523.946 21.8682 525.997 24.2119C528.048 26.5264 529.615 29.4268 530.699 32.9131C531.812 36.3701 532.369 40.4131 532.369 45.042ZM519.581 55.7207V44.9541C519.581 41.9072 519.361 39.3145 518.922 37.1758C518.482 35.0078 517.823 33.2354 516.944 31.8584C516.065 30.4814 514.996 29.4707 513.736 28.8262C512.477 28.1816 511.012 27.8594 509.342 27.8594C507.672 27.8594 506.192 28.1816 504.903 28.8262C503.644 29.4707 502.574 30.4814 501.695 31.8584C500.846 33.2354 500.201 35.0078 499.762 37.1758C499.352 39.3145 499.146 41.9072 499.146 44.9541V55.7207C499.146 58.6504 499.366 61.1553 499.806 63.2354C500.245 65.3154 500.904 67.0146 501.783 68.333C502.662 69.6514 503.731 70.6328 504.991 71.2773C506.28 71.8926 507.76 72.2002 509.43 72.2002C511.07 72.2002 512.521 71.8926 513.78 71.2773C515.069 70.6328 516.139 69.6514 516.988 68.333C517.838 67.0146 518.482 65.3154 518.922 63.2354C519.361 61.1553 519.581 58.6504 519.581 55.7207ZM569.6 82H558.701L558.789 75.1006H569.6C573.438 75.1006 576.558 74.3682 578.96 72.9033C581.362 71.4092 583.135 69.2119 584.277 66.3115C585.42 63.3818 585.991 59.7637 585.991 55.457V44.5146C585.991 41.1162 585.669 38.1865 585.024 35.7256C584.38 33.2646 583.413 31.2432 582.124 29.6611C580.835 28.0791 579.209 26.9072 577.246 26.1455C575.283 25.3545 572.983 24.959 570.347 24.959H558.481V18.0156H570.347C573.95 18.0156 577.202 18.5869 580.103 19.7295C583.003 20.8428 585.493 22.5273 587.573 24.7832C589.653 27.0098 591.235 29.7783 592.319 33.0889C593.433 36.3994 593.989 40.2373 593.989 44.6025V55.457C593.989 59.8223 593.433 63.6602 592.319 66.9707C591.235 70.2812 589.639 73.0498 587.529 75.2764C585.42 77.5029 582.856 79.1875 579.839 80.3301C576.851 81.4434 573.438 82 569.6 82ZM563.184 18.0156V82H555.098V18.0156H563.184ZM621.789 23.6846L604.299 82H596.037L616.647 18.0156H621.833L621.789 23.6846ZM635.939 82L618.449 23.6846L618.361 18.0156H623.591L644.201 82H635.939ZM635.939 58.3135V65.2568H605.09V58.3135H635.939ZM692.638 65.8281C692.638 64.334 692.462 63.0156 692.11 61.873C691.759 60.7012 691.144 59.6465 690.265 58.709C689.386 57.7715 688.155 56.8779 686.573 56.0283C684.991 55.1787 682.984 54.3145 680.553 53.4355C677.916 52.498 675.528 51.458 673.39 50.3154C671.251 49.1436 669.42 47.8105 667.896 46.3164C666.402 44.8223 665.245 43.1084 664.425 41.1748C663.604 39.2412 663.194 37.0293 663.194 34.5391C663.194 32.0488 663.619 29.749 664.469 27.6396C665.348 25.5303 666.578 23.6992 668.16 22.1465C669.771 20.5645 671.705 19.334 673.961 18.4551C676.217 17.5762 678.736 17.1367 681.52 17.1367C685.68 17.1367 689.181 18.0596 692.022 19.9053C694.894 21.7217 697.062 24.1094 698.526 27.0684C699.991 29.998 700.724 33.1328 700.724 36.4727H692.638C692.638 34.0703 692.242 31.9463 691.451 30.1006C690.689 28.2256 689.488 26.7607 687.848 25.7061C686.236 24.6221 684.127 24.0801 681.52 24.0801C679.176 24.0801 677.242 24.5342 675.719 25.4424C674.225 26.3506 673.111 27.5811 672.379 29.1338C671.676 30.6865 671.324 32.459 671.324 34.4512C671.324 35.7988 671.559 37.0293 672.027 38.1426C672.496 39.2266 673.214 40.2373 674.181 41.1748C675.177 42.1123 676.407 42.9766 677.872 43.7676C679.366 44.5586 681.124 45.3203 683.146 46.0527C686.28 47.0781 688.961 48.2207 691.188 49.4805C693.414 50.7402 695.23 52.1611 696.637 53.7432C698.043 55.2959 699.068 57.0684 699.713 59.0605C700.387 61.0234 700.724 63.25 700.724 65.7402C700.724 68.3477 700.284 70.7061 699.405 72.8154C698.556 74.9248 697.311 76.7266 695.67 78.2207C694.029 79.7148 692.052 80.8721 689.737 81.6924C687.423 82.4834 684.815 82.8789 681.915 82.8789C679.396 82.8789 676.92 82.4688 674.488 81.6484C672.086 80.8281 669.903 79.5977 667.94 77.957C665.978 76.3164 664.41 74.2949 663.238 71.8926C662.066 69.4609 661.48 66.6484 661.48 63.4551H669.566C669.566 65.6523 669.889 67.542 670.533 69.124C671.178 70.6768 672.071 71.9658 673.214 72.9912C674.356 74.0166 675.66 74.7783 677.125 75.2764C678.619 75.7451 680.216 75.9795 681.915 75.9795C684.259 75.9795 686.222 75.5693 687.804 74.749C689.415 73.9287 690.616 72.7568 691.407 71.2334C692.228 69.71 692.638 67.9082 692.638 65.8281ZM736.917 18.0156H745.003V63.0596C745.003 67.8643 744.08 71.7168 742.234 74.6172C740.389 77.5176 737.957 79.627 734.939 80.9453C731.951 82.2344 728.729 82.8789 725.271 82.8789C721.58 82.8789 718.255 82.2344 715.296 80.9453C712.337 79.627 709.979 77.5176 708.221 74.6172C706.492 71.7168 705.628 67.8643 705.628 63.0596V18.0156H713.67V63.0596C713.67 66.3994 714.139 69.0068 715.076 70.8818C716.043 72.7568 717.391 74.0752 719.119 74.8369C720.877 75.5986 722.928 75.9795 725.271 75.9795C727.645 75.9795 729.695 75.5986 731.424 74.8369C733.182 74.0752 734.529 72.7568 735.467 70.8818C736.434 69.0068 736.917 66.3994 736.917 63.0596V18.0156ZM772.627 23.6846L755.137 82H746.875L767.485 18.0156H772.671L772.627 23.6846ZM786.777 82L769.287 23.6846L769.199 18.0156H774.429L795.039 82H786.777ZM786.777 58.3135V65.2568H755.928V58.3135H786.777ZM823.568 18.0156V82H815.482V18.0156H823.568ZM845.146 46.7998V53.7432H822.03V46.7998H845.146ZM848.793 18.0156V24.959H822.03V18.0156H848.793ZM867.584 23.6846L850.094 82H841.832L862.442 18.0156H867.628L867.584 23.6846ZM881.734 82L864.244 23.6846L864.156 18.0156H869.386L889.996 82H881.734ZM881.734 58.3135V65.2568H850.885V58.3135H881.734ZM909.139 18.0156V82H901.141V18.0156H909.139ZM925.97 18.0156V24.959H884.354V18.0156H925.97ZM961.021 18.0156H969.106V63.0596C969.106 67.8643 968.184 71.7168 966.338 74.6172C964.492 77.5176 962.061 79.627 959.043 80.9453C956.055 82.2344 952.832 82.8789 949.375 82.8789C945.684 82.8789 942.358 82.2344 939.399 80.9453C936.44 79.627 934.082 77.5176 932.324 74.6172C930.596 71.7168 929.731 67.8643 929.731 63.0596V18.0156H937.773V63.0596C937.773 66.3994 938.242 69.0068 939.18 70.8818C940.146 72.7568 941.494 74.0752 943.223 74.8369C944.98 75.5986 947.031 75.9795 949.375 75.9795C951.748 75.9795 953.799 75.5986 955.527 74.8369C957.285 74.0752 958.633 72.7568 959.57 70.8818C960.537 69.0068 961.021 66.3994 961.021 63.0596V18.0156ZM976.999 18.0156H994.885C999.045 18.0156 1002.53 18.748 1005.34 20.2129C1008.19 21.6777 1010.32 23.8457 1011.76 26.7168C1013.22 29.5586 1013.96 33.0596 1013.96 37.2197C1013.96 40.1494 1013.47 42.8301 1012.51 45.2617C1011.54 47.6641 1010.13 49.7148 1008.29 51.4141C1006.44 53.084 1004.2 54.3291 1001.56 55.1494L999.367 56.0723H983.415L983.327 49.1729H994.797C997.258 49.1729 999.309 48.6455 1000.95 47.5908C1002.59 46.5068 1003.82 45.0566 1004.64 43.2402C1005.46 41.4238 1005.87 39.417 1005.87 37.2197C1005.87 34.7588 1005.5 32.6055 1004.77 30.7598C1004.04 28.9141 1002.87 27.4932 1001.26 26.4971C999.675 25.4717 997.551 24.959 994.885 24.959H985.085V82H976.999V18.0156ZM1007.72 82L994.973 52.9961L1003.37 52.9521L1016.37 81.4727V82H1007.72ZM1041.01 23.6846L1023.52 82H1015.26L1035.87 18.0156H1041.05L1041.01 23.6846ZM1055.16 82L1037.67 23.6846L1037.58 18.0156H1042.81L1063.42 82H1055.16ZM1055.16 58.3135V65.2568H1024.31V58.3135H1055.16ZM1076.02 18.0156L1075.45 63.9385H1068.46L1067.84 18.0156H1076.02ZM1067.71 77.9131C1067.71 76.5947 1068.08 75.4814 1068.81 74.5732C1069.57 73.665 1070.67 73.2109 1072.11 73.2109C1073.57 73.2109 1074.67 73.665 1075.4 74.5732C1076.16 75.4814 1076.54 76.5947 1076.54 77.9131C1076.54 79.1729 1076.16 80.2568 1075.4 81.165C1074.67 82.0732 1073.57 82.5273 1072.11 82.5273C1070.67 82.5273 1069.57 82.0732 1068.81 81.165C1068.08 80.2568 1067.71 79.1729 1067.71 77.9131Z" fill="black"/>
<path d="M373.032 18.0156L380.942 42.4932L396.455 18.0156H406.035L384.634 50.0957L395.928 82H387.095L379.097 57.0391L363.232 82H353.521L375.405 49.3047L364.287 18.0156H373.032Z" fill="#FF6F61"/>
</svg>
