<svg width="276" height="129" viewBox="0 0 276 129" fill="none" xmlns="http://www.w3.org/2000/svg">
<rect width="276" height="129" rx="10" fill="white"/>
<rect x="1" y="1" width="274" height="127" rx="9" stroke="#00ACBE" stroke-opacity="0.6" stroke-width="2" stroke-linejoin="round" stroke-dasharray="15 15"/>
<rect x="3" y="2" width="271" height="125" rx="20" fill="#00ACBE" fill-opacity="0.1"/>
<path d="M64.8844 52.0156C64.8844 51.6094 64.8479 51.2396 64.775 50.9062C64.7021 50.5729 64.5458 50.2656 64.3063 49.9844C64.0771 49.7031 63.7385 49.4219 63.2906 49.1406C62.8531 48.8594 62.2802 48.5677 61.5719 48.2656C60.7281 47.9115 59.9104 47.5365 59.1188 47.1406C58.3271 46.7344 57.6135 46.2656 56.9781 45.7344C56.3427 45.2031 55.8375 44.5781 55.4625 43.8594C55.0979 43.1302 54.9156 42.276 54.9156 41.2969C54.9156 40.3385 55.0875 39.4688 55.4313 38.6875C55.7854 37.9062 56.2854 37.2396 56.9313 36.6875C57.5771 36.125 58.3323 35.6927 59.1969 35.3906C60.0719 35.0885 61.0458 34.9375 62.1188 34.9375C63.5771 34.9375 64.8375 35.2396 65.9 35.8438C66.9729 36.4479 67.801 37.276 68.3844 38.3281C68.9781 39.3802 69.275 40.5885 69.275 41.9531H64.7125C64.7125 41.3073 64.6188 40.7396 64.4313 40.25C64.2542 39.75 63.9677 39.3594 63.5719 39.0781C63.176 38.7969 62.6656 38.6562 62.0406 38.6562C61.4573 38.6562 60.9729 38.776 60.5875 39.0156C60.2125 39.2448 59.9313 39.5625 59.7438 39.9688C59.5667 40.3646 59.4781 40.8125 59.4781 41.3125C59.4781 41.6875 59.5667 42.026 59.7438 42.3281C59.9313 42.6198 60.1865 42.8854 60.5094 43.125C60.8323 43.3542 61.2125 43.5781 61.65 43.7969C62.0979 44.0156 62.5875 44.2292 63.1188 44.4375C64.15 44.8438 65.0615 45.2917 65.8531 45.7812C66.6448 46.2604 67.3063 46.8021 67.8375 47.4062C68.3688 48 68.7698 48.6719 69.0406 49.4219C69.3115 50.1719 69.4469 51.026 69.4469 51.9844C69.4469 52.9323 69.2802 53.7969 68.9469 54.5781C68.624 55.349 68.15 56.0156 67.525 56.5781C66.9 57.1302 66.1448 57.5573 65.2594 57.8594C64.3844 58.1615 63.4052 58.3125 62.3219 58.3125C61.2698 58.3125 60.275 58.1667 59.3375 57.875C58.4 57.5729 57.5719 57.1198 56.8531 56.5156C56.1448 55.901 55.5875 55.125 55.1813 54.1875C54.775 53.2396 54.5719 52.1198 54.5719 50.8281H59.15C59.15 51.5156 59.2177 52.1042 59.3531 52.5938C59.4885 53.0729 59.6969 53.4583 59.9781 53.75C60.2594 54.0312 60.6031 54.2448 61.0094 54.3906C61.426 54.526 61.9 54.5938 62.4313 54.5938C63.0354 54.5938 63.5146 54.4792 63.8688 54.25C64.2333 54.0208 64.4938 53.7135 64.65 53.3281C64.8063 52.9427 64.8844 52.5052 64.8844 52.0156ZM85.9075 54.2188V58H76.0169V54.2188H85.9075ZM77.4388 35.25V58H72.8606V35.25H77.4388ZM84.5794 44.4688V48.1406H76.0169V44.4688H84.5794ZM85.8763 35.25V39.0469H76.0169V35.25H85.8763ZM101.524 54.2188V58H92.0713V54.2188H101.524ZM93.4775 35.25V58H88.8994V35.25H93.4775ZM117.579 54.2188V58H107.688V54.2188H117.579ZM109.11 35.25V58H104.532V35.25H109.11ZM116.251 44.4688V48.1406H107.688V44.4688H116.251ZM117.548 35.25V39.0469H107.688V35.25H117.548ZM131.414 50.4219H135.961C135.899 52.1302 135.555 53.5729 134.93 54.75C134.305 55.9167 133.414 56.8021 132.258 57.4062C131.112 58.0104 129.727 58.3125 128.102 58.3125C126.841 58.3125 125.722 58.1042 124.743 57.6875C123.763 57.2604 122.93 56.6354 122.243 55.8125C121.555 54.9896 121.034 53.974 120.68 52.7656C120.336 51.5469 120.164 50.1458 120.164 48.5625V44.7031C120.164 43.1198 120.347 41.7188 120.711 40.5C121.086 39.2812 121.618 38.2604 122.305 37.4375C123.003 36.6042 123.841 35.9792 124.821 35.5625C125.81 35.1354 126.925 34.9219 128.164 34.9219C129.821 34.9219 131.206 35.2344 132.321 35.8594C133.435 36.4844 134.295 37.3958 134.899 38.5938C135.513 39.7812 135.883 41.2344 136.008 42.9531H131.446C131.414 41.8698 131.289 41.0208 131.071 40.4062C130.862 39.7812 130.529 39.3438 130.071 39.0938C129.612 38.8333 128.977 38.7031 128.164 38.7031C127.56 38.7031 127.039 38.8125 126.602 39.0312C126.164 39.2396 125.805 39.5781 125.524 40.0469C125.243 40.5156 125.034 41.1302 124.899 41.8906C124.774 42.651 124.711 43.5781 124.711 44.6719V48.5625C124.711 49.6354 124.769 50.5521 124.883 51.3125C124.998 52.0625 125.18 52.6771 125.43 53.1562C125.68 53.6354 126.019 53.9844 126.446 54.2031C126.883 54.4219 127.435 54.5312 128.102 54.5312C128.873 54.5312 129.493 54.4167 129.961 54.1875C130.44 53.9583 130.795 53.5469 131.024 52.9531C131.253 52.3594 131.383 51.5156 131.414 50.4219ZM143.891 35.25V58H139.344V35.25H143.891ZM164.101 44.8594V48.6562C164.101 50.2604 163.903 51.6667 163.507 52.875C163.122 54.0729 162.57 55.0781 161.851 55.8906C161.143 56.6927 160.284 57.2969 159.273 57.7031C158.273 58.1094 157.164 58.3125 155.945 58.3125C154.726 58.3125 153.612 58.1094 152.601 57.7031C151.601 57.2969 150.737 56.6927 150.007 55.8906C149.289 55.0781 148.731 54.0729 148.336 52.875C147.94 51.6667 147.742 50.2604 147.742 48.6562V44.8594C147.742 43.2135 147.935 41.776 148.32 40.5469C148.705 39.3073 149.263 38.276 149.992 37.4531C150.721 36.6198 151.586 35.9948 152.586 35.5781C153.586 35.151 154.695 34.9375 155.914 34.9375C157.132 34.9375 158.242 35.151 159.242 35.5781C160.242 35.9948 161.106 36.6198 161.836 37.4531C162.565 38.276 163.122 39.3073 163.507 40.5469C163.903 41.776 164.101 43.2135 164.101 44.8594ZM159.554 48.6562V44.8281C159.554 43.7448 159.476 42.8229 159.32 42.0625C159.164 41.2917 158.929 40.6615 158.617 40.1719C158.304 39.6823 157.924 39.3229 157.476 39.0938C157.028 38.8646 156.507 38.75 155.914 38.75C155.32 38.75 154.794 38.8646 154.336 39.0938C153.888 39.3229 153.507 39.6823 153.195 40.1719C152.893 40.6615 152.664 41.2917 152.507 42.0625C152.362 42.8229 152.289 43.7448 152.289 44.8281V48.6562C152.289 49.6979 152.367 50.5885 152.523 51.3281C152.679 52.0677 152.914 52.6719 153.226 53.1406C153.539 53.6094 153.919 53.9583 154.367 54.1875C154.825 54.4062 155.351 54.5156 155.945 54.5156C156.528 54.5156 157.044 54.4062 157.492 54.1875C157.95 53.9583 158.33 53.6094 158.632 53.1406C158.935 52.6719 159.164 52.0677 159.32 51.3281C159.476 50.5885 159.554 49.6979 159.554 48.6562ZM183.656 35.25V58H179.234L172.093 43.7656V58H167.749V35.25H172.109L179.312 49.6406V35.25H183.656ZM196.179 39.3125L191.288 58H186.46L193.569 35.25H196.585L196.179 39.3125ZM200.038 58L195.116 39.3125L194.663 35.25H197.726L204.897 58H200.038ZM200.21 49.5156V53.3125H189.944V49.5156H200.21ZM207.405 35.25H214.702C216.223 35.25 217.52 35.5104 218.592 36.0312C219.665 36.5521 220.488 37.3229 221.061 38.3438C221.634 39.3646 221.921 40.625 221.921 42.125C221.921 43.3542 221.754 44.4062 221.421 45.2812C221.087 46.1458 220.613 46.8698 219.999 47.4531C219.384 48.026 218.65 48.4844 217.796 48.8281L216.405 49.6562H210.483L210.467 45.8594H214.577C215.202 45.8594 215.717 45.724 216.124 45.4531C216.54 45.1719 216.848 44.7812 217.046 44.2812C217.254 43.7708 217.358 43.1771 217.358 42.5C217.358 41.7812 217.264 41.1667 217.077 40.6562C216.9 40.1354 216.613 39.7396 216.217 39.4688C215.832 39.1875 215.327 39.0469 214.702 39.0469H211.983V58H207.405V35.25ZM217.733 58L213.561 47.8594L218.358 47.8438L222.624 57.7812V58H217.733ZM93.3875 71.25V94H90.5125V71.25H93.3875ZM101.059 81.4844V83.9531H92.8406V81.4844H101.059ZM102.356 71.25V73.7188H92.8406V71.25H102.356ZM110.957 73.2656L104.739 94H101.801L109.129 71.25H110.973L110.957 73.2656ZM115.989 94L109.77 73.2656L109.739 71.25H111.598L118.926 94H115.989ZM115.989 85.5781V88.0469H105.02V85.5781H115.989ZM127.652 71.25V94H124.809V71.25H127.652ZM133.637 71.25V73.7188H118.84V71.25H133.637ZM148.019 71.25H150.894V87.2656C150.894 88.974 150.566 90.3438 149.91 91.375C149.254 92.4062 148.389 93.1562 147.316 93.625C146.254 94.0833 145.108 94.3125 143.879 94.3125C142.566 94.3125 141.384 94.0833 140.332 93.625C139.28 93.1562 138.441 92.4062 137.816 91.375C137.202 90.3438 136.894 88.974 136.894 87.2656V71.25H139.754V87.2656C139.754 88.4531 139.92 89.3802 140.254 90.0469C140.597 90.7135 141.077 91.1823 141.691 91.4531C142.316 91.724 143.045 91.8594 143.879 91.8594C144.722 91.8594 145.452 91.724 146.066 91.4531C146.691 91.1823 147.17 90.7135 147.504 90.0469C147.847 89.3802 148.019 88.4531 148.019 87.2656V71.25ZM155.621 71.25H161.98C163.459 71.25 164.699 71.5104 165.699 72.0312C166.709 72.5521 167.47 73.3229 167.98 74.3438C168.501 75.3542 168.761 76.599 168.761 78.0781C168.761 79.1198 168.589 80.0729 168.246 80.9375C167.902 81.7917 167.402 82.5208 166.746 83.125C166.089 83.7188 165.292 84.1615 164.355 84.4531L163.574 84.7812H157.902L157.871 82.3281H161.949C162.824 82.3281 163.553 82.1406 164.136 81.7656C164.72 81.3802 165.157 80.8646 165.449 80.2188C165.74 79.5729 165.886 78.8594 165.886 78.0781C165.886 77.2031 165.756 76.4375 165.496 75.7812C165.235 75.125 164.819 74.6198 164.246 74.2656C163.683 73.901 162.928 73.7188 161.98 73.7188H158.496V94H155.621V71.25ZM166.542 94L162.011 83.6875L164.996 83.6719L169.621 93.8125V94H166.542ZM180.3 73.2656L174.081 94H171.144L178.472 71.25H180.316L180.3 73.2656ZM185.331 94L179.112 73.2656L179.081 71.25H180.941L188.269 94H185.331ZM185.331 85.5781V88.0469H174.362V85.5781H185.331Z" fill="black"/>
</svg>
