<svg width="650" height="134" viewBox="0 0 650 134" fill="none" xmlns="http://www.w3.org/2000/svg">
<rect width="650" height="134" rx="20" fill="#00ACBE"/>
<path d="M9 30C9 18.9543 17.9543 10 29 10H621C632.046 10 641 18.9543 641 30V105C641 116.046 632.046 125 621 125H29C17.9543 125 9 116.046 9 105V30Z" fill="url(#paint0_linear_6_192)"/>
<path d="M48.7188 72.4951L53.0767 72.4453C52.7446 74.7861 52.0391 76.8779 50.96 78.7207C49.8975 80.5635 48.4697 82.0078 46.6768 83.0537C44.9004 84.083 42.7588 84.5645 40.252 84.498C38.21 84.4482 36.5332 83.9502 35.2217 83.0039C33.9268 82.0576 32.9307 80.8291 32.2334 79.3184C31.5527 77.8076 31.1294 76.1724 30.9634 74.4126C30.7974 72.6362 30.8223 70.9014 31.0381 69.208L32.084 62.5093C32.3828 60.6167 32.8809 58.7573 33.5781 56.9312C34.2754 55.0884 35.2051 53.4282 36.3672 51.9507C37.5293 50.4731 38.9321 49.311 40.5757 48.4644C42.2192 47.6011 44.1284 47.1943 46.3032 47.2441C48.6772 47.2939 50.5532 47.8833 51.9312 49.0122C53.3257 50.1411 54.3052 51.6187 54.8696 53.4448C55.4341 55.271 55.6748 57.2549 55.5918 59.3965L51.1094 59.3716C51.1592 58.0601 51.0845 56.79 50.8853 55.5615C50.7026 54.3164 50.2461 53.2871 49.5156 52.4736C48.7852 51.6436 47.623 51.2036 46.0293 51.1538C44.4688 51.104 43.1323 51.4194 42.02 52.1001C40.9077 52.7642 39.9863 53.6606 39.2559 54.7896C38.5254 55.9185 37.9443 57.1553 37.5127 58.5C37.0811 59.8447 36.7656 61.1646 36.5664 62.4595L35.5205 69.2329C35.3711 70.2788 35.2798 71.4409 35.2466 72.7192C35.23 73.9976 35.3628 75.2261 35.645 76.4048C35.9272 77.5835 36.4502 78.563 37.2139 79.3433C37.9775 80.1235 39.0732 80.5469 40.501 80.6133C42.2939 80.6797 43.73 80.356 44.8091 79.6421C45.8882 78.9282 46.7266 77.9487 47.3242 76.7036C47.9219 75.4419 48.3867 74.0391 48.7188 72.4951ZM73.636 80.0903L72.9388 84H58.3211L59.0184 80.0903H73.636ZM65.4432 47.7422L59.1429 84H54.6854L60.9607 47.7422H65.4432ZM86.65 47.7422L80.3497 84H75.8673L82.1676 47.7422H86.65ZM101.432 79.8413L108.181 87.3369L104.844 90.126L98.2694 82.73L101.432 79.8413ZM111.866 62.7334L110.895 68.9839C110.579 70.9263 110.09 72.8354 109.426 74.7114C108.762 76.5708 107.865 78.2559 106.736 79.7666C105.624 81.2607 104.238 82.4395 102.578 83.3027C100.934 84.166 98.9833 84.5645 96.7255 84.498C94.6005 84.4482 92.8656 83.9585 91.5209 83.0288C90.1762 82.0825 89.1552 80.854 88.4579 79.3433C87.7606 77.8325 87.329 76.1807 87.163 74.3877C86.997 72.5781 87.0219 70.7852 87.2377 69.0088L88.2089 62.7334C88.5077 60.8076 88.9975 58.915 89.6781 57.0557C90.3588 55.1963 91.2636 53.5195 92.3925 52.0254C93.538 50.5146 94.9325 49.3276 96.5761 48.4644C98.2196 47.6011 100.154 47.1943 102.378 47.2441C104.52 47.2939 106.263 47.7837 107.608 48.7134C108.969 49.6431 109.998 50.8633 110.696 52.374C111.393 53.8682 111.816 55.52 111.966 57.3296C112.132 59.1226 112.099 60.9238 111.866 62.7334ZM106.487 69.0088L107.458 62.6338C107.608 61.4883 107.691 60.2764 107.707 58.998C107.724 57.7031 107.575 56.4829 107.259 55.3374C106.96 54.1919 106.404 53.2456 105.591 52.4985C104.794 51.7515 103.64 51.353 102.129 51.3032C100.536 51.2368 99.1825 51.5439 98.0702 52.2246C96.9579 52.8887 96.0365 53.7935 95.3061 54.939C94.5756 56.0679 93.9945 57.313 93.5629 58.6743C93.1479 60.019 92.8407 61.3555 92.6415 62.6836L91.7201 69.0337C91.5707 70.146 91.4877 71.3496 91.4711 72.6445C91.4545 73.9229 91.5956 75.1514 91.8944 76.3301C92.2099 77.4922 92.766 78.4551 93.5629 79.2188C94.3598 79.9824 95.497 80.3975 96.9745 80.4639C98.6015 80.5303 99.9794 80.2314 101.108 79.5674C102.237 78.8867 103.159 77.9819 103.872 76.853C104.603 75.7075 105.167 74.4541 105.566 73.0928C105.981 71.7148 106.288 70.3535 106.487 69.0088ZM135.563 47.7422H140.046L135.688 73.2422C135.389 75.5 134.7 77.4922 133.621 79.2188C132.542 80.9287 131.122 82.2568 129.363 83.2031C127.619 84.1494 125.577 84.5977 123.237 84.5479C120.979 84.498 119.128 83.9917 117.683 83.0288C116.239 82.0493 115.21 80.7212 114.595 79.0444C113.981 77.3677 113.79 75.4419 114.023 73.2671L118.356 47.7422H122.813L118.505 73.292C118.339 74.6367 118.372 75.8569 118.605 76.9526C118.837 78.0317 119.335 78.895 120.099 79.5425C120.879 80.1899 122.016 80.5386 123.51 80.5884C125.088 80.6548 126.407 80.3892 127.47 79.7915C128.532 79.1772 129.371 78.314 129.985 77.2017C130.599 76.0728 131.014 74.7695 131.23 73.292L135.563 47.7422ZM157.592 80.0903L156.895 84H141.604L142.302 80.0903H157.592ZM148.727 47.7422L142.426 84H137.969L144.244 47.7422H148.727ZM158.438 63.3311L157.766 67.2407H144.518L145.215 63.3311H158.438ZM162.971 47.7422L162.273 51.6768H147.208L147.905 47.7422H162.971ZM183.047 69.8057L175.053 69.7808L175.751 65.8711L183.196 65.9209C184.674 65.9043 185.936 65.5889 186.982 64.9746C188.044 64.3438 188.891 63.4888 189.522 62.4097C190.152 61.314 190.551 60.0605 190.717 58.6494C190.85 57.5205 190.8 56.4414 190.567 55.4121C190.335 54.3662 189.862 53.5029 189.148 52.8223C188.451 52.1416 187.463 51.7681 186.185 51.7017L179.162 51.6768L173.534 84H169.077L175.352 47.7422L186.284 47.7671C188.359 47.8335 190.086 48.3564 191.464 49.3359C192.858 50.2988 193.871 51.5854 194.502 53.1958C195.133 54.8062 195.357 56.6074 195.174 58.5996C194.975 60.9072 194.353 62.8994 193.307 64.5762C192.277 66.2529 190.891 67.5479 189.148 68.4609C187.405 69.374 185.371 69.8223 183.047 69.8057ZM207.641 51.2036L192.425 84H187.694L205.325 47.7422H208.288L207.641 51.2036ZM209.782 84L205.872 50.6807L206.346 47.7422H209.16L214.19 84H209.782ZM212.073 70.5776L211.376 74.5122H194.392L195.09 70.5776H212.073ZM222.821 47.7422L232.359 47.7671C234.5 47.8335 236.26 48.3232 237.638 49.2363C239.032 50.1328 240.029 51.3696 240.626 52.9468C241.24 54.5073 241.456 56.3335 241.274 58.4253C241.124 60.1353 240.693 61.6709 239.979 63.0322C239.281 64.3936 238.335 65.5557 237.14 66.5186C235.961 67.4814 234.575 68.2451 232.981 68.8096L231.686 69.3076H222.622L223.244 65.3979L229.321 65.4478C230.715 65.4312 231.944 65.124 233.006 64.5264C234.069 63.9121 234.924 63.0737 235.571 62.0112C236.235 60.9487 236.642 59.7451 236.791 58.4004C236.941 57.2217 236.907 56.1343 236.692 55.1382C236.476 54.1421 236.011 53.3369 235.297 52.7227C234.6 52.0918 233.587 51.7515 232.259 51.7017L226.631 51.6768L221.003 84H216.546L222.821 47.7422ZM233.529 84L229.395 67.5645L233.803 67.5396L238.335 83.6763L238.31 84H233.529ZM257.326 51.2036L242.11 84H237.379L255.01 47.7422H257.973L257.326 51.2036ZM259.467 84L255.558 50.6807L256.031 47.7422H258.845L263.875 84H259.467ZM261.758 70.5776L261.061 74.5122H244.078L244.775 70.5776H261.758ZM294.385 71.9224H301.632C301.532 74.645 300.984 76.9443 299.988 78.8203C298.992 80.6797 297.573 82.0908 295.73 83.0537C293.904 84.0166 291.696 84.498 289.106 84.498C287.097 84.498 285.313 84.166 283.752 83.502C282.191 82.8213 280.863 81.8252 279.768 80.5137C278.672 79.2021 277.842 77.5835 277.277 75.6577C276.73 73.7153 276.456 71.4824 276.456 68.959V62.8081C276.456 60.2847 276.746 58.0518 277.327 56.1094C277.925 54.167 278.772 52.54 279.867 51.2285C280.98 49.9004 282.316 48.9043 283.877 48.2402C285.454 47.5596 287.23 47.2192 289.206 47.2192C291.845 47.2192 294.053 47.7173 295.83 48.7134C297.606 49.7095 298.976 51.1621 299.939 53.0713C300.918 54.9639 301.507 57.2798 301.707 60.019H294.435C294.385 58.2925 294.186 56.9395 293.837 55.96C293.505 54.9639 292.974 54.2666 292.244 53.8682C291.513 53.4531 290.501 53.2456 289.206 53.2456C288.243 53.2456 287.413 53.4199 286.715 53.7686C286.018 54.1006 285.445 54.6401 284.997 55.3872C284.549 56.1343 284.217 57.1138 284.001 58.3257C283.802 59.5376 283.702 61.0151 283.702 62.7583V68.959C283.702 70.6689 283.794 72.1299 283.976 73.3418C284.159 74.5371 284.449 75.5166 284.848 76.2803C285.246 77.0439 285.786 77.6001 286.466 77.9487C287.164 78.2974 288.044 78.4717 289.106 78.4717C290.335 78.4717 291.322 78.2891 292.069 77.9238C292.833 77.5586 293.398 76.9028 293.763 75.9565C294.128 75.0103 294.336 73.6655 294.385 71.9224ZM329.114 63.0571V69.1084C329.114 71.665 328.799 73.9062 328.168 75.832C327.554 77.7412 326.674 79.3433 325.528 80.6382C324.399 81.9165 323.03 82.8794 321.419 83.5269C319.826 84.1743 318.058 84.498 316.115 84.498C314.173 84.498 312.396 84.1743 310.786 83.5269C309.192 82.8794 307.814 81.9165 306.652 80.6382C305.507 79.3433 304.619 77.7412 303.988 75.832C303.357 73.9062 303.041 71.665 303.041 69.1084V63.0571C303.041 60.4341 303.349 58.1431 303.963 56.1841C304.577 54.2085 305.465 52.5649 306.627 51.2534C307.789 49.9253 309.167 48.9292 310.761 48.2651C312.355 47.5845 314.123 47.2441 316.065 47.2441C318.008 47.2441 319.776 47.5845 321.37 48.2651C322.963 48.9292 324.341 49.9253 325.503 51.2534C326.665 52.5649 327.554 54.2085 328.168 56.1841C328.799 58.1431 329.114 60.4341 329.114 63.0571ZM321.868 69.1084V63.0073C321.868 61.2808 321.743 59.8115 321.494 58.5996C321.245 57.3711 320.871 56.3667 320.373 55.5864C319.875 54.8062 319.269 54.2334 318.556 53.8682C317.842 53.5029 317.012 53.3203 316.065 53.3203C315.119 53.3203 314.281 53.5029 313.55 53.8682C312.836 54.2334 312.23 54.8062 311.732 55.5864C311.251 56.3667 310.886 57.3711 310.637 58.5996C310.404 59.8115 310.288 61.2808 310.288 63.0073V69.1084C310.288 70.7686 310.413 72.188 310.662 73.3667C310.911 74.5454 311.284 75.5083 311.782 76.2554C312.28 77.0024 312.886 77.5586 313.6 77.9238C314.33 78.2725 315.169 78.4468 316.115 78.4468C317.045 78.4468 317.867 78.2725 318.58 77.9238C319.311 77.5586 319.917 77.0024 320.398 76.2554C320.88 75.5083 321.245 74.5454 321.494 73.3667C321.743 72.188 321.868 70.7686 321.868 69.1084ZM334.458 47.7422H340.858L348.254 72.5449L355.625 47.7422H361.278L350.968 84H345.515L334.458 47.7422ZM331.868 47.7422H337.969L338.916 71.6484V84H331.868V47.7422ZM358.489 47.7422H364.615V84H357.592V71.6484L358.489 47.7422ZM388.81 77.9736V84H373.047V77.9736H388.81ZM375.313 47.7422V84H368.017V47.7422H375.313ZM386.693 62.4346V68.2866H373.047V62.4346H386.693ZM388.76 47.7422V53.7935H373.047V47.7422H388.76ZM407.801 71.9224H415.047C414.948 74.645 414.4 76.9443 413.404 78.8203C412.408 80.6797 410.988 82.0908 409.145 83.0537C407.319 84.0166 405.111 84.498 402.521 84.498C400.513 84.498 398.728 84.166 397.167 83.502C395.607 82.8213 394.279 81.8252 393.183 80.5137C392.087 79.2021 391.257 77.5835 390.693 75.6577C390.145 73.7153 389.871 71.4824 389.871 68.959V62.8081C389.871 60.2847 390.161 58.0518 390.742 56.1094C391.34 54.167 392.187 52.54 393.283 51.2285C394.395 49.9004 395.731 48.9043 397.292 48.2402C398.869 47.5596 400.645 47.2192 402.621 47.2192C405.261 47.2192 407.469 47.7173 409.245 48.7134C411.021 49.7095 412.391 51.1621 413.354 53.0713C414.333 54.9639 414.923 57.2798 415.122 60.019H407.85C407.801 58.2925 407.601 56.9395 407.253 55.96C406.921 54.9639 406.389 54.2666 405.659 53.8682C404.929 53.4531 403.916 53.2456 402.621 53.2456C401.658 53.2456 400.828 53.4199 400.131 53.7686C399.433 54.1006 398.861 54.6401 398.412 55.3872C397.964 56.1343 397.632 57.1138 397.416 58.3257C397.217 59.5376 397.117 61.0151 397.117 62.7583V68.959C397.117 70.6689 397.209 72.1299 397.391 73.3418C397.574 74.5371 397.865 75.5166 398.263 76.2803C398.661 77.0439 399.201 77.6001 399.882 77.9487C400.579 78.2974 401.459 78.4717 402.521 78.4717C403.75 78.4717 404.738 78.2891 405.485 77.9238C406.248 77.5586 406.813 76.9028 407.178 75.9565C407.543 75.0103 407.751 73.6655 407.801 71.9224ZM399.907 83.8755H405.111L404.887 85.3447C405.634 85.5107 406.323 85.9092 406.954 86.54C407.585 87.1709 407.9 88.2085 407.9 89.6528C407.9 90.5327 407.742 91.3296 407.427 92.0435C407.112 92.7739 406.63 93.4048 405.983 93.936C405.352 94.4673 404.563 94.874 403.617 95.1562C402.671 95.4385 401.575 95.5796 400.33 95.5796L400.18 91.4458C400.579 91.4458 400.919 91.3711 401.201 91.2217C401.484 91.0889 401.691 90.873 401.824 90.5742C401.973 90.2754 402.048 89.8853 402.048 89.4038C402.048 88.939 401.949 88.5737 401.749 88.3081C401.567 88.0591 401.268 87.8682 400.853 87.7354C400.454 87.6025 399.915 87.5112 399.234 87.4614L399.907 83.8755ZM430.178 54.2168L422.383 84H414.689L426.019 47.7422H430.825L430.178 54.2168ZM436.329 84L428.484 54.2168L427.762 47.7422H432.643L444.073 84H436.329ZM436.603 70.478V76.5293H420.242V70.478H436.603ZM445.01 47.7422H456.639C459.063 47.7422 461.13 48.1572 462.84 48.9873C464.55 49.8174 465.861 51.0459 466.774 52.6729C467.687 54.2998 468.144 56.3086 468.144 58.6992C468.144 60.6582 467.878 62.335 467.347 63.7295C466.816 65.1074 466.06 66.2612 465.081 67.1909C464.101 68.104 462.931 68.8345 461.57 69.3823L459.353 70.7021H449.915L449.891 64.6509H456.44C457.436 64.6509 458.258 64.4351 458.905 64.0034C459.569 63.5552 460.059 62.9326 460.374 62.1357C460.706 61.3223 460.872 60.376 460.872 59.2969C460.872 58.1514 460.723 57.1719 460.424 56.3584C460.142 55.5283 459.685 54.8975 459.055 54.4658C458.44 54.0176 457.635 53.7935 456.639 53.7935H452.306V84H445.01V47.7422ZM461.47 84L454.821 67.8384L462.466 67.8135L469.265 83.6514V84H461.47ZM478.269 47.7422L477.472 72.8438H471.67L470.823 47.7422H478.269ZM470.724 80.5884C470.724 79.5259 471.072 78.6294 471.77 77.8989C472.467 77.1519 473.388 76.7783 474.534 76.7783C475.713 76.7783 476.642 77.1519 477.323 77.8989C478.02 78.6294 478.369 79.5259 478.369 80.5884C478.369 81.6675 478.02 82.5806 477.323 83.3276C476.642 84.0581 475.713 84.4233 474.534 84.4233C473.388 84.4233 472.467 84.0581 471.77 83.3276C471.072 82.5806 470.724 81.6675 470.724 80.5884Z" fill="white"/>
<path d="M500.245 68.9985V84H499.106V70.5776L495.733 72.085V70.9058L500.05 68.9985H500.245ZM512.145 75.2534V77.7554C512.145 78.8628 512.056 79.8232 511.879 80.6367C511.708 81.4434 511.455 82.1099 511.12 82.6362C510.792 83.1626 510.388 83.5557 509.91 83.8154C509.431 84.0752 508.888 84.2051 508.28 84.2051C507.801 84.2051 507.36 84.123 506.957 83.959C506.554 83.7949 506.191 83.5454 505.87 83.2104C505.555 82.8687 505.285 82.4414 505.06 81.9287C504.841 81.416 504.674 80.8179 504.557 80.1343C504.448 79.4438 504.393 78.6509 504.393 77.7554V75.2534C504.393 74.1597 504.482 73.2095 504.66 72.4028C504.838 71.5962 505.094 70.9297 505.429 70.4033C505.771 69.877 506.178 69.4873 506.649 69.2344C507.128 68.9814 507.668 68.855 508.269 68.855C508.755 68.855 509.199 68.937 509.602 69.1011C510.006 69.2651 510.365 69.5146 510.679 69.8496C510.993 70.1777 511.26 70.5947 511.479 71.1006C511.698 71.6064 511.862 72.208 511.971 72.9053C512.087 73.5957 512.145 74.3784 512.145 75.2534ZM511.007 77.9092V75.0894C511.007 74.4126 510.97 73.8008 510.894 73.2539C510.826 72.7002 510.72 72.2183 510.576 71.8081C510.433 71.3911 510.248 71.0425 510.023 70.7622C509.797 70.4819 509.537 70.2734 509.243 70.1367C508.956 69.9932 508.628 69.9214 508.259 69.9214C507.808 69.9214 507.411 70.0308 507.07 70.2495C506.735 70.4683 506.451 70.7964 506.219 71.2339C505.993 71.6646 505.822 72.2046 505.706 72.854C505.59 73.4966 505.532 74.2451 505.532 75.0996V77.9092C505.532 78.5791 505.569 79.1909 505.644 79.7446C505.72 80.2915 505.829 80.7769 505.972 81.2007C506.123 81.6177 506.307 81.9731 506.526 82.2671C506.752 82.5542 507.008 82.7695 507.295 82.9131C507.589 83.0566 507.917 83.1284 508.28 83.1284C508.738 83.1284 509.137 83.0156 509.479 82.79C509.821 82.5576 510.105 82.2192 510.33 81.7749C510.556 81.3306 510.723 80.7871 510.833 80.1445C510.949 79.4951 511.007 78.75 511.007 77.9092ZM521.308 75.2534V77.7554C521.308 78.8628 521.219 79.8232 521.042 80.6367C520.871 81.4434 520.618 82.1099 520.283 82.6362C519.955 83.1626 519.551 83.5557 519.073 83.8154C518.594 84.0752 518.051 84.2051 517.442 84.2051C516.964 84.2051 516.523 84.123 516.12 83.959C515.716 83.7949 515.354 83.5454 515.033 83.2104C514.718 82.8687 514.448 82.4414 514.223 81.9287C514.004 81.416 513.837 80.8179 513.72 80.1343C513.611 79.4438 513.556 78.6509 513.556 77.7554V75.2534C513.556 74.1597 513.645 73.2095 513.823 72.4028C514.001 71.5962 514.257 70.9297 514.592 70.4033C514.934 69.877 515.34 69.4873 515.812 69.2344C516.291 68.9814 516.831 68.855 517.432 68.855C517.918 68.855 518.362 68.937 518.765 69.1011C519.169 69.2651 519.527 69.5146 519.842 69.8496C520.156 70.1777 520.423 70.5947 520.642 71.1006C520.86 71.6064 521.025 72.208 521.134 72.9053C521.25 73.5957 521.308 74.3784 521.308 75.2534ZM520.17 77.9092V75.0894C520.17 74.4126 520.132 73.8008 520.057 73.2539C519.989 72.7002 519.883 72.2183 519.739 71.8081C519.596 71.3911 519.411 71.0425 519.186 70.7622C518.96 70.4819 518.7 70.2734 518.406 70.1367C518.119 69.9932 517.791 69.9214 517.422 69.9214C516.971 69.9214 516.574 70.0308 516.233 70.2495C515.898 70.4683 515.614 70.7964 515.381 71.2339C515.156 71.6646 514.985 72.2046 514.869 72.854C514.753 73.4966 514.694 74.2451 514.694 75.0996V77.9092C514.694 78.5791 514.732 79.1909 514.807 79.7446C514.882 80.2915 514.992 80.7769 515.135 81.2007C515.286 81.6177 515.47 81.9731 515.689 82.2671C515.915 82.5542 516.171 82.7695 516.458 82.9131C516.752 83.0566 517.08 83.1284 517.442 83.1284C517.9 83.1284 518.3 83.0156 518.642 82.79C518.984 82.5576 519.268 82.2192 519.493 81.7749C519.719 81.3306 519.886 80.7871 519.996 80.1445C520.112 79.4951 520.17 78.75 520.17 77.9092ZM522.627 72.731V71.9414C522.627 71.374 522.726 70.8579 522.924 70.3931C523.129 69.9282 523.416 69.5557 523.786 69.2754C524.155 68.9951 524.592 68.855 525.098 68.855C525.611 68.855 526.052 68.9951 526.421 69.2754C526.79 69.5557 527.074 69.9282 527.272 70.3931C527.477 70.8579 527.579 71.374 527.579 71.9414V72.731C527.579 73.2847 527.477 73.7939 527.272 74.2588C527.074 74.7236 526.79 75.0962 526.421 75.3765C526.058 75.6567 525.624 75.7969 525.119 75.7969C524.613 75.7969 524.172 75.6567 523.796 75.3765C523.427 75.0962 523.14 74.7236 522.934 74.2588C522.729 73.7939 522.627 73.2847 522.627 72.731ZM523.529 71.9414V72.731C523.529 73.0933 523.587 73.4385 523.704 73.7666C523.82 74.0947 523.994 74.3647 524.226 74.5767C524.466 74.7817 524.763 74.8843 525.119 74.8843C525.474 74.8843 525.765 74.7817 525.99 74.5767C526.216 74.3716 526.387 74.105 526.503 73.7769C526.619 73.4419 526.677 73.0933 526.677 72.731V71.9517C526.677 71.5757 526.619 71.2202 526.503 70.8853C526.393 70.5503 526.223 70.2803 525.99 70.0752C525.758 69.8633 525.46 69.7573 525.098 69.7573C524.756 69.7573 524.466 69.8633 524.226 70.0752C523.994 70.2803 523.82 70.5503 523.704 70.8853C523.587 71.2202 523.529 71.5723 523.529 71.9414ZM528.892 81.1392V80.3394C528.892 79.7788 528.991 79.2661 529.189 78.8013C529.394 78.3364 529.682 77.9639 530.051 77.6836C530.427 77.4033 530.868 77.2632 531.373 77.2632C531.886 77.2632 532.327 77.4033 532.696 77.6836C533.065 77.9639 533.349 78.3364 533.547 78.8013C533.752 79.2661 533.855 79.7788 533.855 80.3394V81.1392C533.855 81.6997 533.752 82.2124 533.547 82.6772C533.349 83.1421 533.065 83.5146 532.696 83.7949C532.327 84.0752 531.893 84.2153 531.394 84.2153C530.888 84.2153 530.444 84.0752 530.061 83.7949C529.685 83.5146 529.394 83.1421 529.189 82.6772C528.991 82.2124 528.892 81.6997 528.892 81.1392ZM529.805 80.3394V81.1392C529.805 81.5015 529.859 81.8501 529.969 82.1851C530.085 82.5132 530.259 82.7832 530.492 82.9951C530.731 83.2002 531.032 83.3027 531.394 83.3027C531.749 83.3027 532.04 83.2002 532.266 82.9951C532.498 82.79 532.669 82.5234 532.778 82.1953C532.894 81.8604 532.953 81.5083 532.953 81.1392V80.3394C532.953 79.9497 532.894 79.5908 532.778 79.2627C532.662 78.9346 532.488 78.6714 532.255 78.4731C532.023 78.2681 531.729 78.1655 531.373 78.1655C531.025 78.1655 530.731 78.2681 530.492 78.4731C530.259 78.6714 530.085 78.9346 529.969 79.2627C529.859 79.5908 529.805 79.9497 529.805 80.3394ZM531.579 71.0903L525.457 82.7593L524.77 82.2466L530.892 70.5776L531.579 71.0903ZM542.757 84H539.958L539.968 82.9028H542.757C543.653 82.9028 544.415 82.7148 545.044 82.3389C545.673 81.9629 546.151 81.4126 546.479 80.688C546.814 79.9634 546.982 79.0781 546.982 78.0322V75.0073C546.982 74.2144 546.886 73.5171 546.695 72.9155C546.51 72.3071 546.237 71.8013 545.875 71.3979C545.519 70.9878 545.085 70.6802 544.572 70.4751C544.06 70.27 543.482 70.1675 542.839 70.1675H539.896V69.0703H542.839C543.632 69.0703 544.35 69.2002 544.993 69.46C545.642 69.7197 546.203 70.1025 546.674 70.6084C547.146 71.1143 547.508 71.7397 547.761 72.4849C548.014 73.2231 548.141 74.0708 548.141 75.0278V78.0322C548.141 78.9961 548.014 79.8506 547.761 80.5957C547.508 81.334 547.146 81.9561 546.674 82.4619C546.203 82.9678 545.635 83.3506 544.972 83.6104C544.316 83.8701 543.578 84 542.757 84ZM540.512 69.0703V84H539.333V69.0703H540.512ZM558.083 82.9028V84H551.11V82.9028H558.083ZM551.438 69.0703V84H550.259V69.0703H551.438ZM557.211 75.7456V76.853H551.11V75.7456H557.211ZM558.032 69.0703V70.1675H551.11V69.0703H558.032ZM572.44 76.8838V82.2568C572.297 82.4551 572.051 82.708 571.702 83.0156C571.353 83.3232 570.882 83.6001 570.287 83.8462C569.699 84.0923 568.961 84.2153 568.072 84.2153C567.327 84.2153 566.65 84.0854 566.042 83.8257C565.433 83.5659 564.907 83.1831 564.463 82.6772C564.025 82.1646 563.687 81.5356 563.448 80.7905C563.208 80.0386 563.089 79.1738 563.089 78.1963V74.7612C563.089 73.7905 563.195 72.9395 563.407 72.208C563.625 71.4766 563.94 70.8647 564.35 70.3726C564.76 69.8735 565.263 69.4976 565.857 69.2446C566.459 68.9917 567.139 68.8652 567.898 68.8652C568.834 68.8652 569.627 69.0396 570.277 69.3882C570.926 69.73 571.432 70.229 571.794 70.8853C572.163 71.5415 572.379 72.3379 572.44 73.2744H571.261C571.193 72.584 571.036 71.9927 570.789 71.5005C570.543 71.0083 570.184 70.6289 569.713 70.3623C569.241 70.0957 568.64 69.9624 567.908 69.9624C567.3 69.9624 566.767 70.0649 566.308 70.27C565.857 70.4751 565.481 70.7793 565.181 71.1826C564.88 71.5859 564.654 72.085 564.504 72.6797C564.353 73.2744 564.278 73.9614 564.278 74.7407V78.1963C564.278 79.0029 564.364 79.7104 564.535 80.3188C564.705 80.9272 564.955 81.4399 565.283 81.8569C565.618 82.2739 566.018 82.5884 566.483 82.8003C566.954 83.0122 567.484 83.1182 568.072 83.1182C568.701 83.1182 569.231 83.0396 569.662 82.8823C570.092 82.7183 570.437 82.5371 570.697 82.3389C570.964 82.1406 571.155 81.9834 571.271 81.8672V77.981H567.99V76.8838H572.44ZM574.754 69.0703H578.845C579.727 69.0703 580.486 69.2412 581.121 69.583C581.764 69.918 582.256 70.4136 582.598 71.0698C582.946 71.7192 583.121 72.519 583.121 73.4692C583.121 74.1733 582.998 74.8125 582.752 75.3867C582.506 75.9609 582.164 76.4395 581.726 76.8223C581.296 77.2051 580.79 77.4683 580.209 77.6118L579.819 77.7861H575.553L575.533 76.689H579.04C579.689 76.689 580.229 76.5386 580.66 76.2378C581.091 75.9302 581.412 75.5337 581.624 75.0483C581.842 74.5562 581.952 74.0298 581.952 73.4692C581.952 72.7925 581.832 72.208 581.593 71.7158C581.361 71.2236 581.012 70.8442 580.547 70.5776C580.089 70.3042 579.522 70.1675 578.845 70.1675H575.933V84H574.754V69.0703ZM582.413 84L579.204 77.3145L580.455 77.3042L583.664 83.8667V84H582.413ZM589.484 69.9727L585.178 84H583.968L588.715 69.0703H589.546L589.484 69.9727ZM593.34 84L589.033 69.9727L588.982 69.0703H589.802L594.56 84H593.34ZM592.673 78.7192V79.8267H585.937V78.7192H592.673ZM603.385 79.3345H604.564C604.495 80.4487 604.273 81.3682 603.897 82.0928C603.521 82.8105 602.998 83.3438 602.328 83.6924C601.665 84.041 600.862 84.2153 599.919 84.2153C599.201 84.2153 598.555 84.0752 597.981 83.7949C597.407 83.5146 596.914 83.1079 596.504 82.5747C596.101 82.0415 595.79 81.3989 595.571 80.647C595.359 79.8882 595.253 79.0337 595.253 78.0835V74.8843C595.253 73.9478 595.359 73.1104 595.571 72.3721C595.79 71.627 596.104 70.9946 596.514 70.4751C596.931 69.9487 597.43 69.5488 598.012 69.2754C598.599 69.002 599.266 68.8652 600.011 68.8652C600.913 68.8652 601.689 69.0361 602.339 69.3779C602.995 69.7197 603.511 70.2495 603.887 70.9673C604.27 71.6851 604.495 72.6113 604.564 73.7461H603.385C603.323 72.8301 603.159 72.0952 602.892 71.5415C602.626 70.9878 602.253 70.5879 601.775 70.3418C601.303 70.0889 600.715 69.9624 600.011 69.9624C599.43 69.9624 598.917 70.0752 598.473 70.3008C598.035 70.5195 597.663 70.8408 597.355 71.2646C597.054 71.6816 596.825 72.1943 596.668 72.8027C596.511 73.4043 596.432 74.0913 596.432 74.8638V78.0835C596.432 78.8423 596.508 79.5327 596.658 80.1548C596.808 80.77 597.027 81.2998 597.314 81.7441C597.608 82.1885 597.971 82.5303 598.401 82.7695C598.839 83.002 599.345 83.1182 599.919 83.1182C600.657 83.1182 601.269 83.002 601.754 82.7695C602.24 82.5371 602.616 82.1475 602.882 81.6006C603.149 81.0469 603.316 80.2915 603.385 79.3345ZM599.498 84.1025H600.37L600.267 84.7588C600.623 84.8135 600.944 84.9673 601.231 85.2202C601.525 85.4731 601.672 85.9004 601.672 86.502C601.672 86.8096 601.617 87.0898 601.508 87.3428C601.399 87.6025 601.235 87.8179 601.016 87.9888C600.804 88.1665 600.537 88.3066 600.216 88.4092C599.902 88.5117 599.536 88.563 599.119 88.563L599.068 87.7529C599.355 87.7529 599.625 87.7085 599.878 87.6196C600.131 87.5376 600.336 87.4043 600.493 87.2197C600.657 87.042 600.739 86.8096 600.739 86.5225C600.739 86.2559 600.684 86.0508 600.575 85.9072C600.472 85.7637 600.312 85.6543 600.093 85.5791C599.874 85.5107 599.594 85.4561 599.252 85.415L599.498 84.1025ZM610.661 69.9727L606.354 84H605.144L609.892 69.0703H610.722L610.661 69.9727ZM614.516 84L610.21 69.9727L610.158 69.0703H610.979L615.736 84H614.516ZM613.85 78.7192V79.8267H607.113V78.7192H613.85ZM616.645 83.2412C616.645 83.002 616.72 82.7969 616.871 82.626C617.021 82.4551 617.233 82.3696 617.506 82.3696C617.78 82.3696 617.995 82.4551 618.152 82.626C618.309 82.79 618.388 82.9951 618.388 83.2412C618.388 83.4736 618.309 83.6753 618.152 83.8462C617.995 84.0103 617.78 84.0923 617.506 84.0923C617.233 84.0923 617.021 84.0103 616.871 83.8462C616.72 83.6753 616.645 83.4736 616.645 83.2412ZM620.619 83.2412C620.619 83.002 620.695 82.7969 620.845 82.626C620.995 82.4551 621.207 82.3696 621.481 82.3696C621.754 82.3696 621.969 82.4551 622.127 82.626C622.284 82.79 622.363 82.9951 622.363 83.2412C622.363 83.4736 622.284 83.6753 622.127 83.8462C621.969 84.0103 621.754 84.0923 621.481 84.0923C621.207 84.0923 620.995 84.0103 620.845 83.8462C620.695 83.6753 620.619 83.4736 620.619 83.2412ZM624.594 83.2412C624.594 83.002 624.669 82.7969 624.819 82.626C624.97 82.4551 625.182 82.3696 625.455 82.3696C625.729 82.3696 625.944 82.4551 626.101 82.626C626.258 82.79 626.337 82.9951 626.337 83.2412C626.337 83.4736 626.258 83.6753 626.101 83.8462C625.944 84.0103 625.729 84.0923 625.455 84.0923C625.182 84.0923 624.97 84.0103 624.819 83.8462C624.669 83.6753 624.594 83.4736 624.594 83.2412Z" fill="white"/>
<path d="M503.536 58.3345H504.715C504.647 59.4487 504.425 60.3682 504.049 61.0928C503.673 61.8105 503.15 62.3438 502.48 62.6924C501.817 63.041 501.014 63.2153 500.07 63.2153C499.353 63.2153 498.707 63.0752 498.132 62.7949C497.558 62.5146 497.066 62.1079 496.656 61.5747C496.252 61.0415 495.941 60.3989 495.723 59.647C495.511 58.8882 495.405 58.0337 495.405 57.0835V53.8843C495.405 52.9478 495.511 52.1104 495.723 51.3721C495.941 50.627 496.256 49.9946 496.666 49.4751C497.083 48.9487 497.582 48.5488 498.163 48.2754C498.751 48.002 499.417 47.8652 500.163 47.8652C501.065 47.8652 501.841 48.0361 502.49 48.3779C503.146 48.7197 503.663 49.2495 504.039 49.9673C504.421 50.6851 504.647 51.6113 504.715 52.7461H503.536C503.475 51.8301 503.311 51.0952 503.044 50.5415C502.777 49.9878 502.405 49.5879 501.926 49.3418C501.455 49.0889 500.867 48.9624 500.163 48.9624C499.582 48.9624 499.069 49.0752 498.625 49.3008C498.187 49.5195 497.814 49.8408 497.507 50.2646C497.206 50.6816 496.977 51.1943 496.82 51.8027C496.663 52.4043 496.584 53.0913 496.584 53.8638V57.0835C496.584 57.8423 496.659 58.5327 496.81 59.1548C496.96 59.77 497.179 60.2998 497.466 60.7441C497.76 61.1885 498.122 61.5303 498.553 61.7695C498.99 62.002 499.496 62.1182 500.07 62.1182C500.809 62.1182 501.42 62.002 501.906 61.7695C502.391 61.5371 502.767 61.1475 503.034 60.6006C503.3 60.0469 503.468 59.2915 503.536 58.3345ZM515.847 53.9253V57.1553C515.847 58.1328 515.734 59.001 515.509 59.7598C515.29 60.5117 514.969 61.144 514.545 61.6567C514.128 62.1694 513.622 62.5591 513.027 62.8257C512.439 63.0854 511.773 63.2153 511.028 63.2153C510.296 63.2153 509.633 63.0854 509.038 62.8257C508.444 62.5591 507.934 62.1694 507.511 61.6567C507.087 61.144 506.759 60.5117 506.526 59.7598C506.301 59.001 506.188 58.1328 506.188 57.1553V53.9253C506.188 52.9409 506.301 52.0693 506.526 51.3105C506.752 50.5518 507.073 49.9194 507.49 49.4136C507.914 48.9077 508.423 48.5249 509.018 48.2651C509.613 47.9985 510.276 47.8652 511.007 47.8652C511.759 47.8652 512.432 47.9985 513.027 48.2651C513.622 48.5249 514.128 48.9077 514.545 49.4136C514.969 49.9194 515.29 50.5518 515.509 51.3105C515.734 52.0693 515.847 52.9409 515.847 53.9253ZM514.678 57.1553V53.9048C514.678 53.0913 514.596 52.377 514.432 51.7617C514.275 51.1465 514.042 50.6338 513.735 50.2236C513.427 49.8135 513.044 49.5059 512.586 49.3008C512.128 49.0957 511.602 48.9932 511.007 48.9932C510.433 48.9932 509.917 49.0957 509.459 49.3008C509.008 49.5059 508.625 49.8169 508.31 50.2339C508.003 50.644 507.767 51.1567 507.603 51.772C507.439 52.3804 507.357 53.0913 507.357 53.9048V57.1553C507.357 57.9756 507.439 58.6934 507.603 59.3086C507.774 59.917 508.016 60.4297 508.331 60.8467C508.645 61.2568 509.028 61.5645 509.479 61.7695C509.937 61.9746 510.453 62.0771 511.028 62.0771C511.622 62.0771 512.145 61.9746 512.596 61.7695C513.054 61.5645 513.437 61.2568 513.745 60.8467C514.053 60.4297 514.285 59.917 514.442 59.3086C514.599 58.6934 514.678 57.9756 514.678 57.1553ZM527.327 48.0703V63H526.148L519.124 50.2749V63H517.935V48.0703H519.124L526.158 60.7954V48.0703H527.327ZM536.859 59.3086C536.859 58.9053 536.805 58.5464 536.695 58.2319C536.586 57.9106 536.405 57.6235 536.152 57.3706C535.899 57.1177 535.554 56.8818 535.116 56.6631C534.685 56.4375 534.152 56.2153 533.517 55.9966C532.888 55.7847 532.32 55.5522 531.814 55.2993C531.315 55.0464 530.885 54.7559 530.522 54.4277C530.167 54.0996 529.893 53.7168 529.702 53.2793C529.517 52.8418 529.425 52.3291 529.425 51.7412C529.425 51.1602 529.528 50.6338 529.733 50.1621C529.945 49.6836 530.239 49.2734 530.615 48.9316C530.991 48.5898 531.435 48.3267 531.948 48.1421C532.46 47.9575 533.028 47.8652 533.65 47.8652C534.538 47.8652 535.304 48.0669 535.947 48.4702C536.596 48.8667 537.095 49.4033 537.444 50.0801C537.792 50.75 537.967 51.4985 537.967 52.3257H536.798C536.798 51.6763 536.675 51.0986 536.429 50.5928C536.189 50.0869 535.834 49.6904 535.362 49.4033C534.897 49.1094 534.33 48.9624 533.66 48.9624C532.99 48.9624 532.426 49.0889 531.968 49.3418C531.517 49.5879 531.179 49.9194 530.953 50.3364C530.727 50.7466 530.615 51.2012 530.615 51.7002C530.615 52.0557 530.669 52.3838 530.779 52.6846C530.888 52.9854 531.069 53.2622 531.322 53.5151C531.582 53.7681 531.924 54.0073 532.348 54.2329C532.771 54.4517 533.284 54.6567 533.886 54.8481C534.562 55.0669 535.157 55.3096 535.67 55.5762C536.189 55.8359 536.623 56.1436 536.972 56.499C537.328 56.8477 537.594 57.251 537.772 57.709C537.956 58.167 538.049 58.6934 538.049 59.2881C538.049 59.9033 537.943 60.4536 537.731 60.939C537.519 61.4175 537.218 61.8276 536.829 62.1694C536.439 62.5044 535.981 62.7607 535.454 62.9385C534.928 63.1162 534.347 63.2051 533.711 63.2051C533.158 63.2051 532.6 63.1196 532.04 62.9487C531.486 62.7778 530.98 62.5112 530.522 62.1489C530.071 61.7866 529.709 61.3218 529.435 60.7544C529.162 60.187 529.025 59.5103 529.025 58.7241H530.204C530.204 59.3462 530.307 59.876 530.512 60.3135C530.724 60.7441 530.997 61.0928 531.332 61.3594C531.667 61.6191 532.043 61.8105 532.46 61.9336C532.877 62.0498 533.298 62.1079 533.722 62.1079C534.364 62.1079 534.918 61.9917 535.383 61.7593C535.854 61.5269 536.217 61.2021 536.47 60.7852C536.729 60.3613 536.859 59.8691 536.859 59.3086ZM547.16 48.0703H548.329V58.5908C548.329 59.7119 548.128 60.6108 547.724 61.2876C547.328 61.9575 546.791 62.4463 546.114 62.7539C545.445 63.0615 544.703 63.2153 543.889 63.2153C543.055 63.2153 542.303 63.0649 541.633 62.7642C540.964 62.4565 540.434 61.9644 540.044 61.2876C539.654 60.6108 539.46 59.7119 539.46 58.5908V48.0703H540.629V58.5908C540.629 59.459 540.769 60.1528 541.049 60.6724C541.329 61.1851 541.716 61.5542 542.208 61.7798C542.7 62.0054 543.26 62.1182 543.889 62.1182C544.532 62.1182 545.096 62.0054 545.581 61.7798C546.073 61.5474 546.46 61.1748 546.74 60.6621C547.02 60.1494 547.16 59.459 547.16 58.5908V48.0703ZM557.913 61.9028V63H551.453V61.9028H557.913ZM551.781 48.0703V63H550.591V48.0703H551.781ZM560.759 48.0703V63H559.59V48.0703H560.759ZM565.004 48.0703V49.1675H555.355V48.0703H565.004ZM575.336 53.9253V57.1553C575.336 58.1328 575.223 59.001 574.998 59.7598C574.779 60.5117 574.458 61.144 574.034 61.6567C573.617 62.1694 573.111 62.5591 572.516 62.8257C571.928 63.0854 571.262 63.2153 570.517 63.2153C569.785 63.2153 569.122 63.0854 568.527 62.8257C567.933 62.5591 567.423 62.1694 567 61.6567C566.576 61.144 566.248 60.5117 566.015 59.7598C565.79 59.001 565.677 58.1328 565.677 57.1553V53.9253C565.677 52.9409 565.79 52.0693 566.015 51.3105C566.241 50.5518 566.562 49.9194 566.979 49.4136C567.403 48.9077 567.912 48.5249 568.507 48.2651C569.102 47.9985 569.765 47.8652 570.496 47.8652C571.248 47.8652 571.921 47.9985 572.516 48.2651C573.111 48.5249 573.617 48.9077 574.034 49.4136C574.458 49.9194 574.779 50.5518 574.998 51.3105C575.223 52.0693 575.336 52.9409 575.336 53.9253ZM574.167 57.1553V53.9048C574.167 53.0913 574.085 52.377 573.921 51.7617C573.764 51.1465 573.531 50.6338 573.224 50.2236C572.916 49.8135 572.533 49.5059 572.075 49.3008C571.617 49.0957 571.091 48.9932 570.496 48.9932C569.922 48.9932 569.406 49.0957 568.948 49.3008C568.497 49.5059 568.114 49.8169 567.799 50.2339C567.492 50.644 567.256 51.1567 567.092 51.772C566.928 52.3804 566.846 53.0913 566.846 53.9048V57.1553C566.846 57.9756 566.928 58.6934 567.092 59.3086C567.263 59.917 567.505 60.4297 567.82 60.8467C568.134 61.2568 568.517 61.5645 568.968 61.7695C569.426 61.9746 569.942 62.0771 570.517 62.0771C571.111 62.0771 571.634 61.9746 572.086 61.7695C572.544 61.5645 572.926 61.2568 573.234 60.8467C573.542 60.4297 573.774 59.917 573.931 59.3086C574.088 58.6934 574.167 57.9756 574.167 57.1553ZM577.403 48.0703H581.495C582.376 48.0703 583.135 48.2412 583.771 48.583C584.413 48.918 584.906 49.4136 585.247 50.0698C585.596 50.7192 585.77 51.519 585.77 52.4692C585.77 53.1733 585.647 53.8125 585.401 54.3867C585.155 54.9609 584.813 55.4395 584.376 55.8223C583.945 56.2051 583.439 56.4683 582.858 56.6118L582.469 56.7861H578.203L578.183 55.689H581.689C582.339 55.689 582.879 55.5386 583.309 55.2378C583.74 54.9302 584.061 54.5337 584.273 54.0483C584.492 53.5562 584.601 53.0298 584.601 52.4692C584.601 51.7925 584.482 51.208 584.243 50.7158C584.01 50.2236 583.662 49.8442 583.197 49.5776C582.739 49.3042 582.171 49.1675 581.495 49.1675H578.582V63H577.403V48.0703ZM585.063 63L581.853 56.3145L583.104 56.3042L586.314 62.8667V63H585.063ZM589.314 48.0703V63H588.125V48.0703H589.314ZM596.396 48.9727L592.089 63H590.879L595.626 48.0703H596.457L596.396 48.9727ZM600.251 63L595.944 48.9727L595.893 48.0703H596.713L601.471 63H600.251ZM599.584 57.7192V58.8267H592.848V57.7192H599.584Z" fill="white"/>
<defs>
<linearGradient id="paint0_linear_6_192" x1="9" y1="67.5" x2="641" y2="67.5" gradientUnits="userSpaceOnUse">
<stop stop-color="#4A7BA4"/>
<stop offset="1" stop-color="#1C2F3E"/>
</linearGradient>
</defs>
</svg>
