<svg width="641" height="115" viewBox="0 0 641 115" fill="none" xmlns="http://www.w3.org/2000/svg">
<path d="M0 20C0 8.95431 8.95431 0 20 0H612C623.046 0 632 8.95431 632 20V95C632 106.046 623.046 115 612 115H20C8.95432 115 0 106.046 0 95V20Z" fill="url(#paint0_linear_6_198)"/>
<path d="M39.7188 62.4951L44.0767 62.4453C43.7446 64.7861 43.0391 66.8779 41.96 68.7207C40.8975 70.5635 39.4697 72.0078 37.6768 73.0537C35.9004 74.083 33.7588 74.5645 31.252 74.498C29.21 74.4482 27.5332 73.9502 26.2217 73.0039C24.9268 72.0576 23.9307 70.8291 23.2334 69.3184C22.5527 67.8076 22.1294 66.1724 21.9634 64.4126C21.7974 62.6362 21.8223 60.9014 22.0381 59.208L23.084 52.5093C23.3828 50.6167 23.8809 48.7573 24.5781 46.9312C25.2754 45.0884 26.2051 43.4282 27.3672 41.9507C28.5293 40.4731 29.9321 39.311 31.5757 38.4644C33.2192 37.6011 35.1284 37.1943 37.3032 37.2441C39.6772 37.2939 41.5532 37.8833 42.9312 39.0122C44.3257 40.1411 45.3052 41.6187 45.8696 43.4448C46.4341 45.271 46.6748 47.2549 46.5918 49.3965L42.1094 49.3716C42.1592 48.0601 42.0845 46.79 41.8853 45.5615C41.7026 44.3164 41.2461 43.2871 40.5156 42.4736C39.7852 41.6436 38.623 41.2036 37.0293 41.1538C35.4688 41.104 34.1323 41.4194 33.02 42.1001C31.9077 42.7642 30.9863 43.6606 30.2559 44.7896C29.5254 45.9185 28.9443 47.1553 28.5127 48.5C28.0811 49.8447 27.7656 51.1646 27.5664 52.4595L26.5205 59.2329C26.3711 60.2788 26.2798 61.4409 26.2466 62.7192C26.23 63.9976 26.3628 65.2261 26.645 66.4048C26.9272 67.5835 27.4502 68.563 28.2139 69.3433C28.9775 70.1235 30.0732 70.5469 31.501 70.6133C33.2939 70.6797 34.73 70.356 35.8091 69.6421C36.8882 68.9282 37.7266 67.9487 38.3242 66.7036C38.9219 65.4419 39.3867 64.0391 39.7188 62.4951ZM64.636 70.0903L63.9388 74H49.3211L50.0184 70.0903H64.636ZM56.4432 37.7422L50.1429 74H45.6854L51.9607 37.7422H56.4432ZM77.65 37.7422L71.3497 74H66.8673L73.1676 37.7422H77.65ZM92.432 69.8413L99.1806 77.3369L95.8437 80.126L89.2694 72.73L92.432 69.8413ZM102.866 52.7334L101.895 58.9839C101.579 60.9263 101.09 62.8354 100.426 64.7114C99.7616 66.5708 98.8651 68.2559 97.7362 69.7666C96.6239 71.2607 95.2377 72.4395 93.5775 73.3027C91.934 74.166 89.9833 74.5645 87.7255 74.498C85.6005 74.4482 83.8656 73.9585 82.5209 73.0288C81.1762 72.0825 80.1552 70.854 79.4579 69.3433C78.7606 67.8325 78.329 66.1807 78.163 64.3877C77.997 62.5781 78.0219 60.7852 78.2377 59.0088L79.2089 52.7334C79.5077 50.8076 79.9975 48.915 80.6781 47.0557C81.3588 45.1963 82.2636 43.5195 83.3925 42.0254C84.538 40.5146 85.9325 39.3276 87.5761 38.4644C89.2196 37.6011 91.1537 37.1943 93.3783 37.2441C95.5199 37.2939 97.2631 37.7837 98.6078 38.7134C99.9691 39.6431 100.998 40.8633 101.696 42.374C102.393 43.8682 102.816 45.52 102.966 47.3296C103.132 49.1226 103.099 50.9238 102.866 52.7334ZM97.4872 59.0088L98.4584 52.6338C98.6078 51.4883 98.6908 50.2764 98.7074 48.998C98.724 47.7031 98.5746 46.4829 98.2592 45.3374C97.9604 44.1919 97.4042 43.2456 96.5907 42.4985C95.7938 41.7515 94.64 41.353 93.1293 41.3032C91.5355 41.2368 90.1825 41.5439 89.0702 42.2246C87.9579 42.8887 87.0365 43.7935 86.3061 44.939C85.5756 46.0679 84.9945 47.313 84.5629 48.6743C84.1479 50.019 83.8407 51.3555 83.6415 52.6836L82.7201 59.0337C82.5707 60.146 82.4877 61.3496 82.4711 62.6445C82.4545 63.9229 82.5956 65.1514 82.8944 66.3301C83.2099 67.4922 83.766 68.4551 84.5629 69.2188C85.3598 69.9824 86.497 70.3975 87.9745 70.4639C89.6015 70.5303 90.9794 70.2314 92.1083 69.5674C93.2372 68.8867 94.1586 67.9819 94.8725 66.853C95.6029 65.7075 96.1674 64.4541 96.5658 63.0928C96.9809 61.7148 97.288 60.3535 97.4872 59.0088ZM126.563 37.7422H131.046L126.688 63.2422C126.389 65.5 125.7 67.4922 124.621 69.2188C123.542 70.9287 122.122 72.2568 120.363 73.2031C118.619 74.1494 116.577 74.5977 114.237 74.5479C111.979 74.498 110.128 73.9917 108.683 73.0288C107.239 72.0493 106.21 70.7212 105.595 69.0444C104.981 67.3677 104.79 65.4419 105.023 63.2671L109.356 37.7422H113.813L109.505 63.292C109.339 64.6367 109.372 65.8569 109.605 66.9526C109.837 68.0317 110.335 68.895 111.099 69.5425C111.879 70.1899 113.016 70.5386 114.51 70.5884C116.088 70.6548 117.407 70.3892 118.47 69.7915C119.532 69.1772 120.371 68.314 120.985 67.2017C121.599 66.0728 122.014 64.7695 122.23 63.292L126.563 37.7422ZM148.592 70.0903L147.895 74H132.604L133.302 70.0903H148.592ZM139.727 37.7422L133.426 74H128.969L135.244 37.7422H139.727ZM149.438 53.3311L148.766 57.2407H135.518L136.215 53.3311H149.438ZM153.971 37.7422L153.273 41.6768H138.208L138.905 37.7422H153.971ZM174.047 59.8057L166.053 59.7808L166.751 55.8711L174.196 55.9209C175.674 55.9043 176.936 55.5889 177.982 54.9746C179.044 54.3438 179.891 53.4888 180.522 52.4097C181.152 51.314 181.551 50.0605 181.717 48.6494C181.85 47.5205 181.8 46.4414 181.567 45.4121C181.335 44.3662 180.862 43.5029 180.148 42.8223C179.451 42.1416 178.463 41.7681 177.185 41.7017L170.162 41.6768L164.534 74H160.077L166.352 37.7422L177.284 37.7671C179.359 37.8335 181.086 38.3564 182.464 39.3359C183.858 40.2988 184.871 41.5854 185.502 43.1958C186.133 44.8062 186.357 46.6074 186.174 48.5996C185.975 50.9072 185.353 52.8994 184.307 54.5762C183.277 56.2529 181.891 57.5479 180.148 58.4609C178.405 59.374 176.371 59.8223 174.047 59.8057ZM198.641 41.2036L183.425 74H178.694L196.325 37.7422H199.288L198.641 41.2036ZM200.782 74L196.872 40.6807L197.346 37.7422H200.16L205.19 74H200.782ZM203.073 60.5776L202.376 64.5122H185.392L186.09 60.5776H203.073ZM213.821 37.7422L223.359 37.7671C225.5 37.8335 227.26 38.3232 228.638 39.2363C230.032 40.1328 231.029 41.3696 231.626 42.9468C232.24 44.5073 232.456 46.3335 232.274 48.4253C232.124 50.1353 231.693 51.6709 230.979 53.0322C230.281 54.3936 229.335 55.5557 228.14 56.5186C226.961 57.4814 225.575 58.2451 223.981 58.8096L222.686 59.3076H213.622L214.244 55.3979L220.321 55.4478C221.715 55.4312 222.944 55.124 224.006 54.5264C225.069 53.9121 225.924 53.0737 226.571 52.0112C227.235 50.9487 227.642 49.7451 227.791 48.4004C227.941 47.2217 227.907 46.1343 227.692 45.1382C227.476 44.1421 227.011 43.3369 226.297 42.7227C225.6 42.0918 224.587 41.7515 223.259 41.7017L217.631 41.6768L212.003 74H207.546L213.821 37.7422ZM224.529 74L220.395 57.5645L224.803 57.5396L229.335 73.6763L229.31 74H224.529ZM248.326 41.2036L233.11 74H228.379L246.01 37.7422H248.973L248.326 41.2036ZM250.467 74L246.558 40.6807L247.031 37.7422H249.845L254.875 74H250.467ZM252.758 60.5776L252.061 64.5122H235.078L235.775 60.5776H252.758ZM285.385 61.9224H292.632C292.532 64.645 291.984 66.9443 290.988 68.8203C289.992 70.6797 288.573 72.0908 286.73 73.0537C284.904 74.0166 282.696 74.498 280.106 74.498C278.097 74.498 276.313 74.166 274.752 73.502C273.191 72.8213 271.863 71.8252 270.768 70.5137C269.672 69.2021 268.842 67.5835 268.277 65.6577C267.73 63.7153 267.456 61.4824 267.456 58.959V52.8081C267.456 50.2847 267.746 48.0518 268.327 46.1094C268.925 44.167 269.772 42.54 270.867 41.2285C271.98 39.9004 273.316 38.9043 274.877 38.2402C276.454 37.5596 278.23 37.2192 280.206 37.2192C282.845 37.2192 285.053 37.7173 286.83 38.7134C288.606 39.7095 289.976 41.1621 290.939 43.0713C291.918 44.9639 292.507 47.2798 292.707 50.019H285.435C285.385 48.2925 285.186 46.9395 284.837 45.96C284.505 44.9639 283.974 44.2666 283.244 43.8682C282.513 43.4531 281.501 43.2456 280.206 43.2456C279.243 43.2456 278.413 43.4199 277.715 43.7686C277.018 44.1006 276.445 44.6401 275.997 45.3872C275.549 46.1343 275.217 47.1138 275.001 48.3257C274.802 49.5376 274.702 51.0151 274.702 52.7583V58.959C274.702 60.6689 274.794 62.1299 274.976 63.3418C275.159 64.5371 275.449 65.5166 275.848 66.2803C276.246 67.0439 276.786 67.6001 277.466 67.9487C278.164 68.2974 279.044 68.4717 280.106 68.4717C281.335 68.4717 282.322 68.2891 283.069 67.9238C283.833 67.5586 284.398 66.9028 284.763 65.9565C285.128 65.0103 285.336 63.6655 285.385 61.9224ZM320.114 53.0571V59.1084C320.114 61.665 319.799 63.9062 319.168 65.832C318.554 67.7412 317.674 69.3433 316.528 70.6382C315.399 71.9165 314.03 72.8794 312.419 73.5269C310.826 74.1743 309.058 74.498 307.115 74.498C305.173 74.498 303.396 74.1743 301.786 73.5269C300.192 72.8794 298.814 71.9165 297.652 70.6382C296.507 69.3433 295.619 67.7412 294.988 65.832C294.357 63.9062 294.041 61.665 294.041 59.1084V53.0571C294.041 50.4341 294.349 48.1431 294.963 46.1841C295.577 44.2085 296.465 42.5649 297.627 41.2534C298.789 39.9253 300.167 38.9292 301.761 38.2651C303.355 37.5845 305.123 37.2441 307.065 37.2441C309.008 37.2441 310.776 37.5845 312.37 38.2651C313.963 38.9292 315.341 39.9253 316.503 41.2534C317.665 42.5649 318.554 44.2085 319.168 46.1841C319.799 48.1431 320.114 50.4341 320.114 53.0571ZM312.868 59.1084V53.0073C312.868 51.2808 312.743 49.8115 312.494 48.5996C312.245 47.3711 311.871 46.3667 311.373 45.5864C310.875 44.8062 310.269 44.2334 309.556 43.8682C308.842 43.5029 308.012 43.3203 307.065 43.3203C306.119 43.3203 305.281 43.5029 304.55 43.8682C303.836 44.2334 303.23 44.8062 302.732 45.5864C302.251 46.3667 301.886 47.3711 301.637 48.5996C301.404 49.8115 301.288 51.2808 301.288 53.0073V59.1084C301.288 60.7686 301.413 62.188 301.662 63.3667C301.911 64.5454 302.284 65.5083 302.782 66.2554C303.28 67.0024 303.886 67.5586 304.6 67.9238C305.33 68.2725 306.169 68.4468 307.115 68.4468C308.045 68.4468 308.867 68.2725 309.58 67.9238C310.311 67.5586 310.917 67.0024 311.398 66.2554C311.88 65.5083 312.245 64.5454 312.494 63.3667C312.743 62.188 312.868 60.7686 312.868 59.1084ZM325.458 37.7422H331.858L339.254 62.5449L346.625 37.7422H352.278L341.968 74H336.515L325.458 37.7422ZM322.868 37.7422H328.969L329.916 61.6484V74H322.868V37.7422ZM349.489 37.7422H355.615V74H348.592V61.6484L349.489 37.7422ZM379.81 67.9736V74H364.047V67.9736H379.81ZM366.313 37.7422V74H359.017V37.7422H366.313ZM377.693 52.4346V58.2866H364.047V52.4346H377.693ZM379.76 37.7422V43.7935H364.047V37.7422H379.76ZM398.801 61.9224H406.047C405.948 64.645 405.4 66.9443 404.404 68.8203C403.408 70.6797 401.988 72.0908 400.145 73.0537C398.319 74.0166 396.111 74.498 393.521 74.498C391.513 74.498 389.728 74.166 388.167 73.502C386.607 72.8213 385.279 71.8252 384.183 70.5137C383.087 69.2021 382.257 67.5835 381.693 65.6577C381.145 63.7153 380.871 61.4824 380.871 58.959V52.8081C380.871 50.2847 381.161 48.0518 381.742 46.1094C382.34 44.167 383.187 42.54 384.283 41.2285C385.395 39.9004 386.731 38.9043 388.292 38.2402C389.869 37.5596 391.645 37.2192 393.621 37.2192C396.261 37.2192 398.469 37.7173 400.245 38.7134C402.021 39.7095 403.391 41.1621 404.354 43.0713C405.333 44.9639 405.923 47.2798 406.122 50.019H398.85C398.801 48.2925 398.601 46.9395 398.253 45.96C397.921 44.9639 397.389 44.2666 396.659 43.8682C395.929 43.4531 394.916 43.2456 393.621 43.2456C392.658 43.2456 391.828 43.4199 391.131 43.7686C390.433 44.1006 389.861 44.6401 389.412 45.3872C388.964 46.1343 388.632 47.1138 388.416 48.3257C388.217 49.5376 388.117 51.0151 388.117 52.7583V58.959C388.117 60.6689 388.209 62.1299 388.391 63.3418C388.574 64.5371 388.865 65.5166 389.263 66.2803C389.661 67.0439 390.201 67.6001 390.882 67.9487C391.579 68.2974 392.459 68.4717 393.521 68.4717C394.75 68.4717 395.738 68.2891 396.485 67.9238C397.248 67.5586 397.813 66.9028 398.178 65.9565C398.543 65.0103 398.751 63.6655 398.801 61.9224ZM390.907 73.8755H396.111L395.887 75.3447C396.634 75.5107 397.323 75.9092 397.954 76.54C398.585 77.1709 398.9 78.2085 398.9 79.6528C398.9 80.5327 398.742 81.3296 398.427 82.0435C398.112 82.7739 397.63 83.4048 396.983 83.936C396.352 84.4673 395.563 84.874 394.617 85.1562C393.671 85.4385 392.575 85.5796 391.33 85.5796L391.18 81.4458C391.579 81.4458 391.919 81.3711 392.201 81.2217C392.484 81.0889 392.691 80.873 392.824 80.5742C392.973 80.2754 393.048 79.8853 393.048 79.4038C393.048 78.939 392.949 78.5737 392.749 78.3081C392.567 78.0591 392.268 77.8682 391.853 77.7354C391.454 77.6025 390.915 77.5112 390.234 77.4614L390.907 73.8755ZM421.178 44.2168L413.383 74H405.689L417.019 37.7422H421.825L421.178 44.2168ZM427.329 74L419.484 44.2168L418.762 37.7422H423.643L435.073 74H427.329ZM427.603 60.478V66.5293H411.242V60.478H427.603ZM436.01 37.7422H447.639C450.063 37.7422 452.13 38.1572 453.84 38.9873C455.55 39.8174 456.861 41.0459 457.774 42.6729C458.687 44.2998 459.144 46.3086 459.144 48.6992C459.144 50.6582 458.878 52.335 458.347 53.7295C457.816 55.1074 457.06 56.2612 456.081 57.1909C455.101 58.104 453.931 58.8345 452.57 59.3823L450.353 60.7021H440.915L440.891 54.6509H447.44C448.436 54.6509 449.258 54.4351 449.905 54.0034C450.569 53.5552 451.059 52.9326 451.374 52.1357C451.706 51.3223 451.872 50.376 451.872 49.2969C451.872 48.1514 451.723 47.1719 451.424 46.3584C451.142 45.5283 450.685 44.8975 450.055 44.4658C449.44 44.0176 448.635 43.7935 447.639 43.7935H443.306V74H436.01V37.7422ZM452.47 74L445.821 57.8384L453.466 57.8135L460.265 73.6514V74H452.47ZM469.269 37.7422L468.472 62.8438H462.67L461.823 37.7422H469.269ZM461.724 70.5884C461.724 69.5259 462.072 68.6294 462.77 67.8989C463.467 67.1519 464.388 66.7783 465.534 66.7783C466.713 66.7783 467.642 67.1519 468.323 67.8989C469.02 68.6294 469.369 69.5259 469.369 70.5884C469.369 71.6675 469.02 72.5806 468.323 73.3276C467.642 74.0581 466.713 74.4233 465.534 74.4233C464.388 74.4233 463.467 74.0581 462.77 73.3276C462.072 72.5806 461.724 71.6675 461.724 70.5884Z" fill="white"/>
<path d="M491.245 58.9985V74H490.106V60.5776L486.733 62.085V60.9058L491.05 58.9985H491.245ZM503.145 65.2534V67.7554C503.145 68.8628 503.056 69.8232 502.879 70.6367C502.708 71.4434 502.455 72.1099 502.12 72.6362C501.792 73.1626 501.388 73.5557 500.91 73.8154C500.431 74.0752 499.888 74.2051 499.28 74.2051C498.801 74.2051 498.36 74.123 497.957 73.959C497.554 73.7949 497.191 73.5454 496.87 73.2104C496.555 72.8687 496.285 72.4414 496.06 71.9287C495.841 71.416 495.674 70.8179 495.557 70.1343C495.448 69.4438 495.393 68.6509 495.393 67.7554V65.2534C495.393 64.1597 495.482 63.2095 495.66 62.4028C495.838 61.5962 496.094 60.9297 496.429 60.4033C496.771 59.877 497.178 59.4873 497.649 59.2344C498.128 58.9814 498.668 58.855 499.269 58.855C499.755 58.855 500.199 58.937 500.602 59.1011C501.006 59.2651 501.365 59.5146 501.679 59.8496C501.993 60.1777 502.26 60.5947 502.479 61.1006C502.698 61.6064 502.862 62.208 502.971 62.9053C503.087 63.5957 503.145 64.3784 503.145 65.2534ZM502.007 67.9092V65.0894C502.007 64.4126 501.97 63.8008 501.894 63.2539C501.826 62.7002 501.72 62.2183 501.576 61.8081C501.433 61.3911 501.248 61.0425 501.023 60.7622C500.797 60.4819 500.537 60.2734 500.243 60.1367C499.956 59.9932 499.628 59.9214 499.259 59.9214C498.808 59.9214 498.411 60.0308 498.07 60.2495C497.735 60.4683 497.451 60.7964 497.219 61.2339C496.993 61.6646 496.822 62.2046 496.706 62.854C496.59 63.4966 496.532 64.2451 496.532 65.0996V67.9092C496.532 68.5791 496.569 69.1909 496.644 69.7446C496.72 70.2915 496.829 70.7769 496.972 71.2007C497.123 71.6177 497.307 71.9731 497.526 72.2671C497.752 72.5542 498.008 72.7695 498.295 72.9131C498.589 73.0566 498.917 73.1284 499.28 73.1284C499.738 73.1284 500.137 73.0156 500.479 72.79C500.821 72.5576 501.105 72.2192 501.33 71.7749C501.556 71.3306 501.723 70.7871 501.833 70.1445C501.949 69.4951 502.007 68.75 502.007 67.9092ZM512.308 65.2534V67.7554C512.308 68.8628 512.219 69.8232 512.042 70.6367C511.871 71.4434 511.618 72.1099 511.283 72.6362C510.955 73.1626 510.551 73.5557 510.073 73.8154C509.594 74.0752 509.051 74.2051 508.442 74.2051C507.964 74.2051 507.523 74.123 507.12 73.959C506.716 73.7949 506.354 73.5454 506.033 73.2104C505.718 72.8687 505.448 72.4414 505.223 71.9287C505.004 71.416 504.837 70.8179 504.72 70.1343C504.611 69.4438 504.556 68.6509 504.556 67.7554V65.2534C504.556 64.1597 504.645 63.2095 504.823 62.4028C505.001 61.5962 505.257 60.9297 505.592 60.4033C505.934 59.877 506.34 59.4873 506.812 59.2344C507.291 58.9814 507.831 58.855 508.432 58.855C508.918 58.855 509.362 58.937 509.765 59.1011C510.169 59.2651 510.527 59.5146 510.842 59.8496C511.156 60.1777 511.423 60.5947 511.642 61.1006C511.86 61.6064 512.025 62.208 512.134 62.9053C512.25 63.5957 512.308 64.3784 512.308 65.2534ZM511.17 67.9092V65.0894C511.17 64.4126 511.132 63.8008 511.057 63.2539C510.989 62.7002 510.883 62.2183 510.739 61.8081C510.596 61.3911 510.411 61.0425 510.186 60.7622C509.96 60.4819 509.7 60.2734 509.406 60.1367C509.119 59.9932 508.791 59.9214 508.422 59.9214C507.971 59.9214 507.574 60.0308 507.233 60.2495C506.898 60.4683 506.614 60.7964 506.381 61.2339C506.156 61.6646 505.985 62.2046 505.869 62.854C505.753 63.4966 505.694 64.2451 505.694 65.0996V67.9092C505.694 68.5791 505.732 69.1909 505.807 69.7446C505.882 70.2915 505.992 70.7769 506.135 71.2007C506.286 71.6177 506.47 71.9731 506.689 72.2671C506.915 72.5542 507.171 72.7695 507.458 72.9131C507.752 73.0566 508.08 73.1284 508.442 73.1284C508.9 73.1284 509.3 73.0156 509.642 72.79C509.984 72.5576 510.268 72.2192 510.493 71.7749C510.719 71.3306 510.886 70.7871 510.996 70.1445C511.112 69.4951 511.17 68.75 511.17 67.9092ZM513.627 62.731V61.9414C513.627 61.374 513.726 60.8579 513.924 60.3931C514.129 59.9282 514.416 59.5557 514.786 59.2754C515.155 58.9951 515.592 58.855 516.098 58.855C516.611 58.855 517.052 58.9951 517.421 59.2754C517.79 59.5557 518.074 59.9282 518.272 60.3931C518.477 60.8579 518.579 61.374 518.579 61.9414V62.731C518.579 63.2847 518.477 63.7939 518.272 64.2588C518.074 64.7236 517.79 65.0962 517.421 65.3765C517.058 65.6567 516.624 65.7969 516.119 65.7969C515.613 65.7969 515.172 65.6567 514.796 65.3765C514.427 65.0962 514.14 64.7236 513.934 64.2588C513.729 63.7939 513.627 63.2847 513.627 62.731ZM514.529 61.9414V62.731C514.529 63.0933 514.587 63.4385 514.704 63.7666C514.82 64.0947 514.994 64.3647 515.226 64.5767C515.466 64.7817 515.763 64.8843 516.119 64.8843C516.474 64.8843 516.765 64.7817 516.99 64.5767C517.216 64.3716 517.387 64.105 517.503 63.7769C517.619 63.4419 517.677 63.0933 517.677 62.731V61.9517C517.677 61.5757 517.619 61.2202 517.503 60.8853C517.393 60.5503 517.223 60.2803 516.99 60.0752C516.758 59.8633 516.46 59.7573 516.098 59.7573C515.756 59.7573 515.466 59.8633 515.226 60.0752C514.994 60.2803 514.82 60.5503 514.704 60.8853C514.587 61.2202 514.529 61.5723 514.529 61.9414ZM519.892 71.1392V70.3394C519.892 69.7788 519.991 69.2661 520.189 68.8013C520.394 68.3364 520.682 67.9639 521.051 67.6836C521.427 67.4033 521.868 67.2632 522.373 67.2632C522.886 67.2632 523.327 67.4033 523.696 67.6836C524.065 67.9639 524.349 68.3364 524.547 68.8013C524.752 69.2661 524.855 69.7788 524.855 70.3394V71.1392C524.855 71.6997 524.752 72.2124 524.547 72.6772C524.349 73.1421 524.065 73.5146 523.696 73.7949C523.327 74.0752 522.893 74.2153 522.394 74.2153C521.888 74.2153 521.444 74.0752 521.061 73.7949C520.685 73.5146 520.394 73.1421 520.189 72.6772C519.991 72.2124 519.892 71.6997 519.892 71.1392ZM520.805 70.3394V71.1392C520.805 71.5015 520.859 71.8501 520.969 72.1851C521.085 72.5132 521.259 72.7832 521.492 72.9951C521.731 73.2002 522.032 73.3027 522.394 73.3027C522.749 73.3027 523.04 73.2002 523.266 72.9951C523.498 72.79 523.669 72.5234 523.778 72.1953C523.894 71.8604 523.953 71.5083 523.953 71.1392V70.3394C523.953 69.9497 523.894 69.5908 523.778 69.2627C523.662 68.9346 523.488 68.6714 523.255 68.4731C523.023 68.2681 522.729 68.1655 522.373 68.1655C522.025 68.1655 521.731 68.2681 521.492 68.4731C521.259 68.6714 521.085 68.9346 520.969 69.2627C520.859 69.5908 520.805 69.9497 520.805 70.3394ZM522.579 61.0903L516.457 72.7593L515.77 72.2466L521.892 60.5776L522.579 61.0903ZM533.757 74H530.958L530.968 72.9028H533.757C534.653 72.9028 535.415 72.7148 536.044 72.3389C536.673 71.9629 537.151 71.4126 537.479 70.688C537.814 69.9634 537.982 69.0781 537.982 68.0322V65.0073C537.982 64.2144 537.886 63.5171 537.695 62.9155C537.51 62.3071 537.237 61.8013 536.875 61.3979C536.519 60.9878 536.085 60.6802 535.572 60.4751C535.06 60.27 534.482 60.1675 533.839 60.1675H530.896V59.0703H533.839C534.632 59.0703 535.35 59.2002 535.993 59.46C536.642 59.7197 537.203 60.1025 537.674 60.6084C538.146 61.1143 538.508 61.7397 538.761 62.4849C539.014 63.2231 539.141 64.0708 539.141 65.0278V68.0322C539.141 68.9961 539.014 69.8506 538.761 70.5957C538.508 71.334 538.146 71.9561 537.674 72.4619C537.203 72.9678 536.635 73.3506 535.972 73.6104C535.316 73.8701 534.578 74 533.757 74ZM531.512 59.0703V74H530.333V59.0703H531.512ZM549.083 72.9028V74H542.11V72.9028H549.083ZM542.438 59.0703V74H541.259V59.0703H542.438ZM548.211 65.7456V66.853H542.11V65.7456H548.211ZM549.032 59.0703V60.1675H542.11V59.0703H549.032ZM563.44 66.8838V72.2568C563.297 72.4551 563.051 72.708 562.702 73.0156C562.353 73.3232 561.882 73.6001 561.287 73.8462C560.699 74.0923 559.961 74.2153 559.072 74.2153C558.327 74.2153 557.65 74.0854 557.042 73.8257C556.433 73.5659 555.907 73.1831 555.463 72.6772C555.025 72.1646 554.687 71.5356 554.448 70.7905C554.208 70.0386 554.089 69.1738 554.089 68.1963V64.7612C554.089 63.7905 554.195 62.9395 554.407 62.208C554.625 61.4766 554.94 60.8647 555.35 60.3726C555.76 59.8735 556.263 59.4976 556.857 59.2446C557.459 58.9917 558.139 58.8652 558.898 58.8652C559.834 58.8652 560.627 59.0396 561.277 59.3882C561.926 59.73 562.432 60.229 562.794 60.8853C563.163 61.5415 563.379 62.3379 563.44 63.2744H562.261C562.193 62.584 562.036 61.9927 561.789 61.5005C561.543 61.0083 561.184 60.6289 560.713 60.3623C560.241 60.0957 559.64 59.9624 558.908 59.9624C558.3 59.9624 557.767 60.0649 557.308 60.27C556.857 60.4751 556.481 60.7793 556.181 61.1826C555.88 61.5859 555.654 62.085 555.504 62.6797C555.353 63.2744 555.278 63.9614 555.278 64.7407V68.1963C555.278 69.0029 555.364 69.7104 555.535 70.3188C555.705 70.9272 555.955 71.4399 556.283 71.8569C556.618 72.2739 557.018 72.5884 557.483 72.8003C557.954 73.0122 558.484 73.1182 559.072 73.1182C559.701 73.1182 560.231 73.0396 560.662 72.8823C561.092 72.7183 561.437 72.5371 561.697 72.3389C561.964 72.1406 562.155 71.9834 562.271 71.8672V67.981H558.99V66.8838H563.44ZM565.754 59.0703H569.845C570.727 59.0703 571.486 59.2412 572.121 59.583C572.764 59.918 573.256 60.4136 573.598 61.0698C573.946 61.7192 574.121 62.519 574.121 63.4692C574.121 64.1733 573.998 64.8125 573.752 65.3867C573.506 65.9609 573.164 66.4395 572.726 66.8223C572.296 67.2051 571.79 67.4683 571.209 67.6118L570.819 67.7861H566.553L566.533 66.689H570.04C570.689 66.689 571.229 66.5386 571.66 66.2378C572.091 65.9302 572.412 65.5337 572.624 65.0483C572.842 64.5562 572.952 64.0298 572.952 63.4692C572.952 62.7925 572.832 62.208 572.593 61.7158C572.361 61.2236 572.012 60.8442 571.547 60.5776C571.089 60.3042 570.522 60.1675 569.845 60.1675H566.933V74H565.754V59.0703ZM573.413 74L570.204 67.3145L571.455 67.3042L574.664 73.8667V74H573.413ZM580.484 59.9727L576.178 74H574.968L579.715 59.0703H580.546L580.484 59.9727ZM584.34 74L580.033 59.9727L579.982 59.0703H580.802L585.56 74H584.34ZM583.673 68.7192V69.8267H576.937V68.7192H583.673ZM594.385 69.3345H595.564C595.495 70.4487 595.273 71.3682 594.897 72.0928C594.521 72.8105 593.998 73.3438 593.328 73.6924C592.665 74.041 591.862 74.2153 590.919 74.2153C590.201 74.2153 589.555 74.0752 588.981 73.7949C588.407 73.5146 587.914 73.1079 587.504 72.5747C587.101 72.0415 586.79 71.3989 586.571 70.647C586.359 69.8882 586.253 69.0337 586.253 68.0835V64.8843C586.253 63.9478 586.359 63.1104 586.571 62.3721C586.79 61.627 587.104 60.9946 587.514 60.4751C587.931 59.9487 588.43 59.5488 589.012 59.2754C589.599 59.002 590.266 58.8652 591.011 58.8652C591.913 58.8652 592.689 59.0361 593.339 59.3779C593.995 59.7197 594.511 60.2495 594.887 60.9673C595.27 61.6851 595.495 62.6113 595.564 63.7461H594.385C594.323 62.8301 594.159 62.0952 593.892 61.5415C593.626 60.9878 593.253 60.5879 592.775 60.3418C592.303 60.0889 591.715 59.9624 591.011 59.9624C590.43 59.9624 589.917 60.0752 589.473 60.3008C589.035 60.5195 588.663 60.8408 588.355 61.2646C588.054 61.6816 587.825 62.1943 587.668 62.8027C587.511 63.4043 587.432 64.0913 587.432 64.8638V68.0835C587.432 68.8423 587.508 69.5327 587.658 70.1548C587.808 70.77 588.027 71.2998 588.314 71.7441C588.608 72.1885 588.971 72.5303 589.401 72.7695C589.839 73.002 590.345 73.1182 590.919 73.1182C591.657 73.1182 592.269 73.002 592.754 72.7695C593.24 72.5371 593.616 72.1475 593.882 71.6006C594.149 71.0469 594.316 70.2915 594.385 69.3345ZM590.498 74.1025H591.37L591.267 74.7588C591.623 74.8135 591.944 74.9673 592.231 75.2202C592.525 75.4731 592.672 75.9004 592.672 76.502C592.672 76.8096 592.617 77.0898 592.508 77.3428C592.399 77.6025 592.235 77.8179 592.016 77.9888C591.804 78.1665 591.537 78.3066 591.216 78.4092C590.902 78.5117 590.536 78.563 590.119 78.563L590.068 77.7529C590.355 77.7529 590.625 77.7085 590.878 77.6196C591.131 77.5376 591.336 77.4043 591.493 77.2197C591.657 77.042 591.739 76.8096 591.739 76.5225C591.739 76.2559 591.684 76.0508 591.575 75.9072C591.472 75.7637 591.312 75.6543 591.093 75.5791C590.874 75.5107 590.594 75.4561 590.252 75.415L590.498 74.1025ZM601.661 59.9727L597.354 74H596.144L600.892 59.0703H601.722L601.661 59.9727ZM605.516 74L601.21 59.9727L601.158 59.0703H601.979L606.736 74H605.516ZM604.85 68.7192V69.8267H598.113V68.7192H604.85ZM607.645 73.2412C607.645 73.002 607.72 72.7969 607.871 72.626C608.021 72.4551 608.233 72.3696 608.506 72.3696C608.78 72.3696 608.995 72.4551 609.152 72.626C609.309 72.79 609.388 72.9951 609.388 73.2412C609.388 73.4736 609.309 73.6753 609.152 73.8462C608.995 74.0103 608.78 74.0923 608.506 74.0923C608.233 74.0923 608.021 74.0103 607.871 73.8462C607.72 73.6753 607.645 73.4736 607.645 73.2412ZM611.619 73.2412C611.619 73.002 611.695 72.7969 611.845 72.626C611.995 72.4551 612.207 72.3696 612.481 72.3696C612.754 72.3696 612.969 72.4551 613.127 72.626C613.284 72.79 613.363 72.9951 613.363 73.2412C613.363 73.4736 613.284 73.6753 613.127 73.8462C612.969 74.0103 612.754 74.0923 612.481 74.0923C612.207 74.0923 611.995 74.0103 611.845 73.8462C611.695 73.6753 611.619 73.4736 611.619 73.2412ZM615.594 73.2412C615.594 73.002 615.669 72.7969 615.819 72.626C615.97 72.4551 616.182 72.3696 616.455 72.3696C616.729 72.3696 616.944 72.4551 617.101 72.626C617.258 72.79 617.337 72.9951 617.337 73.2412C617.337 73.4736 617.258 73.6753 617.101 73.8462C616.944 74.0103 616.729 74.0923 616.455 74.0923C616.182 74.0923 615.97 74.0103 615.819 73.8462C615.669 73.6753 615.594 73.4736 615.594 73.2412Z" fill="white"/>
<path d="M494.536 48.3345H495.715C495.647 49.4487 495.425 50.3682 495.049 51.0928C494.673 51.8105 494.15 52.3438 493.48 52.6924C492.817 53.041 492.014 53.2153 491.07 53.2153C490.353 53.2153 489.707 53.0752 489.132 52.7949C488.558 52.5146 488.066 52.1079 487.656 51.5747C487.252 51.0415 486.941 50.3989 486.723 49.647C486.511 48.8882 486.405 48.0337 486.405 47.0835V43.8843C486.405 42.9478 486.511 42.1104 486.723 41.3721C486.941 40.627 487.256 39.9946 487.666 39.4751C488.083 38.9487 488.582 38.5488 489.163 38.2754C489.751 38.002 490.417 37.8652 491.163 37.8652C492.065 37.8652 492.841 38.0361 493.49 38.3779C494.146 38.7197 494.663 39.2495 495.039 39.9673C495.421 40.6851 495.647 41.6113 495.715 42.7461H494.536C494.475 41.8301 494.311 41.0952 494.044 40.5415C493.777 39.9878 493.405 39.5879 492.926 39.3418C492.455 39.0889 491.867 38.9624 491.163 38.9624C490.582 38.9624 490.069 39.0752 489.625 39.3008C489.187 39.5195 488.814 39.8408 488.507 40.2646C488.206 40.6816 487.977 41.1943 487.82 41.8027C487.663 42.4043 487.584 43.0913 487.584 43.8638V47.0835C487.584 47.8423 487.659 48.5327 487.81 49.1548C487.96 49.77 488.179 50.2998 488.466 50.7441C488.76 51.1885 489.122 51.5303 489.553 51.7695C489.99 52.002 490.496 52.1182 491.07 52.1182C491.809 52.1182 492.42 52.002 492.906 51.7695C493.391 51.5371 493.767 51.1475 494.034 50.6006C494.3 50.0469 494.468 49.2915 494.536 48.3345ZM506.847 43.9253V47.1553C506.847 48.1328 506.734 49.001 506.509 49.7598C506.29 50.5117 505.969 51.144 505.545 51.6567C505.128 52.1694 504.622 52.5591 504.027 52.8257C503.439 53.0854 502.773 53.2153 502.028 53.2153C501.296 53.2153 500.633 53.0854 500.038 52.8257C499.444 52.5591 498.934 52.1694 498.511 51.6567C498.087 51.144 497.759 50.5117 497.526 49.7598C497.301 49.001 497.188 48.1328 497.188 47.1553V43.9253C497.188 42.9409 497.301 42.0693 497.526 41.3105C497.752 40.5518 498.073 39.9194 498.49 39.4136C498.914 38.9077 499.423 38.5249 500.018 38.2651C500.613 37.9985 501.276 37.8652 502.007 37.8652C502.759 37.8652 503.432 37.9985 504.027 38.2651C504.622 38.5249 505.128 38.9077 505.545 39.4136C505.969 39.9194 506.29 40.5518 506.509 41.3105C506.734 42.0693 506.847 42.9409 506.847 43.9253ZM505.678 47.1553V43.9048C505.678 43.0913 505.596 42.377 505.432 41.7617C505.275 41.1465 505.042 40.6338 504.735 40.2236C504.427 39.8135 504.044 39.5059 503.586 39.3008C503.128 39.0957 502.602 38.9932 502.007 38.9932C501.433 38.9932 500.917 39.0957 500.459 39.3008C500.008 39.5059 499.625 39.8169 499.31 40.2339C499.003 40.644 498.767 41.1567 498.603 41.772C498.439 42.3804 498.357 43.0913 498.357 43.9048V47.1553C498.357 47.9756 498.439 48.6934 498.603 49.3086C498.774 49.917 499.016 50.4297 499.331 50.8467C499.645 51.2568 500.028 51.5645 500.479 51.7695C500.937 51.9746 501.453 52.0771 502.028 52.0771C502.622 52.0771 503.145 51.9746 503.596 51.7695C504.054 51.5645 504.437 51.2568 504.745 50.8467C505.053 50.4297 505.285 49.917 505.442 49.3086C505.599 48.6934 505.678 47.9756 505.678 47.1553ZM518.327 38.0703V53H517.148L510.124 40.2749V53H508.935V38.0703H510.124L517.158 50.7954V38.0703H518.327ZM527.859 49.3086C527.859 48.9053 527.805 48.5464 527.695 48.2319C527.586 47.9106 527.405 47.6235 527.152 47.3706C526.899 47.1177 526.554 46.8818 526.116 46.6631C525.685 46.4375 525.152 46.2153 524.517 45.9966C523.888 45.7847 523.32 45.5522 522.814 45.2993C522.315 45.0464 521.885 44.7559 521.522 44.4277C521.167 44.0996 520.893 43.7168 520.702 43.2793C520.517 42.8418 520.425 42.3291 520.425 41.7412C520.425 41.1602 520.528 40.6338 520.733 40.1621C520.945 39.6836 521.239 39.2734 521.615 38.9316C521.991 38.5898 522.435 38.3267 522.948 38.1421C523.46 37.9575 524.028 37.8652 524.65 37.8652C525.538 37.8652 526.304 38.0669 526.947 38.4702C527.596 38.8667 528.095 39.4033 528.444 40.0801C528.792 40.75 528.967 41.4985 528.967 42.3257H527.798C527.798 41.6763 527.675 41.0986 527.429 40.5928C527.189 40.0869 526.834 39.6904 526.362 39.4033C525.897 39.1094 525.33 38.9624 524.66 38.9624C523.99 38.9624 523.426 39.0889 522.968 39.3418C522.517 39.5879 522.179 39.9194 521.953 40.3364C521.727 40.7466 521.615 41.2012 521.615 41.7002C521.615 42.0557 521.669 42.3838 521.779 42.6846C521.888 42.9854 522.069 43.2622 522.322 43.5151C522.582 43.7681 522.924 44.0073 523.348 44.2329C523.771 44.4517 524.284 44.6567 524.886 44.8481C525.562 45.0669 526.157 45.3096 526.67 45.5762C527.189 45.8359 527.623 46.1436 527.972 46.499C528.328 46.8477 528.594 47.251 528.772 47.709C528.956 48.167 529.049 48.6934 529.049 49.2881C529.049 49.9033 528.943 50.4536 528.731 50.939C528.519 51.4175 528.218 51.8276 527.829 52.1694C527.439 52.5044 526.981 52.7607 526.454 52.9385C525.928 53.1162 525.347 53.2051 524.711 53.2051C524.158 53.2051 523.6 53.1196 523.04 52.9487C522.486 52.7778 521.98 52.5112 521.522 52.1489C521.071 51.7866 520.709 51.3218 520.435 50.7544C520.162 50.187 520.025 49.5103 520.025 48.7241H521.204C521.204 49.3462 521.307 49.876 521.512 50.3135C521.724 50.7441 521.997 51.0928 522.332 51.3594C522.667 51.6191 523.043 51.8105 523.46 51.9336C523.877 52.0498 524.298 52.1079 524.722 52.1079C525.364 52.1079 525.918 51.9917 526.383 51.7593C526.854 51.5269 527.217 51.2021 527.47 50.7852C527.729 50.3613 527.859 49.8691 527.859 49.3086ZM538.16 38.0703H539.329V48.5908C539.329 49.7119 539.128 50.6108 538.724 51.2876C538.328 51.9575 537.791 52.4463 537.114 52.7539C536.445 53.0615 535.703 53.2153 534.889 53.2153C534.055 53.2153 533.303 53.0649 532.633 52.7642C531.964 52.4565 531.434 51.9644 531.044 51.2876C530.654 50.6108 530.46 49.7119 530.46 48.5908V38.0703H531.629V48.5908C531.629 49.459 531.769 50.1528 532.049 50.6724C532.329 51.1851 532.716 51.5542 533.208 51.7798C533.7 52.0054 534.26 52.1182 534.889 52.1182C535.532 52.1182 536.096 52.0054 536.581 51.7798C537.073 51.5474 537.46 51.1748 537.74 50.6621C538.02 50.1494 538.16 49.459 538.16 48.5908V38.0703ZM548.913 51.9028V53H542.453V51.9028H548.913ZM542.781 38.0703V53H541.591V38.0703H542.781ZM551.759 38.0703V53H550.59V38.0703H551.759ZM556.004 38.0703V39.1675H546.355V38.0703H556.004ZM566.336 43.9253V47.1553C566.336 48.1328 566.223 49.001 565.998 49.7598C565.779 50.5117 565.458 51.144 565.034 51.6567C564.617 52.1694 564.111 52.5591 563.516 52.8257C562.928 53.0854 562.262 53.2153 561.517 53.2153C560.785 53.2153 560.122 53.0854 559.527 52.8257C558.933 52.5591 558.423 52.1694 558 51.6567C557.576 51.144 557.248 50.5117 557.015 49.7598C556.79 49.001 556.677 48.1328 556.677 47.1553V43.9253C556.677 42.9409 556.79 42.0693 557.015 41.3105C557.241 40.5518 557.562 39.9194 557.979 39.4136C558.403 38.9077 558.912 38.5249 559.507 38.2651C560.102 37.9985 560.765 37.8652 561.496 37.8652C562.248 37.8652 562.921 37.9985 563.516 38.2651C564.111 38.5249 564.617 38.9077 565.034 39.4136C565.458 39.9194 565.779 40.5518 565.998 41.3105C566.223 42.0693 566.336 42.9409 566.336 43.9253ZM565.167 47.1553V43.9048C565.167 43.0913 565.085 42.377 564.921 41.7617C564.764 41.1465 564.531 40.6338 564.224 40.2236C563.916 39.8135 563.533 39.5059 563.075 39.3008C562.617 39.0957 562.091 38.9932 561.496 38.9932C560.922 38.9932 560.406 39.0957 559.948 39.3008C559.497 39.5059 559.114 39.8169 558.799 40.2339C558.492 40.644 558.256 41.1567 558.092 41.772C557.928 42.3804 557.846 43.0913 557.846 43.9048V47.1553C557.846 47.9756 557.928 48.6934 558.092 49.3086C558.263 49.917 558.505 50.4297 558.82 50.8467C559.134 51.2568 559.517 51.5645 559.968 51.7695C560.426 51.9746 560.942 52.0771 561.517 52.0771C562.111 52.0771 562.634 51.9746 563.086 51.7695C563.544 51.5645 563.926 51.2568 564.234 50.8467C564.542 50.4297 564.774 49.917 564.931 49.3086C565.088 48.6934 565.167 47.9756 565.167 47.1553ZM568.403 38.0703H572.495C573.376 38.0703 574.135 38.2412 574.771 38.583C575.413 38.918 575.906 39.4136 576.247 40.0698C576.596 40.7192 576.77 41.519 576.77 42.4692C576.77 43.1733 576.647 43.8125 576.401 44.3867C576.155 44.9609 575.813 45.4395 575.376 45.8223C574.945 46.2051 574.439 46.4683 573.858 46.6118L573.469 46.7861H569.203L569.183 45.689H572.689C573.339 45.689 573.879 45.5386 574.309 45.2378C574.74 44.9302 575.061 44.5337 575.273 44.0483C575.492 43.5562 575.601 43.0298 575.601 42.4692C575.601 41.7925 575.482 41.208 575.243 40.7158C575.01 40.2236 574.662 39.8442 574.197 39.5776C573.739 39.3042 573.171 39.1675 572.495 39.1675H569.582V53H568.403V38.0703ZM576.063 53L572.853 46.3145L574.104 46.3042L577.314 52.8667V53H576.063ZM580.314 38.0703V53H579.125V38.0703H580.314ZM587.396 38.9727L583.089 53H581.879L586.626 38.0703H587.457L587.396 38.9727ZM591.251 53L586.944 38.9727L586.893 38.0703H587.713L592.471 53H591.251ZM590.584 47.7192V48.8267H583.848V47.7192H590.584Z" fill="white"/>
<defs>
<linearGradient id="paint0_linear_6_198" x1="0" y1="57.5" x2="632" y2="57.5" gradientUnits="userSpaceOnUse">
<stop stop-color="#4A7BA4"/>
<stop offset="1" stop-color="#1C2F3E"/>
</linearGradient>
</defs>
</svg>
