<svg width="203" height="80" viewBox="0 0 203 80" fill="none" xmlns="http://www.w3.org/2000/svg">
<path d="M0 0H203V10H0V0Z" fill="#FF6F61"/>
<path d="M10 0H193V10H10V0Z" fill="#1F3A62"/>
<path d="M20 10H183V20H20V10Z" fill="#00ACBE"/>
<path d="M0 20H203V80H0V20Z" fill="#FF6F61"/>
<path d="M36.7894 52.2793H25.8324L25.7738 46.2441H34.973C36.5941 46.2441 37.9222 46.0391 38.9574 45.6289C39.9925 45.1992 40.764 44.584 41.2718 43.7832C41.7992 42.9629 42.0629 41.9668 42.0629 40.7949C42.0629 39.4668 41.8089 38.3926 41.3011 37.5723C40.8129 36.752 40.0414 36.1562 38.9867 35.7852C37.9515 35.4141 36.6136 35.2285 34.973 35.2285H28.8793V71H20.0902V28.3438H34.973C37.4535 28.3438 39.6703 28.5781 41.6234 29.0469C43.5961 29.5156 45.266 30.2285 46.6332 31.1855C48.0004 32.1426 49.0453 33.3535 49.7679 34.8184C50.4906 36.2637 50.8519 37.9824 50.8519 39.9746C50.8519 41.7324 50.4515 43.3535 49.6507 44.8379C48.8695 46.3223 47.6293 47.5332 45.93 48.4707C44.2504 49.4082 42.0531 49.9258 39.3382 50.0234L36.7894 52.2793ZM36.4086 71H23.43L26.8578 64.1445H36.4086C37.9515 64.1445 39.2113 63.9004 40.1879 63.4121C41.1644 62.9043 41.8871 62.2207 42.3558 61.3613C42.8246 60.502 43.0589 59.5156 43.0589 58.4023C43.0589 57.1523 42.8441 56.0684 42.4144 55.1504C42.0043 54.2324 41.3402 53.5293 40.4222 53.041C39.5043 52.5332 38.2933 52.2793 36.7894 52.2793H28.3226L28.3812 46.2441H38.9281L40.9496 48.6172C43.5472 48.5781 45.6371 49.0371 47.2191 49.9941C48.8207 50.9316 49.9828 52.1523 50.7054 53.6562C51.4476 55.1602 51.8187 56.7715 51.8187 58.4902C51.8187 61.2246 51.223 63.5293 50.0316 65.4043C48.8402 67.2598 47.0921 68.6562 44.7875 69.5938C42.5023 70.5312 39.7093 71 36.4086 71ZM61.1933 48.9609V71H58.2719V48.9609H61.1933ZM82.2194 48.9609V71H79.2829L68.1877 54.0015V71H65.2663V48.9609H68.1877L79.3283 66.0049V48.9609H82.2194ZM97.9023 65.4297C97.9023 64.915 97.8216 64.4609 97.6601 64.0674C97.5087 63.6637 97.2363 63.3005 96.8427 62.9775C96.4592 62.6546 95.9244 62.3468 95.2382 62.0542C94.5621 61.7616 93.7044 61.4639 92.665 61.1611C91.5751 60.8382 90.5912 60.48 89.7133 60.0864C88.8354 59.6828 88.0836 59.2236 87.4579 58.709C86.8323 58.1943 86.353 57.604 86.02 56.938C85.687 56.272 85.5204 55.5101 85.5204 54.6523C85.5204 53.7946 85.697 53.0024 86.0502 52.2759C86.4034 51.5493 86.908 50.9186 87.5639 50.3838C88.2299 49.8389 89.0221 49.415 89.9404 49.1123C90.8587 48.8096 91.8829 48.6582 93.0131 48.6582C94.6681 48.6582 96.0707 48.9761 97.2211 49.6118C98.3816 50.2375 99.2646 51.0599 99.8701 52.0791C100.476 53.0882 100.778 54.168 100.778 55.3184H97.872C97.872 54.4909 97.6954 53.7593 97.3422 53.1235C96.989 52.4777 96.4542 51.9731 95.7377 51.6099C95.0213 51.2365 94.1131 51.0498 93.0131 51.0498C91.9737 51.0498 91.116 51.2062 90.4399 51.519C89.7638 51.8319 89.2592 52.2557 88.9262 52.7905C88.6033 53.3254 88.4418 53.9359 88.4418 54.6221C88.4418 55.0863 88.5377 55.5101 88.7294 55.8936C88.9313 56.2669 89.239 56.6151 89.6528 56.938C90.0766 57.2609 90.6114 57.5586 91.2573 57.8311C91.9132 58.1035 92.6953 58.3659 93.6035 58.6182C94.8548 58.9714 95.9345 59.3649 96.8427 59.7988C97.7509 60.2327 98.4977 60.7222 99.0829 61.2671C99.6783 61.8019 100.117 62.4124 100.4 63.0986C100.692 63.7747 100.839 64.5417 100.839 65.3994C100.839 66.2975 100.657 67.1099 100.294 67.8364C99.9306 68.563 99.4109 69.1836 98.7348 69.6982C98.0587 70.2129 97.2464 70.6115 96.2978 70.894C95.3593 71.1665 94.3098 71.3027 93.1494 71.3027C92.1301 71.3027 91.1261 71.1615 90.1371 70.8789C89.1583 70.5964 88.2652 70.1725 87.4579 69.6074C86.6607 69.0423 86.02 68.346 85.5356 67.5186C85.0613 66.681 84.8242 65.7122 84.8242 64.6123H87.7304C87.7304 65.3691 87.8767 66.02 88.1694 66.5649C88.462 67.0998 88.8606 67.5438 89.3652 67.897C89.8798 68.2502 90.4601 68.5125 91.1059 68.6841C91.7618 68.8455 92.443 68.9263 93.1494 68.9263C94.1686 68.9263 95.0314 68.785 95.7377 68.5024C96.4441 68.2199 96.9789 67.8162 97.3422 67.2915C97.7156 66.7668 97.9023 66.1462 97.9023 65.4297ZM106.456 48.9609V71H103.534V48.9609H106.456ZM126.816 60.0259V68.0938C126.543 68.4974 126.109 68.9515 125.514 69.4561C124.919 69.9505 124.096 70.3844 123.047 70.7578C122.007 71.1211 120.665 71.3027 119.02 71.3027C117.678 71.3027 116.442 71.0706 115.312 70.6064C114.192 70.1322 113.218 69.446 112.391 68.5479C111.573 67.6396 110.937 66.5397 110.483 65.248C110.039 63.9463 109.817 62.473 109.817 60.8281V59.1177C109.817 57.4728 110.009 56.0046 110.393 54.7129C110.786 53.4212 111.361 52.3263 112.118 51.4282C112.875 50.52 113.803 49.8338 114.903 49.3696C116.003 48.8953 117.265 48.6582 118.687 48.6582C120.373 48.6582 121.78 48.9508 122.911 49.5361C124.051 50.1113 124.939 50.9085 125.575 51.9277C126.22 52.9469 126.634 54.1074 126.816 55.4092H123.894C123.763 54.612 123.501 53.8854 123.107 53.2295C122.724 52.5736 122.174 52.0488 121.457 51.6553C120.741 51.2516 119.818 51.0498 118.687 51.0498C117.668 51.0498 116.785 51.2365 116.038 51.6099C115.292 51.9832 114.676 52.5181 114.192 53.2144C113.707 53.9106 113.344 54.7533 113.102 55.7422C112.87 56.7311 112.754 57.8462 112.754 59.0874V60.8281C112.754 62.0996 112.9 63.2349 113.193 64.2339C113.496 65.2329 113.924 66.0856 114.479 66.792C115.034 67.4883 115.695 68.0181 116.462 68.3813C117.239 68.7446 118.097 68.9263 119.036 68.9263C120.075 68.9263 120.918 68.8405 121.563 68.6689C122.209 68.4873 122.714 68.2754 123.077 68.0332C123.44 67.7809 123.718 67.5438 123.91 67.3218V62.3872H118.809V60.0259H126.816ZM144.815 58.4365V60.813H132.887V58.4365H144.815ZM133.341 48.9609V71H130.42V48.9609H133.341ZM147.358 48.9609V71H144.451V48.9609H147.358ZM158.999 48.9609V71H156.123V48.9609H158.999ZM166.083 48.9609V51.3525H149.054V48.9609H166.083ZM179.616 65.4297C179.616 64.915 179.536 64.4609 179.374 64.0674C179.223 63.6637 178.95 63.3005 178.557 62.9775C178.173 62.6546 177.638 62.3468 176.952 62.0542C176.276 61.7616 175.418 61.4639 174.379 61.1611C173.289 60.8382 172.305 60.48 171.427 60.0864C170.549 59.6828 169.798 59.2236 169.172 58.709C168.546 58.1943 168.067 57.604 167.734 56.938C167.401 56.272 167.235 55.5101 167.235 54.6523C167.235 53.7946 167.411 53.0024 167.764 52.2759C168.117 51.5493 168.622 50.9186 169.278 50.3838C169.944 49.8389 170.736 49.415 171.654 49.1123C172.573 48.8096 173.597 48.6582 174.727 48.6582C176.382 48.6582 177.785 48.9761 178.935 49.6118C180.096 50.2375 180.979 51.0599 181.584 52.0791C182.19 53.0882 182.492 54.168 182.492 55.3184H179.586C179.586 54.4909 179.409 53.7593 179.056 53.1235C178.703 52.4777 178.168 51.9731 177.452 51.6099C176.735 51.2365 175.827 51.0498 174.727 51.0498C173.688 51.0498 172.83 51.2062 172.154 51.519C171.478 51.8319 170.973 52.2557 170.64 52.7905C170.317 53.3254 170.156 53.9359 170.156 54.6221C170.156 55.0863 170.252 55.5101 170.443 55.8936C170.645 56.2669 170.953 56.6151 171.367 56.938C171.791 57.2609 172.325 57.5586 172.971 57.8311C173.627 58.1035 174.409 58.3659 175.318 58.6182C176.569 58.9714 177.649 59.3649 178.557 59.7988C179.465 60.2327 180.212 60.7222 180.797 61.2671C181.392 61.8019 181.831 62.4124 182.114 63.0986C182.407 63.7747 182.553 64.5417 182.553 65.3994C182.553 66.2975 182.371 67.1099 182.008 67.8364C181.645 68.563 181.125 69.1836 180.449 69.6982C179.773 70.2129 178.96 70.6115 178.012 70.894C177.073 71.1665 176.024 71.3027 174.863 71.3027C173.844 71.3027 172.84 71.1615 171.851 70.8789C170.872 70.5964 169.979 70.1725 169.172 69.6074C168.375 69.0423 167.734 68.346 167.25 67.5186C166.775 66.681 166.538 65.7122 166.538 64.6123H169.444C169.444 65.3691 169.591 66.02 169.883 66.5649C170.176 67.0998 170.575 67.5438 171.079 67.897C171.594 68.2502 172.174 68.5125 172.82 68.6841C173.476 68.8455 174.157 68.9263 174.863 68.9263C175.883 68.9263 176.745 68.785 177.452 68.5024C178.158 68.2199 178.693 67.8162 179.056 67.2915C179.43 66.7668 179.616 66.1462 179.616 65.4297Z" fill="white"/>
<rect y="10" width="10" height="10" fill="#FF6F61"/>
<rect x="193" y="10" width="10" height="10" fill="#FF6F61"/>
<rect x="10" y="10" width="10" height="10" fill="#1F3A62"/>
<rect x="183" y="10" width="10" height="10" fill="#1F3A62"/>
</svg>
