<svg width="662" height="23" viewBox="0 0 662 23" fill="none" xmlns="http://www.w3.org/2000/svg">
<path d="M10.5002 5.07031V20H8.60324L2.62521 8.48486V20H0.738495V5.07031H2.62521L8.634 16.6162V5.07031H10.5002ZM23.6814 11.2432V13.8374C23.6814 14.8901 23.5652 15.8164 23.3328 16.6162C23.1072 17.4092 22.7756 18.0723 22.3381 18.6055C21.9006 19.1387 21.3743 19.5386 20.759 19.8052C20.1438 20.0718 19.45 20.2051 18.6775 20.2051C17.9324 20.2051 17.2522 20.0718 16.637 19.8052C16.0217 19.5386 15.492 19.1387 15.0476 18.6055C14.6033 18.0723 14.2581 17.4092 14.012 16.6162C13.7727 15.8164 13.6531 14.8901 13.6531 13.8374V11.2432C13.6531 10.1904 13.7727 9.26758 14.012 8.47461C14.2512 7.6748 14.593 7.0083 15.0374 6.4751C15.4817 5.94189 16.0115 5.54199 16.6267 5.27539C17.242 5.00195 17.9221 4.86523 18.6672 4.86523C19.4397 4.86523 20.1336 5.00195 20.7488 5.27539C21.3709 5.54199 21.8972 5.94189 22.3279 6.4751C22.7654 7.0083 23.1004 7.6748 23.3328 8.47461C23.5652 9.26758 23.6814 10.1904 23.6814 11.2432ZM21.8152 13.8374V11.2227C21.8152 10.4023 21.7468 9.69824 21.6101 9.11035C21.4734 8.51562 21.2717 8.03027 21.0051 7.6543C20.7385 7.27832 20.4104 7.00146 20.0208 6.82373C19.6311 6.63916 19.1799 6.54688 18.6672 6.54688C18.1819 6.54688 17.7444 6.63916 17.3547 6.82373C16.9719 7.00146 16.6438 7.27832 16.3704 7.6543C16.0969 8.03027 15.885 8.51562 15.7346 9.11035C15.5911 9.69824 15.5193 10.4023 15.5193 11.2227V13.8374C15.5193 14.6646 15.5911 15.3755 15.7346 15.9702C15.885 16.5581 16.0969 17.0435 16.3704 17.4263C16.6506 17.8022 16.9856 18.0825 17.3753 18.2671C17.7649 18.4448 18.199 18.5337 18.6775 18.5337C19.1902 18.5337 19.6414 18.4448 20.031 18.2671C20.4275 18.0825 20.7556 17.8022 21.0154 17.4263C21.282 17.0435 21.4802 16.5581 21.6101 15.9702C21.7468 15.3755 21.8152 14.6646 21.8152 13.8374ZM33.3455 16.2266C33.3455 15.8779 33.3045 15.5703 33.2225 15.3037C33.1404 15.0303 32.9969 14.7842 32.7918 14.5654C32.5867 14.3467 32.2996 14.1382 31.9305 13.9399C31.5613 13.7417 31.0931 13.54 30.5257 13.335C29.9104 13.1162 29.3533 12.8735 28.8543 12.6069C28.3553 12.3335 27.928 12.0225 27.5726 11.6738C27.2239 11.3252 26.9539 10.9253 26.7625 10.4741C26.5711 10.0229 26.4754 9.50684 26.4754 8.92578C26.4754 8.34473 26.5745 7.80811 26.7728 7.31592C26.9778 6.82373 27.2649 6.39648 27.6341 6.03418C28.0101 5.66504 28.4612 5.37793 28.9876 5.17285C29.514 4.96777 30.1019 4.86523 30.7513 4.86523C31.722 4.86523 32.5389 5.08057 33.202 5.51123C33.8719 5.93506 34.3777 6.49219 34.7195 7.18262C35.0613 7.86621 35.2322 8.59766 35.2322 9.37695H33.3455C33.3455 8.81641 33.2532 8.3208 33.0687 7.89014C32.8909 7.45264 32.6106 7.11084 32.2278 6.86475C31.8519 6.61182 31.3597 6.48535 30.7513 6.48535C30.2044 6.48535 29.7532 6.59131 29.3978 6.80322C29.0491 7.01514 28.7894 7.30225 28.6185 7.66455C28.4544 8.02686 28.3724 8.44043 28.3724 8.90527C28.3724 9.21973 28.427 9.50684 28.5364 9.7666C28.6458 10.0195 28.8133 10.2554 29.0389 10.4741C29.2713 10.6929 29.5584 10.8945 29.9002 11.0791C30.2488 11.2637 30.659 11.4414 31.1307 11.6123C31.8621 11.8516 32.4876 12.1182 33.0071 12.4121C33.5267 12.7061 33.9505 13.0376 34.2786 13.4067C34.6067 13.769 34.846 14.1826 34.9964 14.6475C35.1536 15.1055 35.2322 15.625 35.2322 16.2061C35.2322 16.8145 35.1297 17.3647 34.9246 17.8569C34.7264 18.3491 34.4358 18.7695 34.053 19.1182C33.6702 19.4668 33.2088 19.7368 32.6687 19.9282C32.1287 20.1128 31.5203 20.2051 30.8436 20.2051C30.2557 20.2051 29.678 20.1094 29.1106 19.918C28.5501 19.7266 28.0408 19.4395 27.5828 19.0566C27.1248 18.6738 26.7591 18.2021 26.4856 17.6416C26.2122 17.0742 26.0755 16.418 26.0755 15.6729H27.9622C27.9622 16.1855 28.0374 16.6265 28.1878 16.9956C28.3382 17.3579 28.5467 17.6587 28.8133 17.8979C29.0799 18.1372 29.3841 18.3149 29.7259 18.4312C30.0745 18.5405 30.4471 18.5952 30.8436 18.5952C31.3904 18.5952 31.8484 18.4995 32.2176 18.3081C32.5936 18.1167 32.8738 17.8433 33.0584 17.4878C33.2498 17.1323 33.3455 16.7119 33.3455 16.2266ZM44.4452 16.2266C44.4452 15.8779 44.4041 15.5703 44.3221 15.3037C44.2401 15.0303 44.0965 14.7842 43.8914 14.5654C43.6864 14.3467 43.3993 14.1382 43.0301 13.9399C42.661 13.7417 42.1927 13.54 41.6253 13.335C41.0101 13.1162 40.453 12.8735 39.9539 12.6069C39.4549 12.3335 39.0277 12.0225 38.6722 11.6738C38.3236 11.3252 38.0536 10.9253 37.8621 10.4741C37.6707 10.0229 37.575 9.50684 37.575 8.92578C37.575 8.34473 37.6742 7.80811 37.8724 7.31592C38.0775 6.82373 38.3646 6.39648 38.7337 6.03418C39.1097 5.66504 39.5609 5.37793 40.0872 5.17285C40.6136 4.96777 41.2015 4.86523 41.8509 4.86523C42.8216 4.86523 43.6385 5.08057 44.3016 5.51123C44.9715 5.93506 45.4774 6.49219 45.8192 7.18262C46.161 7.86621 46.3319 8.59766 46.3319 9.37695H44.4452C44.4452 8.81641 44.3529 8.3208 44.1683 7.89014C43.9906 7.45264 43.7103 7.11084 43.3275 6.86475C42.9515 6.61182 42.4593 6.48535 41.8509 6.48535C41.304 6.48535 40.8529 6.59131 40.4974 6.80322C40.1488 7.01514 39.889 7.30225 39.7181 7.66455C39.554 8.02686 39.472 8.44043 39.472 8.90527C39.472 9.21973 39.5267 9.50684 39.6361 9.7666C39.7454 10.0195 39.9129 10.2554 40.1385 10.4741C40.3709 10.6929 40.658 10.8945 40.9998 11.0791C41.3485 11.2637 41.7586 11.4414 42.2303 11.6123C42.9618 11.8516 43.5872 12.1182 44.1068 12.4121C44.6263 12.7061 45.0501 13.0376 45.3783 13.4067C45.7064 13.769 45.9456 14.1826 46.096 14.6475C46.2533 15.1055 46.3319 15.625 46.3319 16.2061C46.3319 16.8145 46.2293 17.3647 46.0243 17.8569C45.826 18.3491 45.5355 18.7695 45.1527 19.1182C44.7699 19.4668 44.3084 19.7368 43.7684 19.9282C43.2284 20.1128 42.62 20.2051 41.9432 20.2051C41.3553 20.2051 40.7777 20.1094 40.2103 19.918C39.6497 19.7266 39.1405 19.4395 38.6825 19.0566C38.2245 18.6738 37.8587 18.2021 37.5853 17.6416C37.3119 17.0742 37.1751 16.418 37.1751 15.6729H39.0619C39.0619 16.1855 39.1371 16.6265 39.2874 16.9956C39.4378 17.3579 39.6463 17.6587 39.9129 17.8979C40.1795 18.1372 40.4837 18.3149 40.8255 18.4312C41.1742 18.5405 41.5467 18.5952 41.9432 18.5952C42.4901 18.5952 42.9481 18.4995 43.3172 18.3081C43.6932 18.1167 43.9735 17.8433 44.158 17.4878C44.3495 17.1323 44.4452 16.7119 44.4452 16.2266ZM53.8529 6.39307L49.7719 20H47.8441L52.6532 5.07031H53.8632L53.8529 6.39307ZM57.1547 20L53.0736 6.39307L53.0531 5.07031H54.2733L59.0824 20H57.1547ZM57.1547 14.4731V16.0933H49.9564V14.4731H57.1547ZM68.3413 5.07031V20H66.4546V5.07031H68.3413ZM76.8569 6.39307L72.7759 20H70.8481L75.6572 5.07031H76.8672L76.8569 6.39307ZM80.1587 20L76.0776 6.39307L76.0571 5.07031H77.2773L82.0864 20H80.1587ZM80.1587 14.4731V16.0933H72.9604V14.4731H80.1587ZM94.2164 6.39307L90.1353 20H88.2076L93.0167 5.07031H94.2266L94.2164 6.39307ZM97.5181 20L93.4371 6.39307L93.4166 5.07031H94.6368L99.4459 20H97.5181ZM97.5181 14.4731V16.0933H90.3199V14.4731H97.5181ZM111.468 5.07031V20H109.571L103.593 8.48486V20H101.707V5.07031H103.593L109.602 16.6162V5.07031H111.468ZM119.964 6.39307L115.882 20H113.955L118.764 5.07031H119.974L119.964 6.39307ZM123.265 20L119.184 6.39307L119.164 5.07031H120.384L125.193 20H123.265ZM123.265 14.4731V16.0933H116.067V14.4731H123.265ZM135.196 18.3901V20H129.002V18.3901H135.196ZM129.341 5.07031V20H127.454V5.07031H129.341ZM139.62 5.07031V20H137.733V5.07031H139.62ZM149.643 16.2266C149.643 15.8779 149.602 15.5703 149.52 15.3037C149.438 15.0303 149.294 14.7842 149.089 14.5654C148.884 14.3467 148.597 14.1382 148.228 13.9399C147.859 13.7417 147.39 13.54 146.823 13.335C146.208 13.1162 145.651 12.8735 145.152 12.6069C144.653 12.3335 144.225 12.0225 143.87 11.6738C143.521 11.3252 143.251 10.9253 143.06 10.4741C142.868 10.0229 142.773 9.50684 142.773 8.92578C142.773 8.34473 142.872 7.80811 143.07 7.31592C143.275 6.82373 143.562 6.39648 143.931 6.03418C144.307 5.66504 144.759 5.37793 145.285 5.17285C145.811 4.96777 146.399 4.86523 147.049 4.86523C148.019 4.86523 148.836 5.08057 149.499 5.51123C150.169 5.93506 150.675 6.49219 151.017 7.18262C151.359 7.86621 151.53 8.59766 151.53 9.37695H149.643C149.643 8.81641 149.551 8.3208 149.366 7.89014C149.188 7.45264 148.908 7.11084 148.525 6.86475C148.149 6.61182 147.657 6.48535 147.049 6.48535C146.502 6.48535 146.051 6.59131 145.695 6.80322C145.346 7.01514 145.087 7.30225 144.916 7.66455C144.752 8.02686 144.67 8.44043 144.67 8.90527C144.67 9.21973 144.724 9.50684 144.834 9.7666C144.943 10.0195 145.111 10.2554 145.336 10.4741C145.569 10.6929 145.856 10.8945 146.198 11.0791C146.546 11.2637 146.956 11.4414 147.428 11.6123C148.159 11.8516 148.785 12.1182 149.304 12.4121C149.824 12.7061 150.248 13.0376 150.576 13.4067C150.904 13.769 151.143 14.1826 151.294 14.6475C151.451 15.1055 151.53 15.625 151.53 16.2061C151.53 16.8145 151.427 17.3647 151.222 17.8569C151.024 18.3491 150.733 18.7695 150.35 19.1182C149.968 19.4668 149.506 19.7368 148.966 19.9282C148.426 20.1128 147.818 20.2051 147.141 20.2051C146.553 20.2051 145.975 20.1094 145.408 19.918C144.847 19.7266 144.338 19.4395 143.88 19.0566C143.422 18.6738 143.056 18.2021 142.783 17.6416C142.51 17.0742 142.373 16.418 142.373 15.6729H144.26C144.26 16.1855 144.335 16.6265 144.485 16.9956C144.636 17.3579 144.844 17.6587 145.111 17.8979C145.377 18.1372 145.681 18.3149 146.023 18.4312C146.372 18.5405 146.744 18.5952 147.141 18.5952C147.688 18.5952 148.146 18.4995 148.515 18.3081C148.891 18.1167 149.171 17.8433 149.356 17.4878C149.547 17.1323 149.643 16.7119 149.643 16.2266ZM159.051 6.39307L154.97 20H153.042L157.851 5.07031H159.061L159.051 6.39307ZM162.352 20L158.271 6.39307L158.251 5.07031H159.471L164.28 20H162.352ZM162.352 14.4731V16.0933H155.154V14.4731H162.352ZM181.486 11.3149V13.8579C181.486 14.9106 181.363 15.8335 181.117 16.6265C180.877 17.4194 180.529 18.0825 180.071 18.6157C179.62 19.1421 179.073 19.5386 178.43 19.8052C177.794 20.0718 177.083 20.2051 176.297 20.2051C175.518 20.2051 174.807 20.0718 174.164 19.8052C173.529 19.5386 172.978 19.1421 172.514 18.6157C172.056 18.0825 171.7 17.4194 171.447 16.6265C171.201 15.8335 171.078 14.9106 171.078 13.8579V11.3149C171.078 10.2485 171.201 9.31543 171.447 8.51562C171.693 7.70898 172.045 7.03564 172.503 6.49561C172.968 5.95557 173.518 5.54883 174.154 5.27539C174.797 5.00195 175.504 4.86523 176.277 4.86523C177.063 4.86523 177.774 5.00195 178.41 5.27539C179.052 5.54883 179.602 5.95557 180.06 6.49561C180.518 7.03564 180.871 7.70898 181.117 8.51562C181.363 9.31543 181.486 10.2485 181.486 11.3149ZM179.015 13.8579V11.2944C179.015 10.5356 178.953 9.88623 178.83 9.34619C178.714 8.79932 178.539 8.35498 178.307 8.01318C178.075 7.66455 177.788 7.4082 177.446 7.24414C177.111 7.07324 176.721 6.98779 176.277 6.98779C175.846 6.98779 175.46 7.07324 175.118 7.24414C174.783 7.4082 174.496 7.66455 174.257 8.01318C174.024 8.35498 173.847 8.79932 173.724 9.34619C173.607 9.88623 173.549 10.5356 173.549 11.2944V13.8579C173.549 14.603 173.611 15.2456 173.734 15.7856C173.857 16.3188 174.035 16.7563 174.267 17.0981C174.506 17.4331 174.797 17.6826 175.139 17.8467C175.48 18.0107 175.867 18.0928 176.297 18.0928C176.735 18.0928 177.124 18.0107 177.466 17.8467C177.808 17.6826 178.092 17.4331 178.317 17.0981C178.55 16.7563 178.724 16.3188 178.84 15.7856C178.956 15.2456 179.015 14.603 179.015 13.8579ZM196.036 17.98L199.481 21.1074L197.881 22.6045L194.498 19.5078L196.036 17.98ZM199.358 11.3149V13.7554C199.358 14.8218 199.235 15.7583 198.989 16.5649C198.749 17.3716 198.401 18.0449 197.943 18.585C197.485 19.125 196.935 19.5317 196.292 19.8052C195.656 20.0718 194.942 20.2051 194.149 20.2051C193.376 20.2051 192.669 20.0718 192.026 19.8052C191.391 19.5317 190.84 19.125 190.375 18.585C189.917 18.0449 189.562 17.3716 189.309 16.5649C189.056 15.7583 188.93 14.8218 188.93 13.7554V11.3149C188.93 10.2485 189.053 9.31543 189.299 8.51562C189.552 7.70898 189.907 7.03564 190.365 6.49561C190.83 5.95557 191.38 5.54883 192.016 5.27539C192.659 5.00195 193.366 4.86523 194.139 4.86523C194.925 4.86523 195.639 5.00195 196.282 5.27539C196.924 5.54883 197.475 5.95557 197.933 6.49561C198.391 7.03564 198.743 7.70898 198.989 8.51562C199.235 9.31543 199.358 10.2485 199.358 11.3149ZM196.876 13.7554V11.2944C196.876 10.5356 196.818 9.88623 196.702 9.34619C196.586 8.79932 196.408 8.35498 196.169 8.01318C195.937 7.66455 195.649 7.4082 195.308 7.24414C194.973 7.07324 194.583 6.98779 194.139 6.98779C193.708 6.98779 193.322 7.07324 192.98 7.24414C192.645 7.4082 192.361 7.66455 192.129 8.01318C191.896 8.35498 191.719 8.79932 191.596 9.34619C191.473 9.88623 191.411 10.5356 191.411 11.2944V13.7554C191.411 14.521 191.473 15.1772 191.596 15.7241C191.719 16.271 191.896 16.7188 192.129 17.0674C192.368 17.416 192.655 17.6758 192.99 17.8467C193.332 18.0107 193.718 18.0928 194.149 18.0928C194.593 18.0928 194.986 18.0107 195.328 17.8467C195.67 17.6758 195.954 17.416 196.179 17.0674C196.412 16.7188 196.586 16.271 196.702 15.7241C196.818 15.1772 196.876 14.521 196.876 13.7554ZM208.981 5.07031H211.473V15.437C211.473 16.5786 211.257 17.498 210.827 18.1953C210.403 18.8926 209.829 19.4019 209.104 19.7231C208.386 20.0444 207.586 20.2051 206.705 20.2051C205.789 20.2051 204.972 20.0444 204.254 19.7231C203.536 19.4019 202.972 18.8926 202.562 18.1953C202.152 17.498 201.947 16.5786 201.947 15.437V5.07031H204.428V15.437C204.428 16.1479 204.517 16.6982 204.695 17.0879C204.879 17.4775 205.139 17.7476 205.474 17.8979C205.816 18.0483 206.226 18.1235 206.705 18.1235C207.183 18.1235 207.59 18.0483 207.925 17.8979C208.267 17.7476 208.526 17.4775 208.704 17.0879C208.889 16.6982 208.981 16.1479 208.981 15.437V5.07031ZM222.572 17.9185V20H216.092V17.9185H222.572ZM216.748 5.07031V20H214.256V5.07031H216.748ZM221.701 11.2842V13.335H216.092V11.2842H221.701ZM222.511 5.07031V7.16211H216.092V5.07031H222.511ZM234.282 17.2314L237.461 5.07031H240.157L235.697 20H233.851L234.282 17.2314ZM231.503 5.07031L234.661 17.2314L235.123 20H233.277L228.817 5.07031H231.503ZM252.067 11.3149V13.8579C252.067 14.9106 251.944 15.8335 251.698 16.6265C251.459 17.4194 251.11 18.0825 250.652 18.6157C250.201 19.1421 249.654 19.5386 249.011 19.8052C248.376 20.0718 247.665 20.2051 246.879 20.2051C246.099 20.2051 245.388 20.0718 244.746 19.8052C244.11 19.5386 243.56 19.1421 243.095 18.6157C242.637 18.0825 242.281 17.4194 242.028 16.6265C241.782 15.8335 241.659 14.9106 241.659 13.8579V11.3149C241.659 10.2485 241.782 9.31543 242.028 8.51562C242.275 7.70898 242.627 7.03564 243.085 6.49561C243.549 5.95557 244.1 5.54883 244.736 5.27539C245.378 5.00195 246.086 4.86523 246.858 4.86523C247.644 4.86523 248.355 5.00195 248.991 5.27539C249.633 5.54883 250.184 5.95557 250.642 6.49561C251.1 7.03564 251.452 7.70898 251.698 8.51562C251.944 9.31543 252.067 10.2485 252.067 11.3149ZM249.596 13.8579V11.2944C249.596 10.5356 249.534 9.88623 249.411 9.34619C249.295 8.79932 249.121 8.35498 248.888 8.01318C248.656 7.66455 248.369 7.4082 248.027 7.24414C247.692 7.07324 247.302 6.98779 246.858 6.98779C246.427 6.98779 246.041 7.07324 245.699 7.24414C245.364 7.4082 245.077 7.66455 244.838 8.01318C244.606 8.35498 244.428 8.79932 244.305 9.34619C244.189 9.88623 244.131 10.5356 244.131 11.2944V13.8579C244.131 14.603 244.192 15.2456 244.315 15.7856C244.438 16.3188 244.616 16.7563 244.848 17.0981C245.088 17.4331 245.378 17.6826 245.72 17.8467C246.062 18.0107 246.448 18.0928 246.879 18.0928C247.316 18.0928 247.706 18.0107 248.048 17.8467C248.389 17.6826 248.673 17.4331 248.899 17.0981C249.131 16.7563 249.305 16.3188 249.422 15.7856C249.538 15.2456 249.596 14.603 249.596 13.8579ZM262.08 15.1294H264.561C264.513 16.2095 264.295 17.1289 263.905 17.8877C263.515 18.6396 262.955 19.2139 262.223 19.6104C261.499 20.0068 260.613 20.2051 259.568 20.2051C258.775 20.2051 258.064 20.0615 257.435 19.7744C256.813 19.4873 256.283 19.0737 255.845 18.5337C255.408 17.9868 255.073 17.3203 254.841 16.5342C254.615 15.748 254.502 14.856 254.502 13.8579V11.2124C254.502 10.2144 254.618 9.32227 254.851 8.53613C255.09 7.75 255.432 7.0835 255.876 6.53662C256.321 5.98975 256.861 5.57617 257.496 5.2959C258.139 5.00879 258.863 4.86523 259.67 4.86523C260.702 4.86523 261.571 5.06348 262.275 5.45996C262.979 5.85645 263.522 6.4375 263.905 7.20312C264.288 7.96875 264.51 8.90186 264.572 10.0024H262.09C262.056 9.25732 261.953 8.6626 261.782 8.21826C261.618 7.76709 261.365 7.44238 261.024 7.24414C260.689 7.0459 260.238 6.94678 259.67 6.94678C259.198 6.94678 258.792 7.03564 258.45 7.21338C258.115 7.39111 257.838 7.65771 257.619 8.01318C257.407 8.36182 257.247 8.80273 257.137 9.33594C257.035 9.8623 256.984 10.481 256.984 11.1919V13.8579C256.984 14.5415 257.028 15.1465 257.117 15.6729C257.206 16.1992 257.349 16.647 257.548 17.0161C257.746 17.3784 258.009 17.6553 258.337 17.8467C258.665 18.0312 259.075 18.1235 259.568 18.1235C260.155 18.1235 260.624 18.0312 260.972 17.8467C261.328 17.6621 261.591 17.3511 261.762 16.9136C261.933 16.4761 262.039 15.8813 262.08 15.1294ZM275.281 17.9185V20H268.801V17.9185H275.281ZM269.457 5.07031V20H266.966V5.07031H269.457ZM274.41 11.2842V13.335H268.801V11.2842H274.41ZM275.22 5.07031V7.16211H268.801V5.07031H275.22ZM271.898 0.989258L274.348 3.82959V3.94238H272.462L271.211 2.35303L269.949 3.95264H268.094V3.80908L270.513 0.989258H271.898ZM419.367 18.3901V20H412.886V18.3901H419.367ZM413.224 5.07031V20H411.338V5.07031H413.224ZM418.495 11.4893V13.0991H412.886V11.4893H418.495ZM419.264 5.07031V6.69043H412.886V5.07031H419.264ZM427.026 5.07031H431.199C432.17 5.07031 432.983 5.24121 433.64 5.58301C434.303 5.9248 434.802 6.43066 435.137 7.10059C435.478 7.76367 435.649 8.58057 435.649 9.55127C435.649 10.2349 435.537 10.8604 435.311 11.4277C435.085 11.9883 434.757 12.4668 434.327 12.8633C433.896 13.2529 433.373 13.5435 432.758 13.7349L432.245 13.9502H428.523L428.502 12.3403H431.179C431.753 12.3403 432.231 12.2173 432.614 11.9712C432.997 11.7183 433.284 11.3799 433.475 10.9561C433.667 10.5322 433.763 10.064 433.763 9.55127C433.763 8.97705 433.677 8.47461 433.506 8.04395C433.335 7.61328 433.062 7.28174 432.686 7.04932C432.317 6.81006 431.821 6.69043 431.199 6.69043H428.913V20H427.026V5.07031ZM434.193 20L431.22 13.2324L433.178 13.2222L436.213 19.877V20H434.193ZM446.411 18.3901V20H439.93V18.3901H446.411ZM440.268 5.07031V20H438.382V5.07031H440.268ZM445.539 11.4893V13.0991H439.93V11.4893H445.539ZM446.308 5.07031V6.69043H439.93V5.07031H446.308ZM454.034 5.07031V20H452.168V5.07031H454.034ZM457.961 5.07031V6.69043H448.251V5.07031H457.961ZM469.799 11.2432V13.8374C469.799 14.8901 469.683 15.8164 469.451 16.6162C469.225 17.4092 468.894 18.0723 468.456 18.6055C468.019 19.1387 467.492 19.5386 466.877 19.8052C466.262 20.0718 465.568 20.2051 464.795 20.2051C464.05 20.2051 463.37 20.0718 462.755 19.8052C462.14 19.5386 461.61 19.1387 461.166 18.6055C460.721 18.0723 460.376 17.4092 460.13 16.6162C459.891 15.8164 459.771 14.8901 459.771 13.8374V11.2432C459.771 10.1904 459.891 9.26758 460.13 8.47461C460.369 7.6748 460.711 7.0083 461.155 6.4751C461.6 5.94189 462.129 5.54199 462.745 5.27539C463.36 5.00195 464.04 4.86523 464.785 4.86523C465.558 4.86523 466.251 5.00195 466.867 5.27539C467.489 5.54199 468.015 5.94189 468.446 6.4751C468.883 7.0083 469.218 7.6748 469.451 8.47461C469.683 9.26758 469.799 10.1904 469.799 11.2432ZM467.933 13.8374V11.2227C467.933 10.4023 467.865 9.69824 467.728 9.11035C467.591 8.51562 467.39 8.03027 467.123 7.6543C466.856 7.27832 466.528 7.00146 466.139 6.82373C465.749 6.63916 465.298 6.54688 464.785 6.54688C464.3 6.54688 463.862 6.63916 463.473 6.82373C463.09 7.00146 462.762 7.27832 462.488 7.6543C462.215 8.03027 462.003 8.51562 461.853 9.11035C461.709 9.69824 461.637 10.4023 461.637 11.2227V13.8374C461.637 14.6646 461.709 15.3755 461.853 15.9702C462.003 16.5581 462.215 17.0435 462.488 17.4263C462.769 17.8022 463.104 18.0825 463.493 18.2671C463.883 18.4448 464.317 18.5337 464.795 18.5337C465.308 18.5337 465.759 18.4448 466.149 18.2671C466.545 18.0825 466.874 17.8022 467.133 17.4263C467.4 17.0435 467.598 16.5581 467.728 15.9702C467.865 15.3755 467.933 14.6646 467.933 13.8374ZM472.942 5.07031H477.115C478.086 5.07031 478.899 5.24121 479.556 5.58301C480.219 5.9248 480.718 6.43066 481.053 7.10059C481.395 7.76367 481.565 8.58057 481.565 9.55127C481.565 10.2349 481.453 10.8604 481.227 11.4277C481.002 11.9883 480.673 12.4668 480.243 12.8633C479.812 13.2529 479.289 13.5435 478.674 13.7349L478.161 13.9502H474.439L474.419 12.3403H477.095C477.669 12.3403 478.148 12.2173 478.53 11.9712C478.913 11.7183 479.2 11.3799 479.392 10.9561C479.583 10.5322 479.679 10.064 479.679 9.55127C479.679 8.97705 479.593 8.47461 479.422 8.04395C479.252 7.61328 478.978 7.28174 478.602 7.04932C478.233 6.81006 477.737 6.69043 477.115 6.69043H474.829V20H472.942V5.07031ZM480.109 20L477.136 13.2324L479.094 13.2222L482.129 19.877V20H480.109ZM494.06 5.07031V20H492.163L486.185 8.48486V20H484.298V5.07031H486.185L492.193 16.6162V5.07031H494.06ZM502.555 6.39307L498.474 20H496.546L501.355 5.07031H502.565L502.555 6.39307ZM505.857 20L501.776 6.39307L501.755 5.07031H502.975L507.784 20H505.857ZM505.857 14.4731V16.0933H498.658V14.4731H505.857ZM521.606 16.2266C521.606 15.8779 521.565 15.5703 521.483 15.3037C521.401 15.0303 521.258 14.7842 521.052 14.5654C520.847 14.3467 520.56 14.1382 520.191 13.9399C519.822 13.7417 519.354 13.54 518.786 13.335C518.171 13.1162 517.614 12.8735 517.115 12.6069C516.616 12.3335 516.189 12.0225 515.833 11.6738C515.485 11.3252 515.215 10.9253 515.023 10.4741C514.832 10.0229 514.736 9.50684 514.736 8.92578C514.736 8.34473 514.835 7.80811 515.033 7.31592C515.239 6.82373 515.526 6.39648 515.895 6.03418C516.271 5.66504 516.722 5.37793 517.248 5.17285C517.775 4.96777 518.363 4.86523 519.012 4.86523C519.983 4.86523 520.8 5.08057 521.463 5.51123C522.133 5.93506 522.638 6.49219 522.98 7.18262C523.322 7.86621 523.493 8.59766 523.493 9.37695H521.606C521.606 8.81641 521.514 8.3208 521.329 7.89014C521.152 7.45264 520.871 7.11084 520.489 6.86475C520.113 6.61182 519.62 6.48535 519.012 6.48535C518.465 6.48535 518.014 6.59131 517.658 6.80322C517.31 7.01514 517.05 7.30225 516.879 7.66455C516.715 8.02686 516.633 8.44043 516.633 8.90527C516.633 9.21973 516.688 9.50684 516.797 9.7666C516.906 10.0195 517.074 10.2554 517.3 10.4741C517.532 10.6929 517.819 10.8945 518.161 11.0791C518.51 11.2637 518.92 11.4414 519.391 11.6123C520.123 11.8516 520.748 12.1182 521.268 12.4121C521.787 12.7061 522.211 13.0376 522.539 13.4067C522.867 13.769 523.107 14.1826 523.257 14.6475C523.414 15.1055 523.493 15.625 523.493 16.2061C523.493 16.8145 523.39 17.3647 523.185 17.8569C522.987 18.3491 522.697 18.7695 522.314 19.1182C521.931 19.4668 521.469 19.7368 520.929 19.9282C520.389 20.1128 519.781 20.2051 519.104 20.2051C518.516 20.2051 517.939 20.1094 517.371 19.918C516.811 19.7266 516.302 19.4395 515.844 19.0566C515.385 18.6738 515.02 18.2021 514.746 17.6416C514.473 17.0742 514.336 16.418 514.336 15.6729H516.223C516.223 16.1855 516.298 16.6265 516.448 16.9956C516.599 17.3579 516.807 17.6587 517.074 17.8979C517.341 18.1372 517.645 18.3149 517.987 18.4312C518.335 18.5405 518.708 18.5952 519.104 18.5952C519.651 18.5952 520.109 18.4995 520.478 18.3081C520.854 18.1167 521.135 17.8433 521.319 17.4878C521.51 17.1323 521.606 16.7119 521.606 16.2266ZM535.885 11.2432V13.8374C535.885 14.8901 535.768 15.8164 535.536 16.6162C535.31 17.4092 534.979 18.0723 534.541 18.6055C534.104 19.1387 533.577 19.5386 532.962 19.8052C532.347 20.0718 531.653 20.2051 530.881 20.2051C530.135 20.2051 529.455 20.0718 528.84 19.8052C528.225 19.5386 527.695 19.1387 527.251 18.6055C526.806 18.0723 526.461 17.4092 526.215 16.6162C525.976 15.8164 525.856 14.8901 525.856 13.8374V11.2432C525.856 10.1904 525.976 9.26758 526.215 8.47461C526.454 7.6748 526.796 7.0083 527.24 6.4751C527.685 5.94189 528.215 5.54199 528.83 5.27539C529.445 5.00195 530.125 4.86523 530.87 4.86523C531.643 4.86523 532.337 5.00195 532.952 5.27539C533.574 5.54199 534.1 5.94189 534.531 6.4751C534.969 7.0083 535.303 7.6748 535.536 8.47461C535.768 9.26758 535.885 10.1904 535.885 11.2432ZM534.018 13.8374V11.2227C534.018 10.4023 533.95 9.69824 533.813 9.11035C533.677 8.51562 533.475 8.03027 533.208 7.6543C532.942 7.27832 532.614 7.00146 532.224 6.82373C531.834 6.63916 531.383 6.54688 530.87 6.54688C530.385 6.54688 529.948 6.63916 529.558 6.82373C529.175 7.00146 528.847 7.27832 528.573 7.6543C528.3 8.03027 528.088 8.51562 527.938 9.11035C527.794 9.69824 527.722 10.4023 527.722 11.2227V13.8374C527.722 14.6646 527.794 15.3755 527.938 15.9702C528.088 16.5581 528.3 17.0435 528.573 17.4263C528.854 17.8022 529.189 18.0825 529.578 18.2671C529.968 18.4448 530.402 18.5337 530.881 18.5337C531.393 18.5337 531.844 18.4448 532.234 18.2671C532.631 18.0825 532.959 17.8022 533.219 17.4263C533.485 17.0435 533.683 16.5581 533.813 15.9702C533.95 15.3755 534.018 14.6646 534.018 13.8374ZM529.855 4.05518L531.844 1.04053H534.131L531.383 4.05518H529.855ZM553.757 11.2432V13.8374C553.757 14.8901 553.641 15.8164 553.408 16.6162C553.182 17.4092 552.851 18.0723 552.413 18.6055C551.976 19.1387 551.45 19.5386 550.834 19.8052C550.219 20.0718 549.525 20.2051 548.753 20.2051C548.008 20.2051 547.328 20.0718 546.712 19.8052C546.097 19.5386 545.567 19.1387 545.123 18.6055C544.679 18.0723 544.333 17.4092 544.087 16.6162C543.848 15.8164 543.728 14.8901 543.728 13.8374V11.2432C543.728 10.1904 543.848 9.26758 544.087 8.47461C544.327 7.6748 544.668 7.0083 545.113 6.4751C545.557 5.94189 546.087 5.54199 546.702 5.27539C547.317 5.00195 547.997 4.86523 548.743 4.86523C549.515 4.86523 550.209 5.00195 550.824 5.27539C551.446 5.54199 551.973 5.94189 552.403 6.4751C552.841 7.0083 553.176 7.6748 553.408 8.47461C553.641 9.26758 553.757 10.1904 553.757 11.2432ZM551.891 13.8374V11.2227C551.891 10.4023 551.822 9.69824 551.685 9.11035C551.549 8.51562 551.347 8.03027 551.08 7.6543C550.814 7.27832 550.486 7.00146 550.096 6.82373C549.706 6.63916 549.255 6.54688 548.743 6.54688C548.257 6.54688 547.82 6.63916 547.43 6.82373C547.047 7.00146 546.719 7.27832 546.446 7.6543C546.172 8.03027 545.96 8.51562 545.81 9.11035C545.666 9.69824 545.595 10.4023 545.595 11.2227V13.8374C545.595 14.6646 545.666 15.3755 545.81 15.9702C545.96 16.5581 546.172 17.0435 546.446 17.4263C546.726 17.8022 547.061 18.0825 547.451 18.2671C547.84 18.4448 548.274 18.5337 548.753 18.5337C549.266 18.5337 549.717 18.4448 550.106 18.2671C550.503 18.0825 550.831 17.8022 551.091 17.4263C551.357 17.0435 551.556 16.5581 551.685 15.9702C551.822 15.3755 551.891 14.6646 551.891 13.8374ZM569.947 18.3901V20H563.467V18.3901H569.947ZM563.805 5.07031V20H561.918V5.07031H563.805ZM569.076 11.4893V13.0991H563.467V11.4893H569.076ZM569.845 5.07031V6.69043H563.467V5.07031H569.845ZM579.099 16.2266C579.099 15.8779 579.058 15.5703 578.976 15.3037C578.894 15.0303 578.75 14.7842 578.545 14.5654C578.34 14.3467 578.053 14.1382 577.684 13.9399C577.314 13.7417 576.846 13.54 576.279 13.335C575.664 13.1162 575.106 12.8735 574.607 12.6069C574.108 12.3335 573.681 12.0225 573.326 11.6738C572.977 11.3252 572.707 10.9253 572.516 10.4741C572.324 10.0229 572.229 9.50684 572.229 8.92578C572.229 8.34473 572.328 7.80811 572.526 7.31592C572.731 6.82373 573.018 6.39648 573.387 6.03418C573.763 5.66504 574.214 5.37793 574.741 5.17285C575.267 4.96777 575.855 4.86523 576.504 4.86523C577.475 4.86523 578.292 5.08057 578.955 5.51123C579.625 5.93506 580.131 6.49219 580.473 7.18262C580.814 7.86621 580.985 8.59766 580.985 9.37695H579.099C579.099 8.81641 579.006 8.3208 578.822 7.89014C578.644 7.45264 578.364 7.11084 577.981 6.86475C577.605 6.61182 577.113 6.48535 576.504 6.48535C575.958 6.48535 575.506 6.59131 575.151 6.80322C574.802 7.01514 574.542 7.30225 574.372 7.66455C574.208 8.02686 574.125 8.44043 574.125 8.90527C574.125 9.21973 574.18 9.50684 574.29 9.7666C574.399 10.0195 574.566 10.2554 574.792 10.4741C575.024 10.6929 575.312 10.8945 575.653 11.0791C576.002 11.2637 576.412 11.4414 576.884 11.6123C577.615 11.8516 578.241 12.1182 578.76 12.4121C579.28 12.7061 579.704 13.0376 580.032 13.4067C580.36 13.769 580.599 14.1826 580.75 14.6475C580.907 15.1055 580.985 15.625 580.985 16.2061C580.985 16.8145 580.883 17.3647 580.678 17.8569C580.479 18.3491 580.189 18.7695 579.806 19.1182C579.423 19.4668 578.962 19.7368 578.422 19.9282C577.882 20.1128 577.273 20.2051 576.597 20.2051C576.009 20.2051 575.431 20.1094 574.864 19.918C574.303 19.7266 573.794 19.4395 573.336 19.0566C572.878 18.6738 572.512 18.2021 572.239 17.6416C571.965 17.0742 571.829 16.418 571.829 15.6729H573.715C573.715 16.1855 573.791 16.6265 573.941 16.9956C574.091 17.3579 574.3 17.6587 574.566 17.8979C574.833 18.1372 575.137 18.3149 575.479 18.4312C575.828 18.5405 576.2 18.5952 576.597 18.5952C577.144 18.5952 577.602 18.4995 577.971 18.3081C578.347 18.1167 578.627 17.8433 578.812 17.4878C579.003 17.1323 579.099 16.7119 579.099 16.2266ZM590.198 16.2266C590.198 15.8779 590.157 15.5703 590.075 15.3037C589.993 15.0303 589.85 14.7842 589.645 14.5654C589.439 14.3467 589.152 14.1382 588.783 13.9399C588.414 13.7417 587.946 13.54 587.378 13.335C586.763 13.1162 586.206 12.8735 585.707 12.6069C585.208 12.3335 584.781 12.0225 584.425 11.6738C584.077 11.3252 583.807 10.9253 583.615 10.4741C583.424 10.0229 583.328 9.50684 583.328 8.92578C583.328 8.34473 583.427 7.80811 583.625 7.31592C583.831 6.82373 584.118 6.39648 584.487 6.03418C584.863 5.66504 585.314 5.37793 585.84 5.17285C586.367 4.96777 586.955 4.86523 587.604 4.86523C588.575 4.86523 589.392 5.08057 590.055 5.51123C590.725 5.93506 591.23 6.49219 591.572 7.18262C591.914 7.86621 592.085 8.59766 592.085 9.37695H590.198C590.198 8.81641 590.106 8.3208 589.921 7.89014C589.744 7.45264 589.463 7.11084 589.081 6.86475C588.705 6.61182 588.212 6.48535 587.604 6.48535C587.057 6.48535 586.606 6.59131 586.25 6.80322C585.902 7.01514 585.642 7.30225 585.471 7.66455C585.307 8.02686 585.225 8.44043 585.225 8.90527C585.225 9.21973 585.28 9.50684 585.389 9.7666C585.499 10.0195 585.666 10.2554 585.892 10.4741C586.124 10.6929 586.411 10.8945 586.753 11.0791C587.102 11.2637 587.512 11.4414 587.983 11.6123C588.715 11.8516 589.34 12.1182 589.86 12.4121C590.379 12.7061 590.803 13.0376 591.131 13.4067C591.459 13.769 591.699 14.1826 591.849 14.6475C592.006 15.1055 592.085 15.625 592.085 16.2061C592.085 16.8145 591.982 17.3647 591.777 17.8569C591.579 18.3491 591.289 18.7695 590.906 19.1182C590.523 19.4668 590.062 19.7368 589.521 19.9282C588.981 20.1128 588.373 20.2051 587.696 20.2051C587.108 20.2051 586.531 20.1094 585.963 19.918C585.403 19.7266 584.894 19.4395 584.436 19.0566C583.978 18.6738 583.612 18.2021 583.338 17.6416C583.065 17.0742 582.928 16.418 582.928 15.6729H584.815C584.815 16.1855 584.89 16.6265 585.041 16.9956C585.191 17.3579 585.399 17.6587 585.666 17.8979C585.933 18.1372 586.237 18.3149 586.579 18.4312C586.927 18.5405 587.3 18.5952 587.696 18.5952C588.243 18.5952 588.701 18.4995 589.07 18.3081C589.446 18.1167 589.727 17.8433 589.911 17.4878C590.103 17.1323 590.198 16.7119 590.198 16.2266ZM602.795 18.3901V20H596.314V18.3901H602.795ZM596.653 5.07031V20H594.766V5.07031H596.653ZM601.923 11.4893V13.0991H596.314V11.4893H601.923ZM602.692 5.07031V6.69043H596.314V5.07031H602.692ZM615.176 5.07031V20H613.279L607.301 8.48486V20H605.415V5.07031H607.301L613.31 16.6162V5.07031H615.176ZM626.122 15.2524H628.009C627.961 16.2778 627.753 17.1631 627.383 17.9082C627.021 18.6465 626.491 19.2139 625.794 19.6104C625.104 20.0068 624.239 20.2051 623.2 20.2051C622.455 20.2051 621.781 20.0581 621.18 19.7642C620.578 19.4702 620.062 19.0498 619.631 18.5029C619.208 17.9492 618.883 17.2861 618.657 16.5137C618.432 15.7412 618.319 14.873 618.319 13.9092V11.1509C618.319 10.1938 618.432 9.3291 618.657 8.55664C618.89 7.78418 619.221 7.12451 619.652 6.57764C620.089 6.02393 620.619 5.6001 621.241 5.30615C621.87 5.01221 622.581 4.86523 623.374 4.86523C624.345 4.86523 625.165 5.06006 625.835 5.44971C626.512 5.83252 627.031 6.39648 627.394 7.1416C627.763 7.87988 627.968 8.78564 628.009 9.85889H626.122C626.074 9.07275 625.951 8.43359 625.753 7.94141C625.555 7.44238 625.261 7.07666 624.871 6.84424C624.488 6.60498 623.989 6.48535 623.374 6.48535C622.827 6.48535 622.352 6.59473 621.949 6.81348C621.552 7.03223 621.224 7.34668 620.964 7.75684C620.712 8.16016 620.52 8.64893 620.39 9.22314C620.267 9.79053 620.206 10.4263 620.206 11.1304V13.9092C620.206 14.5654 620.257 15.1772 620.359 15.7446C620.469 16.312 620.64 16.811 620.872 17.2417C621.111 17.6655 621.422 17.9971 621.805 18.2363C622.188 18.4756 622.653 18.5952 623.2 18.5952C623.89 18.5952 624.437 18.4824 624.84 18.2568C625.244 18.0312 625.541 17.6724 625.733 17.1802C625.931 16.688 626.061 16.0454 626.122 15.2524ZM632.741 5.07031V20H630.854V5.07031H632.741ZM641.257 6.39307L637.176 20H635.248L640.057 5.07031H641.267L641.257 6.39307ZM644.558 20L640.477 6.39307L640.457 5.07031H641.677L646.486 20H644.558ZM644.558 14.4731V16.0933H637.36V14.4731H644.558ZM656.489 18.3901V20H650.295V18.3901H656.489ZM650.634 5.07031V20H648.747V5.07031H650.634ZM658.811 18.9951C658.811 18.6738 658.91 18.4038 659.108 18.1851C659.313 17.9595 659.607 17.8467 659.99 17.8467C660.373 17.8467 660.663 17.9595 660.862 18.1851C661.067 18.4038 661.169 18.6738 661.169 18.9951C661.169 19.3096 661.067 19.5762 660.862 19.7949C660.663 20.0137 660.373 20.123 659.99 20.123C659.607 20.123 659.313 20.0137 659.108 19.7949C658.91 19.5762 658.811 19.3096 658.811 18.9951Z" fill="black"/>
<path d="M283.453 5.07031H285.72L289.155 16.1753L292.579 5.07031H294.681L290.088 20H288.211L283.453 5.07031ZM282.602 5.07031H284.694L285.033 14.5757V20H282.602V5.07031ZM293.595 5.07031H295.697V20H293.266V14.5757L293.595 5.07031ZM304.038 7.12109L300.429 20H297.824L302.561 5.07031H304.182L304.038 7.12109ZM306.919 20L303.3 7.12109L303.125 5.07031H304.776L309.534 20H306.919ZM306.981 14.4526V16.5444H300.029V14.4526H306.981ZM314.04 5.07031V20H311.549V5.07031H314.04ZM323.551 16.1445C323.551 15.8369 323.517 15.5635 323.448 15.3242C323.387 15.0781 323.267 14.856 323.089 14.6577C322.912 14.4595 322.659 14.2646 322.331 14.0732C322.009 13.8818 321.592 13.687 321.08 13.4888C320.492 13.2632 319.941 13.0171 319.429 12.7505C318.923 12.4771 318.475 12.1694 318.085 11.8276C317.703 11.479 317.402 11.0723 317.183 10.6074C316.964 10.1426 316.855 9.60254 316.855 8.9873C316.855 8.37891 316.961 7.8252 317.173 7.32617C317.392 6.82031 317.699 6.38623 318.096 6.02393C318.499 5.65479 318.978 5.37109 319.531 5.17285C320.085 4.96777 320.697 4.86523 321.367 4.86523C322.331 4.86523 323.154 5.07031 323.838 5.48047C324.528 5.89062 325.055 6.44092 325.417 7.13135C325.786 7.82178 325.971 8.5874 325.971 9.42822H323.489C323.489 8.94287 323.414 8.51221 323.264 8.13623C323.113 7.76025 322.881 7.46631 322.566 7.25439C322.252 7.04248 321.845 6.93652 321.346 6.93652C320.888 6.93652 320.509 7.02539 320.208 7.20312C319.914 7.38086 319.695 7.62354 319.552 7.93115C319.415 8.23877 319.347 8.59082 319.347 8.9873C319.347 9.26074 319.405 9.51025 319.521 9.73584C319.637 9.95459 319.805 10.1562 320.023 10.3408C320.242 10.5254 320.509 10.6997 320.823 10.8638C321.138 11.0278 321.5 11.1851 321.91 11.3354C322.607 11.5884 323.216 11.8687 323.735 12.1763C324.255 12.4839 324.682 12.8291 325.017 13.2119C325.359 13.5879 325.612 14.0151 325.776 14.4937C325.947 14.9722 326.032 15.5156 326.032 16.124C326.032 16.7393 325.926 17.2998 325.714 17.8057C325.509 18.3047 325.208 18.7319 324.812 19.0874C324.415 19.4429 323.937 19.7197 323.376 19.918C322.816 20.1094 322.187 20.2051 321.49 20.2051C320.847 20.2051 320.228 20.1094 319.634 19.918C319.046 19.7266 318.52 19.436 318.055 19.0464C317.59 18.6499 317.221 18.1543 316.947 17.5596C316.681 16.9648 316.547 16.2676 316.547 15.4678H319.039C319.039 15.9463 319.097 16.3564 319.213 16.6982C319.33 17.0332 319.497 17.3101 319.716 17.5288C319.941 17.7407 320.205 17.8979 320.505 18.0005C320.813 18.0962 321.155 18.144 321.531 18.144C321.996 18.144 322.375 18.062 322.669 17.8979C322.97 17.7271 323.192 17.4912 323.335 17.1904C323.479 16.8896 323.551 16.541 323.551 16.1445ZM343.299 12.3403V18.2261C343.115 18.4517 342.835 18.7217 342.459 19.0361C342.089 19.3438 341.59 19.6172 340.961 19.8564C340.339 20.0889 339.553 20.2051 338.603 20.2051C337.803 20.2051 337.072 20.0752 336.409 19.8154C335.752 19.5557 335.189 19.1626 334.717 18.6362C334.245 18.1099 333.883 17.4536 333.63 16.6675C333.377 15.8745 333.251 14.938 333.251 13.8579V11.2021C333.251 10.1357 333.363 9.20605 333.589 8.41309C333.821 7.62012 334.16 6.96045 334.604 6.43408C335.048 5.90088 335.588 5.50781 336.224 5.25488C336.86 4.99512 337.591 4.86523 338.418 4.86523C339.464 4.86523 340.336 5.0498 341.033 5.41895C341.737 5.78125 342.274 6.32129 342.643 7.03906C343.019 7.75 343.238 8.61816 343.299 9.64355H340.869C340.814 9.01465 340.695 8.50537 340.51 8.11572C340.333 7.71924 340.076 7.42529 339.741 7.23389C339.406 7.04248 338.976 6.94678 338.449 6.94678C337.971 6.94678 337.561 7.02881 337.219 7.19287C336.877 7.35693 336.597 7.61328 336.378 7.96191C336.159 8.30371 335.999 8.74121 335.896 9.27441C335.793 9.80762 335.742 10.4434 335.742 11.1816V13.8579C335.742 14.6099 335.807 15.2559 335.937 15.7959C336.067 16.3359 336.255 16.7803 336.501 17.1289C336.754 17.4707 337.065 17.7236 337.434 17.8877C337.803 18.0449 338.224 18.1235 338.695 18.1235C339.16 18.1235 339.529 18.0757 339.803 17.98C340.076 17.8843 340.288 17.7783 340.439 17.6621C340.596 17.5391 340.722 17.4434 340.818 17.375V14.2988H338.408V12.3403H343.299ZM351.231 7.12109L347.621 20H345.017L349.754 5.07031H351.374L351.231 7.12109ZM354.112 20L350.492 7.12109L350.318 5.07031H351.969L356.727 20H354.112ZM354.173 14.4526V16.5444H347.221V14.4526H354.173ZM365.058 16.1445C365.058 15.8369 365.024 15.5635 364.955 15.3242C364.894 15.0781 364.774 14.856 364.596 14.6577C364.419 14.4595 364.166 14.2646 363.838 14.0732C363.516 13.8818 363.099 13.687 362.587 13.4888C361.999 13.2632 361.448 13.0171 360.936 12.7505C360.43 12.4771 359.982 12.1694 359.592 11.8276C359.21 11.479 358.909 11.0723 358.69 10.6074C358.471 10.1426 358.362 9.60254 358.362 8.9873C358.362 8.37891 358.468 7.8252 358.68 7.32617C358.899 6.82031 359.206 6.38623 359.603 6.02393C360.006 5.65479 360.484 5.37109 361.038 5.17285C361.592 4.96777 362.204 4.86523 362.874 4.86523C363.838 4.86523 364.661 5.07031 365.345 5.48047C366.035 5.89062 366.562 6.44092 366.924 7.13135C367.293 7.82178 367.478 8.5874 367.478 9.42822H364.996C364.996 8.94287 364.921 8.51221 364.771 8.13623C364.62 7.76025 364.388 7.46631 364.073 7.25439C363.759 7.04248 363.352 6.93652 362.853 6.93652C362.395 6.93652 362.016 7.02539 361.715 7.20312C361.421 7.38086 361.202 7.62354 361.059 7.93115C360.922 8.23877 360.854 8.59082 360.854 8.9873C360.854 9.26074 360.912 9.51025 361.028 9.73584C361.144 9.95459 361.312 10.1562 361.53 10.3408C361.749 10.5254 362.016 10.6997 362.33 10.8638C362.645 11.0278 363.007 11.1851 363.417 11.3354C364.114 11.5884 364.723 11.8687 365.242 12.1763C365.762 12.4839 366.189 12.8291 366.524 13.2119C366.866 13.5879 367.119 14.0151 367.283 14.4937C367.454 14.9722 367.539 15.5156 367.539 16.124C367.539 16.7393 367.433 17.2998 367.221 17.8057C367.016 18.3047 366.715 18.7319 366.319 19.0874C365.922 19.4429 365.444 19.7197 364.883 19.918C364.323 20.1094 363.694 20.2051 362.997 20.2051C362.354 20.2051 361.735 20.1094 361.141 19.918C360.553 19.7266 360.026 19.436 359.562 19.0464C359.097 18.6499 358.728 18.1543 358.454 17.5596C358.188 16.9648 358.054 16.2676 358.054 15.4678H360.546C360.546 15.9463 360.604 16.3564 360.72 16.6982C360.837 17.0332 361.004 17.3101 361.223 17.5288C361.448 17.7407 361.712 17.8979 362.012 18.0005C362.32 18.0962 362.662 18.144 363.038 18.144C363.503 18.144 363.882 18.062 364.176 17.8979C364.477 17.7271 364.699 17.4912 364.842 17.1904C364.986 16.8896 365.058 16.541 365.058 16.1445ZM375.409 5.07031V20H372.927V5.07031H375.409ZM379.213 5.07031V7.16211H369.164V5.07031H379.213ZM391.236 11.3149V13.8579C391.236 14.9106 391.112 15.8335 390.866 16.6265C390.627 17.4194 390.279 18.0825 389.82 18.6157C389.369 19.1421 388.822 19.5386 388.18 19.8052C387.544 20.0718 386.833 20.2051 386.047 20.2051C385.268 20.2051 384.557 20.0718 383.914 19.8052C383.279 19.5386 382.728 19.1421 382.263 18.6157C381.805 18.0825 381.45 17.4194 381.197 16.6265C380.951 15.8335 380.828 14.9106 380.828 13.8579V11.3149C380.828 10.2485 380.951 9.31543 381.197 8.51562C381.443 7.70898 381.795 7.03564 382.253 6.49561C382.718 5.95557 383.268 5.54883 383.904 5.27539C384.547 5.00195 385.254 4.86523 386.027 4.86523C386.813 4.86523 387.524 5.00195 388.159 5.27539C388.802 5.54883 389.352 5.95557 389.81 6.49561C390.268 7.03564 390.62 7.70898 390.866 8.51562C391.112 9.31543 391.236 10.2485 391.236 11.3149ZM388.764 13.8579V11.2944C388.764 10.5356 388.703 9.88623 388.58 9.34619C388.464 8.79932 388.289 8.35498 388.057 8.01318C387.824 7.66455 387.537 7.4082 387.195 7.24414C386.861 7.07324 386.471 6.98779 386.027 6.98779C385.596 6.98779 385.21 7.07324 384.868 7.24414C384.533 7.4082 384.246 7.66455 384.007 8.01318C383.774 8.35498 383.596 8.79932 383.473 9.34619C383.357 9.88623 383.299 10.5356 383.299 11.2944V13.8579C383.299 14.603 383.361 15.2456 383.484 15.7856C383.607 16.3188 383.784 16.7563 384.017 17.0981C384.256 17.4331 384.547 17.6826 384.888 17.8467C385.23 18.0107 385.616 18.0928 386.047 18.0928C386.485 18.0928 386.874 18.0107 387.216 17.8467C387.558 17.6826 387.841 17.4331 388.067 17.0981C388.299 16.7563 388.474 16.3188 388.59 15.7856C388.706 15.2456 388.764 14.603 388.764 13.8579ZM400.818 5.07031H403.309V15.437C403.309 16.5786 403.094 17.498 402.663 18.1953C402.24 18.8926 401.665 19.4019 400.941 19.7231C400.223 20.0444 399.423 20.2051 398.541 20.2051C397.625 20.2051 396.808 20.0444 396.091 19.7231C395.373 19.4019 394.809 18.8926 394.399 18.1953C393.989 17.498 393.783 16.5786 393.783 15.437V5.07031H396.265V15.437C396.265 16.1479 396.354 16.6982 396.531 17.0879C396.716 17.4775 396.976 17.7476 397.311 17.8979C397.653 18.0483 398.063 18.1235 398.541 18.1235C399.02 18.1235 399.427 18.0483 399.761 17.8979C400.103 17.7476 400.363 17.4775 400.541 17.0879C400.725 16.6982 400.818 16.1479 400.818 15.437V5.07031Z" fill="#FF6F61"/>
</svg>
