<svg width="315" height="298" viewBox="0 0 315 298" fill="none" xmlns="http://www.w3.org/2000/svg">
<rect y="258" width="315" height="40" rx="10" fill="#FF6F61"/>
<path d="M64.2588 283.39V285H57.7783V283.39H64.2588ZM58.1167 270.07V285H56.23V270.07H58.1167ZM63.3872 276.489V278.099H57.7783V276.489H63.3872ZM64.1562 270.07V271.69H57.7783V270.07H64.1562ZM76.4302 270.07V285H74.5332L68.5552 273.485V285H66.6685V270.07H68.5552L74.564 281.616V270.07H76.4302ZM83.7925 282.734L87.3813 270.07H89.4321L84.7974 285H83.3516L83.7925 282.734ZM80.5728 270.07L84.1309 282.734L84.6025 285H83.1567L78.522 270.07H80.5728ZM93.4312 270.07V285H91.5444V270.07H93.4312ZM104.741 283.39V285H98.2607V283.39H104.741ZM98.5991 270.07V285H96.7124V270.07H98.5991ZM103.87 276.489V278.099H98.2607V276.489H103.87ZM104.639 270.07V271.69H98.2607V270.07H104.639ZM119.999 283.39V285H113.519V283.39H119.999ZM113.857 270.07V285H111.97V270.07H113.857ZM119.127 276.489V278.099H113.519V276.489H119.127ZM119.896 270.07V271.69H113.519V270.07H119.896ZM131.33 282.734L134.918 270.07H136.969L132.334 285H130.889L131.33 282.734ZM128.11 270.07L131.668 282.734L132.14 285H130.694L126.059 270.07H128.11ZM147.028 283.39V285H140.548V283.39H147.028ZM140.886 270.07V285H139V270.07H140.886ZM146.157 276.489V278.099H140.548V276.489H146.157ZM146.926 270.07V271.69H140.548V270.07H146.926ZM154.596 280.642V270.07H156.472V280.642C156.472 281.626 156.301 282.457 155.959 283.134C155.618 283.811 155.143 284.327 154.534 284.682C153.933 285.031 153.239 285.205 152.453 285.205C151.68 285.205 150.99 285.048 150.381 284.733C149.773 284.419 149.294 283.94 148.946 283.298C148.604 282.655 148.433 281.845 148.433 280.868H150.32C150.32 281.497 150.412 282.013 150.597 282.416C150.788 282.819 151.044 283.117 151.366 283.308C151.687 283.5 152.049 283.595 152.453 283.595C152.863 283.595 153.229 283.486 153.55 283.267C153.871 283.042 154.124 282.71 154.309 282.272C154.5 281.828 154.596 281.285 154.596 280.642ZM164.204 271.393L160.123 285H158.195L163.004 270.07H164.214L164.204 271.393ZM167.505 285L163.424 271.393L163.404 270.07H164.624L169.433 285H167.505ZM167.505 279.473V281.093H160.307V279.473H167.505ZM181.143 271.393L177.062 285H175.134L179.943 270.07H181.153L181.143 271.393ZM184.445 285L180.364 271.393L180.343 270.07H181.563L186.373 285H184.445ZM184.445 279.473V281.093H177.247V279.473H184.445ZM193.837 270.07H195.663L199.569 282.242L203.466 270.07H205.291L200.277 285H198.841L193.837 270.07ZM193.243 270.07H194.842L195.119 279.176V285H193.243V270.07ZM204.276 270.07H205.875V285H203.999V279.176L204.276 270.07ZM214.14 271.393L210.059 285H208.131L212.94 270.07H214.15L214.14 271.393ZM217.442 285L213.361 271.393L213.34 270.07H214.561L219.37 285H217.442ZM217.442 279.473V281.093H210.244V279.473H217.442ZM212.735 269.076L214.725 266.061H217.011L214.263 269.076H212.735ZM230.649 277.566V283.134C230.485 283.353 230.235 283.626 229.9 283.954C229.572 284.282 229.111 284.573 228.516 284.826C227.921 285.079 227.142 285.205 226.178 285.205C225.406 285.205 224.698 285.075 224.056 284.815C223.42 284.556 222.87 284.166 222.405 283.646C221.947 283.12 221.591 282.467 221.338 281.688C221.085 280.902 220.959 279.982 220.959 278.93V276.13C220.959 275.084 221.065 274.168 221.277 273.382C221.489 272.596 221.803 271.943 222.22 271.424C222.644 270.904 223.167 270.515 223.789 270.255C224.418 269.995 225.149 269.865 225.983 269.865C226.947 269.865 227.768 270.046 228.444 270.409C229.121 270.771 229.644 271.294 230.013 271.978C230.389 272.661 230.601 273.481 230.649 274.438H228.762C228.714 273.823 228.584 273.297 228.373 272.859C228.161 272.415 227.86 272.077 227.47 271.844C227.081 271.605 226.585 271.485 225.983 271.485C225.409 271.485 224.924 271.581 224.527 271.772C224.131 271.964 223.806 272.251 223.553 272.634C223.307 273.017 223.126 273.499 223.01 274.08C222.9 274.661 222.846 275.337 222.846 276.11V278.93C222.846 279.723 222.924 280.413 223.082 281.001C223.239 281.589 223.461 282.074 223.748 282.457C224.042 282.84 224.394 283.127 224.804 283.318C225.214 283.503 225.676 283.595 226.188 283.595C226.77 283.595 227.228 283.534 227.562 283.411C227.897 283.288 228.154 283.147 228.332 282.99C228.516 282.833 228.663 282.707 228.772 282.611V279.166H226.035V277.566H230.649ZM235.673 270.07V285H233.787V270.07H235.673ZM246.43 280.252H248.316C248.269 281.278 248.06 282.163 247.691 282.908C247.329 283.646 246.799 284.214 246.102 284.61C245.411 285.007 244.546 285.205 243.507 285.205C242.762 285.205 242.089 285.058 241.487 284.764C240.886 284.47 240.37 284.05 239.939 283.503C239.515 282.949 239.19 282.286 238.965 281.514C238.739 280.741 238.626 279.873 238.626 278.909V276.151C238.626 275.194 238.739 274.329 238.965 273.557C239.197 272.784 239.529 272.125 239.959 271.578C240.397 271.024 240.927 270.6 241.549 270.306C242.178 270.012 242.889 269.865 243.682 269.865C244.652 269.865 245.473 270.06 246.143 270.45C246.819 270.833 247.339 271.396 247.701 272.142C248.07 272.88 248.275 273.786 248.316 274.859H246.43C246.382 274.073 246.259 273.434 246.061 272.941C245.862 272.442 245.568 272.077 245.179 271.844C244.796 271.605 244.297 271.485 243.682 271.485C243.135 271.485 242.66 271.595 242.256 271.813C241.86 272.032 241.532 272.347 241.272 272.757C241.019 273.16 240.828 273.649 240.698 274.223C240.575 274.791 240.513 275.426 240.513 276.13V278.909C240.513 279.565 240.564 280.177 240.667 280.745C240.776 281.312 240.947 281.811 241.18 282.242C241.419 282.666 241.73 282.997 242.113 283.236C242.496 283.476 242.96 283.595 243.507 283.595C244.198 283.595 244.745 283.482 245.148 283.257C245.551 283.031 245.849 282.672 246.04 282.18C246.238 281.688 246.368 281.045 246.43 280.252ZM255.709 271.393L251.628 285H249.701L254.51 270.07H255.72L255.709 271.393ZM259.011 285L254.93 271.393L254.91 270.07H256.13L260.939 285H259.011ZM259.011 279.473V281.093H251.813V279.473H259.011Z" fill="white"/>
<rect y="188" width="315" height="40" rx="10" fill="#4A7BA4"/>
<path d="M63.9512 211.227C63.9512 210.878 63.9102 210.57 63.8281 210.304C63.7461 210.03 63.6025 209.784 63.3975 209.565C63.1924 209.347 62.9053 209.138 62.5361 208.94C62.167 208.742 61.6987 208.54 61.1313 208.335C60.5161 208.116 59.959 207.874 59.46 207.607C58.9609 207.333 58.5337 207.022 58.1782 206.674C57.8296 206.325 57.5596 205.925 57.3682 205.474C57.1768 205.023 57.0811 204.507 57.0811 203.926C57.0811 203.345 57.1802 202.808 57.3784 202.316C57.5835 201.824 57.8706 201.396 58.2397 201.034C58.6157 200.665 59.0669 200.378 59.5933 200.173C60.1196 199.968 60.7075 199.865 61.3569 199.865C62.3276 199.865 63.1445 200.081 63.8076 200.511C64.4775 200.935 64.9834 201.492 65.3252 202.183C65.667 202.866 65.8379 203.598 65.8379 204.377H63.9512C63.9512 203.816 63.8589 203.321 63.6743 202.89C63.4966 202.453 63.2163 202.111 62.8335 201.865C62.4575 201.612 61.9653 201.485 61.3569 201.485C60.8101 201.485 60.3589 201.591 60.0034 201.803C59.6548 202.015 59.395 202.302 59.2241 202.665C59.0601 203.027 58.978 203.44 58.978 203.905C58.978 204.22 59.0327 204.507 59.1421 204.767C59.2515 205.02 59.4189 205.255 59.6445 205.474C59.877 205.693 60.1641 205.895 60.5059 206.079C60.8545 206.264 61.2646 206.441 61.7363 206.612C62.4678 206.852 63.0933 207.118 63.6128 207.412C64.1323 207.706 64.5562 208.038 64.8843 208.407C65.2124 208.769 65.4517 209.183 65.6021 209.647C65.7593 210.105 65.8379 210.625 65.8379 211.206C65.8379 211.814 65.7354 212.365 65.5303 212.857C65.332 213.349 65.0415 213.77 64.6587 214.118C64.2759 214.467 63.8145 214.737 63.2744 214.928C62.7344 215.113 62.126 215.205 61.4492 215.205C60.8613 215.205 60.2837 215.109 59.7163 214.918C59.1558 214.727 58.6465 214.439 58.1885 214.057C57.7305 213.674 57.3647 213.202 57.0913 212.642C56.8179 212.074 56.6812 211.418 56.6812 210.673H58.5679C58.5679 211.186 58.6431 211.626 58.7935 211.996C58.9438 212.358 59.1523 212.659 59.4189 212.898C59.6855 213.137 59.9897 213.315 60.3315 213.431C60.6802 213.541 61.0527 213.595 61.4492 213.595C61.9961 213.595 62.4541 213.5 62.8232 213.308C63.1992 213.117 63.4795 212.843 63.6641 212.488C63.8555 212.132 63.9512 211.712 63.9512 211.227ZM76.3379 213.39V215H69.8574V213.39H76.3379ZM70.1958 200.07V215H68.3091V200.07H70.1958ZM75.4663 206.489V208.099H69.8574V206.489H75.4663ZM76.2354 200.07V201.69H69.8574V200.07H76.2354ZM86.4893 213.39V215H80.2959V213.39H86.4893ZM80.6343 200.07V215H78.7476V200.07H80.6343ZM96.7637 213.39V215H90.2832V213.39H96.7637ZM90.6216 200.07V215H88.7349V200.07H90.6216ZM95.8921 206.489V208.099H90.2832V206.489H95.8921ZM96.6611 200.07V201.69H90.2832V200.07H96.6611ZM106.648 210.252H108.535C108.487 211.278 108.279 212.163 107.91 212.908C107.547 213.646 107.018 214.214 106.32 214.61C105.63 215.007 104.765 215.205 103.726 215.205C102.981 215.205 102.308 215.058 101.706 214.764C101.104 214.47 100.588 214.05 100.158 213.503C99.7339 212.949 99.4092 212.286 99.1836 211.514C98.958 210.741 98.8452 209.873 98.8452 208.909V206.151C98.8452 205.194 98.958 204.329 99.1836 203.557C99.416 202.784 99.7476 202.125 100.178 201.578C100.616 201.024 101.146 200.6 101.768 200.306C102.396 200.012 103.107 199.865 103.9 199.865C104.871 199.865 105.691 200.06 106.361 200.45C107.038 200.833 107.558 201.396 107.92 202.142C108.289 202.88 108.494 203.786 108.535 204.859H106.648C106.601 204.073 106.478 203.434 106.279 202.941C106.081 202.442 105.787 202.077 105.397 201.844C105.015 201.605 104.516 201.485 103.9 201.485C103.354 201.485 102.878 201.595 102.475 201.813C102.079 202.032 101.75 202.347 101.491 202.757C101.238 203.16 101.046 203.649 100.917 204.223C100.793 204.791 100.732 205.426 100.732 206.13V208.909C100.732 209.565 100.783 210.177 100.886 210.745C100.995 211.312 101.166 211.811 101.398 212.242C101.638 212.666 101.949 212.997 102.332 213.236C102.714 213.476 103.179 213.595 103.726 213.595C104.417 213.595 104.963 213.482 105.367 213.257C105.77 213.031 106.067 212.672 106.259 212.18C106.457 211.688 106.587 211.045 106.648 210.252ZM113.057 200.07V215H111.17V200.07H113.057ZM126.049 206.243V208.837C126.049 209.89 125.933 210.816 125.7 211.616C125.475 212.409 125.143 213.072 124.706 213.605C124.268 214.139 123.742 214.539 123.126 214.805C122.511 215.072 121.817 215.205 121.045 215.205C120.3 215.205 119.62 215.072 119.004 214.805C118.389 214.539 117.859 214.139 117.415 213.605C116.971 213.072 116.625 212.409 116.379 211.616C116.14 210.816 116.021 209.89 116.021 208.837V206.243C116.021 205.19 116.14 204.268 116.379 203.475C116.619 202.675 116.96 202.008 117.405 201.475C117.849 200.942 118.379 200.542 118.994 200.275C119.609 200.002 120.29 199.865 121.035 199.865C121.807 199.865 122.501 200.002 123.116 200.275C123.738 200.542 124.265 200.942 124.695 201.475C125.133 202.008 125.468 202.675 125.7 203.475C125.933 204.268 126.049 205.19 126.049 206.243ZM124.183 208.837V206.223C124.183 205.402 124.114 204.698 123.978 204.11C123.841 203.516 123.639 203.03 123.373 202.654C123.106 202.278 122.778 202.001 122.388 201.824C121.999 201.639 121.547 201.547 121.035 201.547C120.549 201.547 120.112 201.639 119.722 201.824C119.339 202.001 119.011 202.278 118.738 202.654C118.464 203.03 118.252 203.516 118.102 204.11C117.958 204.698 117.887 205.402 117.887 206.223V208.837C117.887 209.665 117.958 210.375 118.102 210.97C118.252 211.558 118.464 212.043 118.738 212.426C119.018 212.802 119.353 213.083 119.743 213.267C120.132 213.445 120.566 213.534 121.045 213.534C121.558 213.534 122.009 213.445 122.398 213.267C122.795 213.083 123.123 212.802 123.383 212.426C123.649 212.043 123.848 211.558 123.978 210.97C124.114 210.375 124.183 209.665 124.183 208.837ZM138.733 200.07V215H136.836L130.858 203.485V215H128.971V200.07H130.858L136.867 211.616V200.07H138.733ZM150.022 213.39V215H143.542V213.39H150.022ZM143.88 200.07V215H141.994V200.07H143.88ZM149.151 206.489V208.099H143.542V206.489H149.151ZM149.92 200.07V201.69H143.542V200.07H149.92ZM163.783 211.227C163.783 210.878 163.742 210.57 163.66 210.304C163.578 210.03 163.435 209.784 163.229 209.565C163.024 209.347 162.737 209.138 162.368 208.94C161.999 208.742 161.531 208.54 160.963 208.335C160.348 208.116 159.791 207.874 159.292 207.607C158.793 207.333 158.366 207.022 158.01 206.674C157.662 206.325 157.392 205.925 157.2 205.474C157.009 205.023 156.913 204.507 156.913 203.926C156.913 203.345 157.012 202.808 157.21 202.316C157.416 201.824 157.703 201.396 158.072 201.034C158.448 200.665 158.899 200.378 159.425 200.173C159.952 199.968 160.54 199.865 161.189 199.865C162.16 199.865 162.977 200.081 163.64 200.511C164.31 200.935 164.815 201.492 165.157 202.183C165.499 202.866 165.67 203.598 165.67 204.377H163.783C163.783 203.816 163.691 203.321 163.506 202.89C163.329 202.453 163.048 202.111 162.666 201.865C162.29 201.612 161.797 201.485 161.189 201.485C160.642 201.485 160.191 201.591 159.835 201.803C159.487 202.015 159.227 202.302 159.056 202.665C158.892 203.027 158.81 203.44 158.81 203.905C158.81 204.22 158.865 204.507 158.974 204.767C159.083 205.02 159.251 205.255 159.477 205.474C159.709 205.693 159.996 205.895 160.338 206.079C160.687 206.264 161.097 206.441 161.568 206.612C162.3 206.852 162.925 207.118 163.445 207.412C163.964 207.706 164.388 208.038 164.716 208.407C165.044 208.769 165.284 209.183 165.434 209.647C165.591 210.105 165.67 210.625 165.67 211.206C165.67 211.814 165.567 212.365 165.362 212.857C165.164 213.349 164.874 213.77 164.491 214.118C164.108 214.467 163.646 214.737 163.106 214.928C162.566 215.113 161.958 215.205 161.281 215.205C160.693 215.205 160.116 215.109 159.548 214.918C158.988 214.727 158.479 214.439 158.021 214.057C157.562 213.674 157.197 213.202 156.923 212.642C156.65 212.074 156.513 211.418 156.513 210.673H158.4C158.4 211.186 158.475 211.626 158.625 211.996C158.776 212.358 158.984 212.659 159.251 212.898C159.518 213.137 159.822 213.315 160.164 213.431C160.512 213.541 160.885 213.595 161.281 213.595C161.828 213.595 162.286 213.5 162.655 213.308C163.031 213.117 163.312 212.843 163.496 212.488C163.688 212.132 163.783 211.712 163.783 211.227ZM175.165 200.07H177.052V210.581C177.052 211.702 176.836 212.601 176.406 213.277C175.975 213.954 175.408 214.446 174.704 214.754C174.006 215.055 173.254 215.205 172.448 215.205C171.586 215.205 170.811 215.055 170.12 214.754C169.43 214.446 168.879 213.954 168.469 213.277C168.066 212.601 167.864 211.702 167.864 210.581V200.07H169.741V210.581C169.741 211.36 169.85 211.968 170.069 212.406C170.294 212.843 170.609 213.151 171.012 213.329C171.422 213.506 171.901 213.595 172.448 213.595C173.001 213.595 173.48 213.506 173.883 213.329C174.293 213.151 174.608 212.843 174.827 212.406C175.052 211.968 175.165 211.36 175.165 210.581V200.07ZM184.547 201.393L180.466 215H178.539L183.348 200.07H184.558L184.547 201.393ZM187.849 215L183.768 201.393L183.748 200.07H184.968L189.777 215H187.849ZM187.849 209.473V211.093H180.651V209.473H187.849ZM198.534 200.07V215H196.647V200.07H198.534ZM203.568 206.787V208.407H198.175V206.787H203.568ZM204.419 200.07V201.69H198.175V200.07H204.419ZM209.854 201.393L205.773 215H203.845L208.654 200.07H209.864L209.854 201.393ZM213.156 215L209.075 201.393L209.054 200.07H210.274L215.083 215H213.156ZM213.156 209.473V211.093H205.958V209.473H213.156ZM220.6 200.07V215H218.734V200.07H220.6ZM224.527 200.07V201.69H214.817V200.07H224.527ZM233.756 200.07H235.643V210.581C235.643 211.702 235.427 212.601 234.997 213.277C234.566 213.954 233.999 214.446 233.294 214.754C232.597 215.055 231.845 215.205 231.039 215.205C230.177 215.205 229.401 215.055 228.711 214.754C228.021 214.446 227.47 213.954 227.06 213.277C226.657 212.601 226.455 211.702 226.455 210.581V200.07H228.332V210.581C228.332 211.36 228.441 211.968 228.66 212.406C228.885 212.843 229.2 213.151 229.603 213.329C230.013 213.506 230.492 213.595 231.039 213.595C231.592 213.595 232.071 213.506 232.474 213.329C232.884 213.151 233.199 212.843 233.417 212.406C233.643 211.968 233.756 211.36 233.756 210.581V200.07ZM238.534 200.07H242.708C243.678 200.07 244.492 200.241 245.148 200.583C245.811 200.925 246.31 201.431 246.645 202.101C246.987 202.764 247.158 203.581 247.158 204.551C247.158 205.235 247.045 205.86 246.819 206.428C246.594 206.988 246.266 207.467 245.835 207.863C245.404 208.253 244.881 208.543 244.266 208.735L243.753 208.95H240.031L240.011 207.34H242.687C243.261 207.34 243.74 207.217 244.123 206.971C244.505 206.718 244.792 206.38 244.984 205.956C245.175 205.532 245.271 205.064 245.271 204.551C245.271 203.977 245.186 203.475 245.015 203.044C244.844 202.613 244.57 202.282 244.194 202.049C243.825 201.81 243.33 201.69 242.708 201.69H240.421V215H238.534V200.07ZM245.702 215L242.728 208.232L244.687 208.222L247.722 214.877V215H245.702ZM254.52 201.393L250.439 215H248.511L253.32 200.07H254.53L254.52 201.393ZM257.822 215L253.741 201.393L253.72 200.07H254.94L259.75 215H257.822ZM257.822 209.473V211.093H250.624V209.473H257.822Z" fill="white"/>
<rect y="118" width="315" height="40" rx="10" fill="#00ACBE"/>
<path d="M22.6587 139.252H24.5454C24.4976 140.278 24.2891 141.163 23.9199 141.908C23.5576 142.646 23.0278 143.214 22.3306 143.61C21.6401 144.007 20.7754 144.205 19.7363 144.205C18.9912 144.205 18.3179 144.058 17.7163 143.764C17.1147 143.47 16.5986 143.05 16.168 142.503C15.7441 141.949 15.4194 141.286 15.1938 140.514C14.9683 139.741 14.8555 138.873 14.8555 137.909V135.151C14.8555 134.194 14.9683 133.329 15.1938 132.557C15.4263 131.784 15.7578 131.125 16.1885 130.578C16.626 130.024 17.1558 129.6 17.7778 129.306C18.4067 129.012 19.1177 128.865 19.9106 128.865C20.8813 128.865 21.7017 129.06 22.3716 129.45C23.0483 129.833 23.5679 130.396 23.9302 131.142C24.2993 131.88 24.5044 132.786 24.5454 133.859H22.6587C22.6108 133.073 22.4878 132.434 22.2896 131.941C22.0913 131.442 21.7974 131.077 21.4077 130.844C21.0249 130.605 20.5259 130.485 19.9106 130.485C19.3638 130.485 18.8887 130.595 18.4854 130.813C18.0889 131.032 17.7607 131.347 17.501 131.757C17.248 132.16 17.0566 132.649 16.9268 133.223C16.8037 133.791 16.7422 134.426 16.7422 135.13V137.909C16.7422 138.565 16.7935 139.177 16.896 139.745C17.0054 140.312 17.1763 140.811 17.4087 141.242C17.6479 141.666 17.959 141.997 18.3418 142.236C18.7246 142.476 19.1895 142.595 19.7363 142.595C20.4268 142.595 20.9736 142.482 21.377 142.257C21.7803 142.031 22.0776 141.672 22.269 141.18C22.4673 140.688 22.5972 140.045 22.6587 139.252ZM34.8403 142.39V144H28.647V142.39H34.8403ZM28.9854 129.07V144H27.0986V129.07H28.9854ZM39.0547 129.07V144H37.168V129.07H39.0547ZM48.8574 142.288L52.1694 145.292L50.8877 146.522L47.6475 143.559L48.8574 142.288ZM51.9644 135.243V137.827C51.9644 138.887 51.8481 139.816 51.6157 140.616C51.3901 141.409 51.0586 142.072 50.6211 142.605C50.1836 143.139 49.6538 143.539 49.0317 143.805C48.4165 144.072 47.7227 144.205 46.9502 144.205C46.2051 144.205 45.5249 144.072 44.9097 143.805C44.2944 143.539 43.7646 143.139 43.3203 142.605C42.876 142.072 42.5308 141.409 42.2847 140.616C42.0454 139.816 41.9258 138.887 41.9258 137.827V135.243C41.9258 134.184 42.0454 133.257 42.2847 132.464C42.5239 131.671 42.8657 131.008 43.3101 130.475C43.7544 129.935 44.2842 129.532 44.8994 129.265C45.5146 128.999 46.1948 128.865 46.9399 128.865C47.7124 128.865 48.4062 128.999 49.0215 129.265C49.6436 129.532 50.1733 129.935 50.6108 130.475C51.0483 131.008 51.3833 131.671 51.6157 132.464C51.8481 133.257 51.9644 134.184 51.9644 135.243ZM50.0981 137.827V135.223C50.0981 134.402 50.0298 133.698 49.8931 133.11C49.7563 132.516 49.5513 132.03 49.2778 131.654C49.0112 131.278 48.6831 131.001 48.2935 130.824C47.9038 130.639 47.4526 130.547 46.9399 130.547C46.4614 130.547 46.0273 130.639 45.6377 130.824C45.2549 131.001 44.9268 131.278 44.6533 131.654C44.3799 132.03 44.168 132.516 44.0176 133.11C43.874 133.698 43.8022 134.402 43.8022 135.223V137.827C43.8022 138.654 43.874 139.365 44.0176 139.96C44.168 140.555 44.3799 141.043 44.6533 141.426C44.9336 141.802 45.2651 142.083 45.6479 142.267C46.0376 142.445 46.4717 142.534 46.9502 142.534C47.4629 142.534 47.9141 142.445 48.3037 142.267C48.7002 142.083 49.0317 141.802 49.2983 141.426C49.5649 141.043 49.7632 140.555 49.8931 139.96C50.0298 139.365 50.0981 138.654 50.0981 137.827ZM61.9927 129.07H63.8794V139.581C63.8794 140.702 63.6641 141.601 63.2334 142.277C62.8027 142.954 62.2354 143.446 61.5312 143.754C60.834 144.055 60.082 144.205 59.2754 144.205C58.4141 144.205 57.6382 144.055 56.9478 143.754C56.2573 143.446 55.707 142.954 55.2969 142.277C54.8936 141.601 54.6919 140.702 54.6919 139.581V129.07H56.5684V139.581C56.5684 140.36 56.6777 140.968 56.8965 141.406C57.1221 141.843 57.4365 142.151 57.8398 142.329C58.25 142.506 58.7285 142.595 59.2754 142.595C59.8291 142.595 60.3076 142.506 60.7109 142.329C61.1211 142.151 61.4355 141.843 61.6543 141.406C61.8799 140.968 61.9927 140.36 61.9927 139.581V129.07ZM74.7896 142.39V144H68.3091V142.39H74.7896ZM68.6475 129.07V144H66.7607V129.07H68.6475ZM73.918 135.489V137.099H68.3091V135.489H73.918ZM74.687 129.07V130.69H68.3091V129.07H74.687ZM90.0474 142.39V144H83.5669V142.39H90.0474ZM83.9053 129.07V144H82.0186V129.07H83.9053ZM89.1758 135.489V137.099H83.5669V135.489H89.1758ZM89.9448 129.07V130.69H83.5669V129.07H89.9448ZM93.0518 129.07H94.877L98.7837 141.242L102.68 129.07H104.505L99.4912 144H98.0557L93.0518 129.07ZM92.457 129.07H94.0566L94.3335 138.176V144H92.457V129.07ZM103.49 129.07H105.09V144H103.213V138.176L103.49 129.07ZM112.657 132.998V131.757C112.657 131.34 112.719 130.906 112.842 130.455C112.972 129.997 113.156 129.559 113.396 129.142C113.642 128.718 113.936 128.353 114.277 128.045L115.292 128.793C115.019 129.245 114.811 129.709 114.667 130.188C114.523 130.66 114.452 131.172 114.452 131.726V132.998H112.657ZM115.58 132.998V131.757C115.58 131.34 115.641 130.906 115.764 130.455C115.894 129.997 116.079 129.559 116.318 129.142C116.564 128.718 116.858 128.353 117.2 128.045L118.215 128.793C117.941 129.245 117.733 129.709 117.589 130.188C117.446 130.66 117.374 131.172 117.374 131.726V132.998H115.58ZM126.695 140.227C126.695 139.878 126.654 139.57 126.572 139.304C126.49 139.03 126.346 138.784 126.141 138.565C125.936 138.347 125.649 138.138 125.28 137.94C124.911 137.742 124.442 137.54 123.875 137.335C123.26 137.116 122.703 136.874 122.204 136.607C121.705 136.333 121.277 136.022 120.922 135.674C120.573 135.325 120.303 134.925 120.112 134.474C119.92 134.023 119.825 133.507 119.825 132.926C119.825 132.345 119.924 131.808 120.122 131.316C120.327 130.824 120.614 130.396 120.983 130.034C121.359 129.665 121.811 129.378 122.337 129.173C122.863 128.968 123.451 128.865 124.101 128.865C125.071 128.865 125.888 129.081 126.551 129.511C127.221 129.935 127.727 130.492 128.069 131.183C128.411 131.866 128.582 132.598 128.582 133.377H126.695C126.695 132.816 126.603 132.321 126.418 131.89C126.24 131.453 125.96 131.111 125.577 130.865C125.201 130.612 124.709 130.485 124.101 130.485C123.554 130.485 123.103 130.591 122.747 130.803C122.398 131.015 122.139 131.302 121.968 131.665C121.804 132.027 121.722 132.44 121.722 132.905C121.722 133.22 121.776 133.507 121.886 133.767C121.995 134.02 122.163 134.255 122.388 134.474C122.621 134.693 122.908 134.895 123.25 135.079C123.598 135.264 124.008 135.441 124.48 135.612C125.211 135.852 125.837 136.118 126.356 136.412C126.876 136.706 127.3 137.038 127.628 137.407C127.956 137.769 128.195 138.183 128.346 138.647C128.503 139.105 128.582 139.625 128.582 140.206C128.582 140.814 128.479 141.365 128.274 141.857C128.076 142.349 127.785 142.77 127.402 143.118C127.02 143.467 126.558 143.737 126.018 143.928C125.478 144.113 124.87 144.205 124.193 144.205C123.605 144.205 123.027 144.109 122.46 143.918C121.899 143.727 121.39 143.439 120.932 143.057C120.474 142.674 120.108 142.202 119.835 141.642C119.562 141.074 119.425 140.418 119.425 139.673H121.312C121.312 140.186 121.387 140.626 121.537 140.996C121.688 141.358 121.896 141.659 122.163 141.898C122.429 142.137 122.733 142.315 123.075 142.431C123.424 142.541 123.796 142.595 124.193 142.595C124.74 142.595 125.198 142.5 125.567 142.308C125.943 142.117 126.223 141.843 126.408 141.488C126.599 141.132 126.695 140.712 126.695 140.227ZM139.082 142.39V144H132.601V142.39H139.082ZM132.939 129.07V144H131.053V129.07H132.939ZM138.21 135.489V137.099H132.601V135.489H138.21ZM138.979 129.07V130.69H132.601V129.07H138.979ZM149.233 142.39V144H143.04V142.39H149.233ZM143.378 129.07V144H141.491V129.07H143.378ZM159.507 142.39V144H153.027V142.39H159.507ZM153.365 129.07V144H151.479V129.07H153.365ZM158.636 135.489V137.099H153.027V135.489H158.636ZM159.405 129.07V130.69H153.027V129.07H159.405ZM169.392 139.252H171.279C171.231 140.278 171.022 141.163 170.653 141.908C170.291 142.646 169.761 143.214 169.064 143.61C168.374 144.007 167.509 144.205 166.47 144.205C165.725 144.205 165.051 144.058 164.45 143.764C163.848 143.47 163.332 143.05 162.901 142.503C162.478 141.949 162.153 141.286 161.927 140.514C161.702 139.741 161.589 138.873 161.589 137.909V135.151C161.589 134.194 161.702 133.329 161.927 132.557C162.16 131.784 162.491 131.125 162.922 130.578C163.359 130.024 163.889 129.6 164.511 129.306C165.14 129.012 165.851 128.865 166.644 128.865C167.615 128.865 168.435 129.06 169.105 129.45C169.782 129.833 170.301 130.396 170.664 131.142C171.033 131.88 171.238 132.786 171.279 133.859H169.392C169.344 133.073 169.221 132.434 169.023 131.941C168.825 131.442 168.531 131.077 168.141 130.844C167.758 130.605 167.259 130.485 166.644 130.485C166.097 130.485 165.622 130.595 165.219 130.813C164.822 131.032 164.494 131.347 164.234 131.757C163.981 132.16 163.79 132.649 163.66 133.223C163.537 133.791 163.476 134.426 163.476 135.13V137.909C163.476 138.565 163.527 139.177 163.629 139.745C163.739 140.312 163.91 140.811 164.142 141.242C164.381 141.666 164.692 141.997 165.075 142.236C165.458 142.476 165.923 142.595 166.47 142.595C167.16 142.595 167.707 142.482 168.11 142.257C168.514 142.031 168.811 141.672 169.002 141.18C169.201 140.688 169.331 140.045 169.392 139.252ZM175.801 129.07V144H173.914V129.07H175.801ZM188.792 135.243V137.837C188.792 138.89 188.676 139.816 188.444 140.616C188.218 141.409 187.887 142.072 187.449 142.605C187.012 143.139 186.485 143.539 185.87 143.805C185.255 144.072 184.561 144.205 183.789 144.205C183.043 144.205 182.363 144.072 181.748 143.805C181.133 143.539 180.603 143.139 180.159 142.605C179.714 142.072 179.369 141.409 179.123 140.616C178.884 139.816 178.764 138.89 178.764 137.837V135.243C178.764 134.19 178.884 133.268 179.123 132.475C179.362 131.675 179.704 131.008 180.148 130.475C180.593 129.942 181.123 129.542 181.738 129.275C182.353 129.002 183.033 128.865 183.778 128.865C184.551 128.865 185.245 129.002 185.86 129.275C186.482 129.542 187.008 129.942 187.439 130.475C187.876 131.008 188.211 131.675 188.444 132.475C188.676 133.268 188.792 134.19 188.792 135.243ZM186.926 137.837V135.223C186.926 134.402 186.858 133.698 186.721 133.11C186.584 132.516 186.383 132.03 186.116 131.654C185.85 131.278 185.521 131.001 185.132 130.824C184.742 130.639 184.291 130.547 183.778 130.547C183.293 130.547 182.855 130.639 182.466 130.824C182.083 131.001 181.755 131.278 181.481 131.654C181.208 132.03 180.996 132.516 180.846 133.11C180.702 133.698 180.63 134.402 180.63 135.223V137.837C180.63 138.665 180.702 139.375 180.846 139.97C180.996 140.558 181.208 141.043 181.481 141.426C181.762 141.802 182.097 142.083 182.486 142.267C182.876 142.445 183.31 142.534 183.789 142.534C184.301 142.534 184.752 142.445 185.142 142.267C185.539 142.083 185.867 141.802 186.126 141.426C186.393 141.043 186.591 140.558 186.721 139.97C186.858 139.375 186.926 138.665 186.926 137.837ZM201.477 129.07V144H199.58L193.602 132.485V144H191.715V129.07H193.602L199.61 140.616V129.07H201.477ZM209.762 130.393L205.681 144H203.753L208.562 129.07H209.772L209.762 130.393ZM213.063 144L208.982 130.393L208.962 129.07H210.182L214.991 144H213.063ZM213.063 138.473V140.093H205.865V138.473H213.063ZM217.052 129.07H221.226C222.196 129.07 223.01 129.241 223.666 129.583C224.329 129.925 224.828 130.431 225.163 131.101C225.505 131.764 225.676 132.581 225.676 133.551C225.676 134.235 225.563 134.86 225.337 135.428C225.112 135.988 224.784 136.467 224.353 136.863C223.922 137.253 223.399 137.543 222.784 137.735L222.271 137.95H218.549L218.529 136.34H221.205C221.779 136.34 222.258 136.217 222.641 135.971C223.023 135.718 223.311 135.38 223.502 134.956C223.693 134.532 223.789 134.064 223.789 133.551C223.789 132.977 223.704 132.475 223.533 132.044C223.362 131.613 223.088 131.282 222.712 131.049C222.343 130.81 221.848 130.69 221.226 130.69H218.939V144H217.052V129.07ZM224.22 144L221.246 137.232L223.205 137.222L226.24 143.877V144H224.22ZM234.904 129.07V144H233.018V129.07H234.904ZM239.939 135.787V137.407H234.545V135.787H239.939ZM240.79 129.07V130.69H234.545V129.07H240.79ZM246.225 130.393L242.144 144H240.216L245.025 129.07H246.235L246.225 130.393ZM249.526 144L245.445 130.393L245.425 129.07H246.645L251.454 144H249.526ZM249.526 138.473V140.093H242.328V138.473H249.526ZM256.971 129.07V144H255.104V129.07H256.971ZM260.898 129.07V130.69H251.188V129.07H260.898ZM270.126 129.07H272.013V139.581C272.013 140.702 271.798 141.601 271.367 142.277C270.937 142.954 270.369 143.446 269.665 143.754C268.968 144.055 268.216 144.205 267.409 144.205C266.548 144.205 265.772 144.055 265.082 143.754C264.391 143.446 263.841 142.954 263.431 142.277C263.027 141.601 262.826 140.702 262.826 139.581V129.07H264.702V139.581C264.702 140.36 264.812 140.968 265.03 141.406C265.256 141.843 265.57 142.151 265.974 142.329C266.384 142.506 266.862 142.595 267.409 142.595C267.963 142.595 268.441 142.506 268.845 142.329C269.255 142.151 269.569 141.843 269.788 141.406C270.014 140.968 270.126 140.36 270.126 139.581V129.07ZM274.905 129.07H279.078C280.049 129.07 280.862 129.241 281.519 129.583C282.182 129.925 282.681 130.431 283.016 131.101C283.357 131.764 283.528 132.581 283.528 133.551C283.528 134.235 283.416 134.86 283.19 135.428C282.964 135.988 282.636 136.467 282.206 136.863C281.775 137.253 281.252 137.543 280.637 137.735L280.124 137.95H276.402L276.381 136.34H279.058C279.632 136.34 280.11 136.217 280.493 135.971C280.876 135.718 281.163 135.38 281.354 134.956C281.546 134.532 281.642 134.064 281.642 133.551C281.642 132.977 281.556 132.475 281.385 132.044C281.214 131.613 280.941 131.282 280.565 131.049C280.196 130.81 279.7 130.69 279.078 130.69H276.792V144H274.905V129.07ZM282.072 144L279.099 137.232L281.057 137.222L284.092 143.877V144H282.072ZM290.891 130.393L286.81 144H284.882L289.691 129.07H290.901L290.891 130.393ZM294.192 144L290.111 130.393L290.091 129.07H291.311L296.12 144H294.192ZM294.192 138.473V140.093H286.994V138.473H294.192ZM298.663 128.25V129.562C298.663 129.973 298.598 130.407 298.468 130.865C298.345 131.316 298.164 131.753 297.925 132.177C297.686 132.594 297.392 132.96 297.043 133.274L296.028 132.526C296.301 132.075 296.51 131.613 296.653 131.142C296.797 130.663 296.869 130.147 296.869 129.593V128.25H298.663ZM301.514 128.25V129.562C301.514 129.973 301.449 130.407 301.319 130.865C301.196 131.316 301.015 131.753 300.775 132.177C300.536 132.594 300.242 132.96 299.894 133.274L298.878 132.526C299.152 132.075 299.36 131.613 299.504 131.142C299.647 130.663 299.719 130.147 299.719 129.593V128.25H301.514Z" fill="white"/>
<path d="M8.1416 15.2266C8.1416 14.8779 8.10059 14.5703 8.01855 14.3037C7.93652 14.0303 7.79297 13.7842 7.58789 13.5654C7.38281 13.3467 7.0957 13.1382 6.72656 12.9399C6.35742 12.7417 5.88916 12.54 5.32178 12.335C4.70654 12.1162 4.14941 11.8735 3.65039 11.6069C3.15137 11.3335 2.72412 11.0225 2.36865 10.6738C2.02002 10.3252 1.75 9.92529 1.55859 9.47412C1.36719 9.02295 1.27148 8.50684 1.27148 7.92578C1.27148 7.34473 1.37061 6.80811 1.56885 6.31592C1.77393 5.82373 2.06104 5.39648 2.43018 5.03418C2.80615 4.66504 3.25732 4.37793 3.78369 4.17285C4.31006 3.96777 4.89795 3.86523 5.54736 3.86523C6.51807 3.86523 7.33496 4.08057 7.99805 4.51123C8.66797 4.93506 9.17383 5.49219 9.51562 6.18262C9.85742 6.86621 10.0283 7.59766 10.0283 8.37695H8.1416C8.1416 7.81641 8.04932 7.3208 7.86475 6.89014C7.68701 6.45264 7.40674 6.11084 7.02393 5.86475C6.64795 5.61182 6.15576 5.48535 5.54736 5.48535C5.00049 5.48535 4.54932 5.59131 4.19385 5.80322C3.84521 6.01514 3.58545 6.30225 3.41455 6.66455C3.25049 7.02686 3.16846 7.44043 3.16846 7.90527C3.16846 8.21973 3.22314 8.50684 3.33252 8.7666C3.44189 9.01953 3.60938 9.25537 3.83496 9.47412C4.06738 9.69287 4.35449 9.89453 4.69629 10.0791C5.04492 10.2637 5.45508 10.4414 5.92676 10.6123C6.6582 10.8516 7.28369 11.1182 7.80322 11.4121C8.32275 11.7061 8.74658 12.0376 9.07471 12.4067C9.40283 12.769 9.64209 13.1826 9.79248 13.6475C9.94971 14.1055 10.0283 14.625 10.0283 15.2061C10.0283 15.8145 9.92578 16.3647 9.7207 16.8569C9.52246 17.3491 9.23193 17.7695 8.84912 18.1182C8.46631 18.4668 8.00488 18.7368 7.46484 18.9282C6.9248 19.1128 6.31641 19.2051 5.63965 19.2051C5.05176 19.2051 4.47412 19.1094 3.90674 18.918C3.34619 18.7266 2.83691 18.4395 2.37891 18.0566C1.9209 17.6738 1.55518 17.2021 1.28174 16.6416C1.0083 16.0742 0.871582 15.418 0.871582 14.6729H2.7583C2.7583 15.1855 2.8335 15.6265 2.98389 15.9956C3.13428 16.3579 3.34277 16.6587 3.60938 16.8979C3.87598 17.1372 4.18018 17.3149 4.52197 17.4312C4.87061 17.5405 5.24316 17.5952 5.63965 17.5952C6.18652 17.5952 6.64453 17.4995 7.01367 17.3081C7.38965 17.1167 7.66992 16.8433 7.85449 16.4878C8.0459 16.1323 8.1416 15.7119 8.1416 15.2266ZM14.4683 4.07031V19H12.5815V4.07031H14.4683ZM27.1011 11.5659V17.1338C26.937 17.3525 26.6875 17.626 26.3525 17.9541C26.0244 18.2822 25.563 18.5728 24.9683 18.8257C24.3735 19.0786 23.5942 19.2051 22.6304 19.2051C21.8579 19.2051 21.1504 19.0752 20.5078 18.8154C19.8721 18.5557 19.3218 18.166 18.8569 17.6465C18.3989 17.1201 18.0435 16.4673 17.7905 15.688C17.5376 14.9019 17.4111 13.9824 17.4111 12.9297V10.1304C17.4111 9.08447 17.5171 8.16846 17.729 7.38232C17.9409 6.59619 18.2554 5.94336 18.6724 5.42383C19.0962 4.9043 19.6191 4.51465 20.2412 4.25488C20.8701 3.99512 21.6016 3.86523 22.4355 3.86523C23.3994 3.86523 24.2197 4.04639 24.8965 4.40869C25.5732 4.771 26.0962 5.29395 26.4653 5.97754C26.8413 6.66113 27.0532 7.48145 27.1011 8.43848H25.2144C25.1665 7.82324 25.0366 7.29688 24.8247 6.85938C24.6128 6.41504 24.312 6.07666 23.9224 5.84424C23.5327 5.60498 23.0371 5.48535 22.4355 5.48535C21.8613 5.48535 21.376 5.58105 20.9795 5.77246C20.583 5.96387 20.2583 6.25098 20.0054 6.63379C19.7593 7.0166 19.5781 7.49854 19.4619 8.07959C19.3525 8.66064 19.2979 9.3374 19.2979 10.1099V12.9297C19.2979 13.7227 19.3765 14.4131 19.5337 15.001C19.6909 15.5889 19.9131 16.0742 20.2002 16.457C20.4941 16.8398 20.8462 17.127 21.2563 17.3184C21.6665 17.5029 22.1279 17.5952 22.6406 17.5952C23.2217 17.5952 23.6797 17.5337 24.0146 17.4106C24.3496 17.2876 24.606 17.1475 24.7837 16.9902C24.9683 16.833 25.1152 16.7065 25.2246 16.6108V13.1655H22.4868V11.5659H27.1011ZM34.9966 5.39307L30.9155 19H28.9878L33.7969 4.07031H35.0068L34.9966 5.39307ZM38.2983 19L34.2173 5.39307L34.1968 4.07031H35.417L40.2261 19H38.2983ZM38.2983 13.4731V15.0933H31.1001V13.4731H38.2983ZM56.8066 10.2432V12.8374C56.8066 13.8901 56.6904 14.8164 56.458 15.6162C56.2324 16.4092 55.9009 17.0723 55.4634 17.6055C55.0259 18.1387 54.4995 18.5386 53.8843 18.8052C53.269 19.0718 52.5752 19.2051 51.8027 19.2051C51.0576 19.2051 50.3774 19.0718 49.7622 18.8052C49.147 18.5386 48.6172 18.1387 48.1729 17.6055C47.7285 17.0723 47.3833 16.4092 47.1372 15.6162C46.8979 14.8164 46.7783 13.8901 46.7783 12.8374V10.2432C46.7783 9.19043 46.8979 8.26758 47.1372 7.47461C47.3765 6.6748 47.7183 6.0083 48.1626 5.4751C48.6069 4.94189 49.1367 4.54199 49.752 4.27539C50.3672 4.00195 51.0474 3.86523 51.7925 3.86523C52.5649 3.86523 53.2588 4.00195 53.874 4.27539C54.4961 4.54199 55.0225 4.94189 55.4531 5.4751C55.8906 6.0083 56.2256 6.6748 56.458 7.47461C56.6904 8.26758 56.8066 9.19043 56.8066 10.2432ZM54.9404 12.8374V10.2227C54.9404 9.40234 54.8721 8.69824 54.7354 8.11035C54.5986 7.51562 54.397 7.03027 54.1304 6.6543C53.8638 6.27832 53.5356 6.00146 53.146 5.82373C52.7563 5.63916 52.3052 5.54688 51.7925 5.54688C51.3071 5.54688 50.8696 5.63916 50.48 5.82373C50.0972 6.00146 49.769 6.27832 49.4956 6.6543C49.2222 7.03027 49.0103 7.51562 48.8599 8.11035C48.7163 8.69824 48.6445 9.40234 48.6445 10.2227V12.8374C48.6445 13.6646 48.7163 14.3755 48.8599 14.9702C49.0103 15.5581 49.2222 16.0435 49.4956 16.4263C49.7759 16.8022 50.1108 17.0825 50.5005 17.2671C50.8901 17.4448 51.3242 17.5337 51.8027 17.5337C52.3154 17.5337 52.7666 17.4448 53.1562 17.2671C53.5527 17.0825 53.8809 16.8022 54.1406 16.4263C54.4072 16.0435 54.6055 15.5581 54.7354 14.9702C54.8721 14.3755 54.9404 13.6646 54.9404 12.8374ZM71.0801 15.2266C71.0801 14.8779 71.0391 14.5703 70.957 14.3037C70.875 14.0303 70.7314 13.7842 70.5264 13.5654C70.3213 13.3467 70.0342 13.1382 69.665 12.9399C69.2959 12.7417 68.8276 12.54 68.2603 12.335C67.645 12.1162 67.0879 11.8735 66.5889 11.6069C66.0898 11.3335 65.6626 11.0225 65.3071 10.6738C64.9585 10.3252 64.6885 9.92529 64.4971 9.47412C64.3057 9.02295 64.21 8.50684 64.21 7.92578C64.21 7.34473 64.3091 6.80811 64.5073 6.31592C64.7124 5.82373 64.9995 5.39648 65.3687 5.03418C65.7446 4.66504 66.1958 4.37793 66.7222 4.17285C67.2485 3.96777 67.8364 3.86523 68.4858 3.86523C69.4565 3.86523 70.2734 4.08057 70.9365 4.51123C71.6064 4.93506 72.1123 5.49219 72.4541 6.18262C72.7959 6.86621 72.9668 7.59766 72.9668 8.37695H71.0801C71.0801 7.81641 70.9878 7.3208 70.8032 6.89014C70.6255 6.45264 70.3452 6.11084 69.9624 5.86475C69.5864 5.61182 69.0942 5.48535 68.4858 5.48535C67.939 5.48535 67.4878 5.59131 67.1323 5.80322C66.7837 6.01514 66.5239 6.30225 66.353 6.66455C66.189 7.02686 66.1069 7.44043 66.1069 7.90527C66.1069 8.21973 66.1616 8.50684 66.271 8.7666C66.3804 9.01953 66.5479 9.25537 66.7734 9.47412C67.0059 9.69287 67.293 9.89453 67.6348 10.0791C67.9834 10.2637 68.3936 10.4414 68.8652 10.6123C69.5967 10.8516 70.2222 11.1182 70.7417 11.4121C71.2612 11.7061 71.6851 12.0376 72.0132 12.4067C72.3413 12.769 72.5806 13.1826 72.731 13.6475C72.8882 14.1055 72.9668 14.625 72.9668 15.2061C72.9668 15.8145 72.8643 16.3647 72.6592 16.8569C72.4609 17.3491 72.1704 17.7695 71.7876 18.1182C71.4048 18.4668 70.9434 18.7368 70.4033 18.9282C69.8633 19.1128 69.2549 19.2051 68.5781 19.2051C67.9902 19.2051 67.4126 19.1094 66.8452 18.918C66.2847 18.7266 65.7754 18.4395 65.3174 18.0566C64.8594 17.6738 64.4937 17.2021 64.2202 16.6416C63.9468 16.0742 63.8101 15.418 63.8101 14.6729H65.6968C65.6968 15.1855 65.772 15.6265 65.9224 15.9956C66.0728 16.3579 66.2812 16.6587 66.5479 16.8979C66.8145 17.1372 67.1187 17.3149 67.4604 17.4312C67.8091 17.5405 68.1816 17.5952 68.5781 17.5952C69.125 17.5952 69.583 17.4995 69.9521 17.3081C70.3281 17.1167 70.6084 16.8433 70.793 16.4878C70.9844 16.1323 71.0801 15.7119 71.0801 15.2266ZM83.4668 17.3901V19H76.9863V17.3901H83.4668ZM77.3247 4.07031V19H75.438V4.07031H77.3247ZM82.5952 10.4893V12.0991H76.9863V10.4893H82.5952ZM83.3643 4.07031V5.69043H76.9863V4.07031H83.3643ZM95.228 11.5659V17.1338C95.064 17.3525 94.8145 17.626 94.4795 17.9541C94.1514 18.2822 93.6899 18.5728 93.0952 18.8257C92.5005 19.0786 91.7212 19.2051 90.7573 19.2051C89.9849 19.2051 89.2773 19.0752 88.6348 18.8154C87.999 18.5557 87.4487 18.166 86.9839 17.6465C86.5259 17.1201 86.1704 16.4673 85.9175 15.688C85.6646 14.9019 85.5381 13.9824 85.5381 12.9297V10.1304C85.5381 9.08447 85.644 8.16846 85.856 7.38232C86.0679 6.59619 86.3823 5.94336 86.7993 5.42383C87.2231 4.9043 87.7461 4.51465 88.3682 4.25488C88.9971 3.99512 89.7285 3.86523 90.5625 3.86523C91.5264 3.86523 92.3467 4.04639 93.0234 4.40869C93.7002 4.771 94.2231 5.29395 94.5923 5.97754C94.9683 6.66113 95.1802 7.48145 95.228 8.43848H93.3413C93.2935 7.82324 93.1636 7.29688 92.9517 6.85938C92.7397 6.41504 92.439 6.07666 92.0493 5.84424C91.6597 5.60498 91.1641 5.48535 90.5625 5.48535C89.9883 5.48535 89.5029 5.58105 89.1064 5.77246C88.71 5.96387 88.3853 6.25098 88.1323 6.63379C87.8862 7.0166 87.7051 7.49854 87.5889 8.07959C87.4795 8.66064 87.4248 9.3374 87.4248 10.1099V12.9297C87.4248 13.7227 87.5034 14.4131 87.6606 15.001C87.8179 15.5889 88.04 16.0742 88.3271 16.457C88.6211 16.8398 88.9731 17.127 89.3833 17.3184C89.7935 17.5029 90.2549 17.5952 90.7676 17.5952C91.3486 17.5952 91.8066 17.5337 92.1416 17.4106C92.4766 17.2876 92.7329 17.1475 92.9106 16.9902C93.0952 16.833 93.2422 16.7065 93.3516 16.6108V13.1655H90.6138V11.5659H95.228ZM105.308 4.07031H107.194V14.5806C107.194 15.7017 106.979 16.6006 106.548 17.2773C106.118 17.9541 105.55 18.4463 104.846 18.7539C104.149 19.0547 103.397 19.2051 102.59 19.2051C101.729 19.2051 100.953 19.0547 100.263 18.7539C99.5723 18.4463 99.022 17.9541 98.6118 17.2773C98.2085 16.6006 98.0068 15.7017 98.0068 14.5806V4.07031H99.8833V14.5806C99.8833 15.3599 99.9927 15.9683 100.211 16.4058C100.437 16.8433 100.751 17.1509 101.155 17.3286C101.565 17.5063 102.043 17.5952 102.59 17.5952C103.144 17.5952 103.623 17.5063 104.026 17.3286C104.436 17.1509 104.75 16.8433 104.969 16.4058C105.195 15.9683 105.308 15.3599 105.308 14.5806V4.07031ZM112.044 4.07031V19H110.158V4.07031H112.044ZM125.087 4.07031V19H123.19L117.212 7.48486V19H115.326V4.07031H117.212L123.221 15.6162V4.07031H125.087ZM132.839 4.07031V19H130.973V4.07031H132.839ZM136.767 4.07031V5.69043H127.056V4.07031H136.767ZM147 17.3901V19H140.52V17.3901H147ZM140.858 4.07031V19H138.971V4.07031H140.858ZM146.128 10.4893V12.0991H140.52V10.4893H146.128ZM146.897 4.07031V5.69043H140.52V4.07031H146.897ZM6.44971 29.3931L2.36865 43H0.440918L5.25 28.0703H6.45996L6.44971 29.3931ZM9.75146 43L5.67041 29.3931L5.6499 28.0703H6.87012L11.6792 43H9.75146ZM9.75146 37.4731V39.0933H2.55322V37.4731H9.75146ZM18.252 36.0171H15.2168L15.1963 34.4277H18.0161C18.4399 34.4277 18.8159 34.332 19.144 34.1406C19.4722 33.9492 19.7285 33.6758 19.9131 33.3203C20.1045 32.958 20.2002 32.5273 20.2002 32.0283C20.2002 31.4814 20.1182 31.0371 19.9541 30.6953C19.7969 30.3467 19.5542 30.0938 19.2261 29.9365C18.9048 29.7725 18.4946 29.6904 17.9956 29.6904H15.6167V43H13.73V28.0703H17.9956C18.6382 28.0703 19.2124 28.1489 19.7183 28.3062C20.2241 28.4565 20.6514 28.6958 21 29.0239C21.3555 29.3452 21.6255 29.7554 21.8101 30.2544C21.9946 30.7534 22.0869 31.3516 22.0869 32.0488C22.0869 32.6641 21.9468 33.2212 21.6665 33.7202C21.3931 34.2124 21.0103 34.6157 20.5181 34.9302C20.0259 35.2446 19.4585 35.4463 18.8159 35.5352L18.252 36.0171ZM18.1802 43H14.4375L15.5347 41.3901H18.1802C18.6724 41.3901 19.0894 41.2808 19.4312 41.062C19.7729 40.8433 20.0327 40.5356 20.2104 40.1392C20.395 39.7358 20.4873 39.2607 20.4873 38.7139C20.4873 38.1602 20.4121 37.6816 20.2617 37.2783C20.1113 36.875 19.8721 36.564 19.5439 36.3452C19.2158 36.1265 18.7852 36.0171 18.252 36.0171H15.8218L15.8423 34.4277H19.1235L19.5439 35.002C20.1592 35.0635 20.6753 35.2686 21.0923 35.6172C21.5161 35.959 21.834 36.3965 22.0459 36.9297C22.2646 37.4629 22.374 38.0508 22.374 38.6934C22.374 39.623 22.1997 40.4092 21.8511 41.0518C21.5093 41.6875 21.0239 42.1729 20.395 42.5078C19.7661 42.8359 19.0278 43 18.1802 43ZM30.0337 29.3931L25.9526 43H24.0249L28.834 28.0703H30.0439L30.0337 29.3931ZM33.3354 43L29.2544 29.3931L29.2339 28.0703H30.4541L35.2632 43H33.3354ZM33.3354 37.4731V39.0933H26.1372V37.4731H33.3354ZM39.2827 28.0703V43H37.396V28.0703H39.2827ZM44.1226 28.0703L46.9526 33.792L49.7622 28.0703H51.9565L48.0703 35.4634L52.0386 43H49.8237L46.9526 37.1655L44.0713 43H41.8462L45.8247 35.4634L41.9282 28.0703H44.1226ZM63.7793 34.2432V36.8374C63.7793 37.8901 63.6631 38.8164 63.4307 39.6162C63.2051 40.4092 62.8735 41.0723 62.436 41.6055C61.9985 42.1387 61.4722 42.5386 60.8569 42.8052C60.2417 43.0718 59.5479 43.2051 58.7754 43.2051C58.0303 43.2051 57.3501 43.0718 56.7349 42.8052C56.1196 42.5386 55.5898 42.1387 55.1455 41.6055C54.7012 41.0723 54.356 40.4092 54.1099 39.6162C53.8706 38.8164 53.751 37.8901 53.751 36.8374V34.2432C53.751 33.1904 53.8706 32.2676 54.1099 31.4746C54.3491 30.6748 54.6909 30.0083 55.1353 29.4751C55.5796 28.9419 56.1094 28.542 56.7246 28.2754C57.3398 28.002 58.02 27.8652 58.7651 27.8652C59.5376 27.8652 60.2314 28.002 60.8467 28.2754C61.4688 28.542 61.9951 28.9419 62.4258 29.4751C62.8633 30.0083 63.1982 30.6748 63.4307 31.4746C63.6631 32.2676 63.7793 33.1904 63.7793 34.2432ZM61.9131 36.8374V34.2227C61.9131 33.4023 61.8447 32.6982 61.708 32.1104C61.5713 31.5156 61.3696 31.0303 61.103 30.6543C60.8364 30.2783 60.5083 30.0015 60.1187 29.8237C59.729 29.6392 59.2778 29.5469 58.7651 29.5469C58.2798 29.5469 57.8423 29.6392 57.4526 29.8237C57.0698 30.0015 56.7417 30.2783 56.4683 30.6543C56.1948 31.0303 55.9829 31.5156 55.8325 32.1104C55.689 32.6982 55.6172 33.4023 55.6172 34.2227V36.8374C55.6172 37.6646 55.689 38.3755 55.8325 38.9702C55.9829 39.5581 56.1948 40.0435 56.4683 40.4263C56.7485 40.8022 57.0835 41.0825 57.4731 41.2671C57.8628 41.4448 58.2969 41.5337 58.7754 41.5337C59.2881 41.5337 59.7393 41.4448 60.1289 41.2671C60.5254 41.0825 60.8535 40.8022 61.1133 40.4263C61.3799 40.0435 61.5781 39.5581 61.708 38.9702C61.8447 38.3755 61.9131 37.6646 61.9131 36.8374ZM66.5068 41.9951C66.5068 41.6738 66.606 41.4038 66.8042 41.1851C67.0093 40.9595 67.3032 40.8467 67.686 40.8467C68.0688 40.8467 68.3594 40.9595 68.5576 41.1851C68.7627 41.4038 68.8652 41.6738 68.8652 41.9951C68.8652 42.3096 68.7627 42.5762 68.5576 42.7949C68.3594 43.0137 68.0688 43.123 67.686 43.123C67.3032 43.123 67.0093 43.0137 66.8042 42.7949C66.606 42.5762 66.5068 42.3096 66.5068 41.9951ZM66.4966 32.9409C66.4966 32.6196 66.5957 32.3496 66.7939 32.1309C66.999 31.9053 67.293 31.7925 67.6758 31.7925C68.0586 31.7925 68.3491 31.9053 68.5474 32.1309C68.7524 32.3496 68.855 32.6196 68.855 32.9409C68.855 33.2554 68.7524 33.522 68.5474 33.7407C68.3491 33.9595 68.0586 34.0688 67.6758 34.0688C67.293 34.0688 66.999 33.9595 66.7939 33.7407C66.5957 33.522 66.4966 33.2554 66.4966 32.9409Z" fill="black"/>
<path d="M158.915 13.7397H155.859V11.248H158.915C159.339 11.248 159.684 11.1523 159.951 10.9609C160.224 10.7695 160.422 10.5063 160.545 10.1714C160.668 9.82959 160.73 9.44678 160.73 9.02295C160.73 8.59229 160.665 8.19238 160.535 7.82324C160.412 7.44727 160.217 7.14307 159.951 6.91064C159.691 6.67822 159.346 6.56201 158.915 6.56201H156.823V19H153.829V4.07031H158.915C159.92 4.07031 160.785 4.28223 161.509 4.70605C162.234 5.12988 162.788 5.71436 163.17 6.45947C163.56 7.19775 163.755 8.04541 163.755 9.00244C163.755 9.96631 163.56 10.8037 163.17 11.5146C162.788 12.2188 162.234 12.7656 161.509 13.1553C160.785 13.5449 159.92 13.7397 158.915 13.7397ZM169.343 6.73633L166.134 19H162.965L167.631 4.07031H169.61L169.343 6.73633ZM171.876 19L168.646 6.73633L168.349 4.07031H170.358L175.065 19H171.876ZM171.989 13.4321V15.9238H165.252V13.4321H171.989ZM182.807 15.0728C182.807 14.8062 182.783 14.5635 182.735 14.3447C182.687 14.126 182.584 13.9243 182.427 13.7397C182.277 13.5552 182.055 13.3706 181.761 13.186C181.474 13.0015 181.098 12.8101 180.633 12.6118C180.079 12.3794 179.542 12.1333 179.023 11.8735C178.503 11.6069 178.035 11.2993 177.618 10.9507C177.201 10.6021 176.87 10.1919 176.624 9.72021C176.384 9.2417 176.265 8.68115 176.265 8.03857C176.265 7.40967 176.377 6.83887 176.603 6.32617C176.835 5.81348 177.164 5.37598 177.587 5.01367C178.011 4.64453 178.507 4.36084 179.074 4.1626C179.648 3.96436 180.288 3.86523 180.992 3.86523C181.949 3.86523 182.776 4.06348 183.473 4.45996C184.177 4.85645 184.721 5.3999 185.104 6.09033C185.493 6.78076 185.688 7.57373 185.688 8.46924H182.694C182.694 8.04541 182.632 7.67285 182.509 7.35156C182.393 7.02344 182.205 6.76709 181.945 6.58252C181.686 6.39795 181.351 6.30566 180.94 6.30566C180.558 6.30566 180.24 6.38428 179.987 6.5415C179.741 6.69189 179.556 6.90039 179.433 7.16699C179.317 7.42676 179.259 7.7207 179.259 8.04883C179.259 8.29492 179.317 8.51709 179.433 8.71533C179.556 8.90674 179.724 9.08105 179.936 9.23828C180.147 9.38867 180.397 9.53564 180.684 9.6792C180.978 9.82275 181.299 9.96289 181.648 10.0996C182.325 10.3662 182.923 10.6602 183.442 10.9814C183.962 11.2959 184.396 11.6514 184.745 12.0479C185.093 12.4375 185.356 12.8784 185.534 13.3706C185.712 13.8628 185.801 14.4233 185.801 15.0522C185.801 15.6743 185.691 16.2417 185.473 16.7544C185.261 17.2603 184.95 17.6978 184.54 18.0669C184.129 18.4292 183.634 18.7095 183.053 18.9077C182.479 19.106 181.836 19.2051 181.125 19.2051C180.435 19.2051 179.782 19.1094 179.167 18.918C178.551 18.7197 178.008 18.4224 177.536 18.0259C177.071 17.6226 176.706 17.1133 176.439 16.498C176.172 15.876 176.039 15.1411 176.039 14.2935H179.043C179.043 14.7446 179.088 15.1309 179.177 15.4521C179.266 15.7666 179.402 16.0195 179.587 16.2109C179.771 16.3955 179.997 16.5356 180.264 16.6313C180.537 16.7202 180.848 16.7646 181.197 16.7646C181.593 16.7646 181.908 16.6895 182.14 16.5391C182.379 16.3887 182.55 16.187 182.653 15.9341C182.755 15.6812 182.807 15.394 182.807 15.0728ZM194.147 15.0728C194.147 14.8062 194.124 14.5635 194.076 14.3447C194.028 14.126 193.925 13.9243 193.768 13.7397C193.618 13.5552 193.396 13.3706 193.102 13.186C192.814 13.0015 192.438 12.8101 191.974 12.6118C191.42 12.3794 190.883 12.1333 190.364 11.8735C189.844 11.6069 189.376 11.2993 188.959 10.9507C188.542 10.6021 188.21 10.1919 187.964 9.72021C187.725 9.2417 187.605 8.68115 187.605 8.03857C187.605 7.40967 187.718 6.83887 187.944 6.32617C188.176 5.81348 188.504 5.37598 188.928 5.01367C189.352 4.64453 189.848 4.36084 190.415 4.1626C190.989 3.96436 191.628 3.86523 192.333 3.86523C193.29 3.86523 194.117 4.06348 194.814 4.45996C195.518 4.85645 196.062 5.3999 196.444 6.09033C196.834 6.78076 197.029 7.57373 197.029 8.46924H194.035C194.035 8.04541 193.973 7.67285 193.85 7.35156C193.734 7.02344 193.546 6.76709 193.286 6.58252C193.026 6.39795 192.691 6.30566 192.281 6.30566C191.898 6.30566 191.581 6.38428 191.328 6.5415C191.082 6.69189 190.897 6.90039 190.774 7.16699C190.658 7.42676 190.6 7.7207 190.6 8.04883C190.6 8.29492 190.658 8.51709 190.774 8.71533C190.897 8.90674 191.064 9.08105 191.276 9.23828C191.488 9.38867 191.738 9.53564 192.025 9.6792C192.319 9.82275 192.64 9.96289 192.989 10.0996C193.666 10.3662 194.264 10.6602 194.783 10.9814C195.303 11.2959 195.737 11.6514 196.085 12.0479C196.434 12.4375 196.697 12.8784 196.875 13.3706C197.053 13.8628 197.142 14.4233 197.142 15.0522C197.142 15.6743 197.032 16.2417 196.813 16.7544C196.602 17.2603 196.291 17.6978 195.88 18.0669C195.47 18.4292 194.975 18.7095 194.394 18.9077C193.819 19.106 193.177 19.2051 192.466 19.2051C191.775 19.2051 191.123 19.1094 190.507 18.918C189.892 18.7197 189.349 18.4224 188.877 18.0259C188.412 17.6226 188.046 17.1133 187.78 16.498C187.513 15.876 187.38 15.1411 187.38 14.2935H190.384C190.384 14.7446 190.429 15.1309 190.518 15.4521C190.606 15.7666 190.743 16.0195 190.928 16.2109C191.112 16.3955 191.338 16.5356 191.604 16.6313C191.878 16.7202 192.189 16.7646 192.538 16.7646C192.934 16.7646 193.249 16.6895 193.481 16.5391C193.72 16.3887 193.891 16.187 193.994 15.9341C194.096 15.6812 194.147 15.394 194.147 15.0728ZM209.662 10.3765V12.8682C209.662 13.9209 209.532 14.8438 209.272 15.6367C209.019 16.4229 208.657 17.0825 208.185 17.6157C207.72 18.1421 207.156 18.5386 206.493 18.8052C205.837 19.0718 205.109 19.2051 204.309 19.2051C203.509 19.2051 202.778 19.0718 202.115 18.8052C201.458 18.5386 200.891 18.1421 200.413 17.6157C199.941 17.0825 199.575 16.4229 199.315 15.6367C199.056 14.8438 198.926 13.9209 198.926 12.8682V10.3765C198.926 9.29639 199.052 8.35303 199.305 7.54639C199.558 6.73291 199.924 6.05615 200.402 5.51611C200.881 4.96924 201.448 4.55908 202.104 4.28564C202.761 4.00537 203.489 3.86523 204.289 3.86523C205.088 3.86523 205.816 4.00537 206.473 4.28564C207.129 4.55908 207.696 4.96924 208.175 5.51611C208.653 6.05615 209.019 6.73291 209.272 7.54639C209.532 8.35303 209.662 9.29639 209.662 10.3765ZM206.678 12.8682V10.356C206.678 9.64502 206.626 9.04004 206.524 8.54102C206.421 8.03516 206.268 7.62158 206.062 7.30029C205.857 6.979 205.608 6.74316 205.314 6.59277C205.02 6.44238 204.678 6.36719 204.289 6.36719C203.899 6.36719 203.554 6.44238 203.253 6.59277C202.959 6.74316 202.709 6.979 202.504 7.30029C202.306 7.62158 202.156 8.03516 202.053 8.54102C201.958 9.04004 201.91 9.64502 201.91 10.356V12.8682C201.91 13.5518 201.961 14.1362 202.063 14.6216C202.166 15.1069 202.32 15.5034 202.525 15.811C202.73 16.1187 202.979 16.3477 203.273 16.498C203.574 16.6416 203.919 16.7134 204.309 16.7134C204.692 16.7134 205.03 16.6416 205.324 16.498C205.625 16.3477 205.875 16.1187 206.073 15.811C206.271 15.5034 206.421 15.1069 206.524 14.6216C206.626 14.1362 206.678 13.5518 206.678 12.8682ZM222.089 6.73633L218.88 19H215.711L220.377 4.07031H222.356L222.089 6.73633ZM224.622 19L221.392 6.73633L221.095 4.07031H223.104L227.811 19H224.622ZM224.735 13.4321V15.9238H217.998V13.4321H224.735ZM239.162 13.7397H236.106V11.248H239.162C239.586 11.248 239.931 11.1523 240.198 10.9609C240.471 10.7695 240.669 10.5063 240.792 10.1714C240.916 9.82959 240.977 9.44678 240.977 9.02295C240.977 8.59229 240.912 8.19238 240.782 7.82324C240.659 7.44727 240.464 7.14307 240.198 6.91064C239.938 6.67822 239.593 6.56201 239.162 6.56201H237.07V19H234.076V4.07031H239.162C240.167 4.07031 241.032 4.28223 241.756 4.70605C242.481 5.12988 243.035 5.71436 243.417 6.45947C243.807 7.19775 244.002 8.04541 244.002 9.00244C244.002 9.96631 243.807 10.8037 243.417 11.5146C243.035 12.2188 242.481 12.7656 241.756 13.1553C241.032 13.5449 240.167 13.7397 239.162 13.7397ZM249.59 6.73633L246.381 19H243.212L247.878 4.07031H249.857L249.59 6.73633ZM252.123 19L248.893 6.73633L248.596 4.07031H250.605L255.312 19H252.123ZM252.236 13.4321V15.9238H245.499V13.4321H252.236ZM263.054 15.0728C263.054 14.8062 263.03 14.5635 262.982 14.3447C262.934 14.126 262.832 13.9243 262.674 13.7397C262.524 13.5552 262.302 13.3706 262.008 13.186C261.721 13.0015 261.345 12.8101 260.88 12.6118C260.326 12.3794 259.79 12.1333 259.27 11.8735C258.75 11.6069 258.282 11.2993 257.865 10.9507C257.448 10.6021 257.117 10.1919 256.871 9.72021C256.631 9.2417 256.512 8.68115 256.512 8.03857C256.512 7.40967 256.625 6.83887 256.85 6.32617C257.083 5.81348 257.411 5.37598 257.834 5.01367C258.258 4.64453 258.754 4.36084 259.321 4.1626C259.896 3.96436 260.535 3.86523 261.239 3.86523C262.196 3.86523 263.023 4.06348 263.72 4.45996C264.424 4.85645 264.968 5.3999 265.351 6.09033C265.74 6.78076 265.935 7.57373 265.935 8.46924H262.941C262.941 8.04541 262.879 7.67285 262.756 7.35156C262.64 7.02344 262.452 6.76709 262.192 6.58252C261.933 6.39795 261.598 6.30566 261.188 6.30566C260.805 6.30566 260.487 6.38428 260.234 6.5415C259.988 6.69189 259.803 6.90039 259.68 7.16699C259.564 7.42676 259.506 7.7207 259.506 8.04883C259.506 8.29492 259.564 8.51709 259.68 8.71533C259.803 8.90674 259.971 9.08105 260.183 9.23828C260.395 9.38867 260.644 9.53564 260.931 9.6792C261.225 9.82275 261.546 9.96289 261.895 10.0996C262.572 10.3662 263.17 10.6602 263.689 10.9814C264.209 11.2959 264.643 11.6514 264.992 12.0479C265.34 12.4375 265.604 12.8784 265.781 13.3706C265.959 13.8628 266.048 14.4233 266.048 15.0522C266.048 15.6743 265.938 16.2417 265.72 16.7544C265.508 17.2603 265.197 17.6978 264.787 18.0669C264.376 18.4292 263.881 18.7095 263.3 18.9077C262.726 19.106 262.083 19.2051 261.372 19.2051C260.682 19.2051 260.029 19.1094 259.414 18.918C258.798 18.7197 258.255 18.4224 257.783 18.0259C257.318 17.6226 256.953 17.1133 256.686 16.498C256.419 15.876 256.286 15.1411 256.286 14.2935H259.291C259.291 14.7446 259.335 15.1309 259.424 15.4521C259.513 15.7666 259.649 16.0195 259.834 16.2109C260.019 16.3955 260.244 16.5356 260.511 16.6313C260.784 16.7202 261.095 16.7646 261.444 16.7646C261.84 16.7646 262.155 16.6895 262.387 16.5391C262.626 16.3887 262.797 16.187 262.9 15.9341C263.002 15.6812 263.054 15.394 263.054 15.0728ZM274.395 15.0728C274.395 14.8062 274.371 14.5635 274.323 14.3447C274.275 14.126 274.172 13.9243 274.015 13.7397C273.865 13.5552 273.643 13.3706 273.349 13.186C273.062 13.0015 272.686 12.8101 272.221 12.6118C271.667 12.3794 271.13 12.1333 270.611 11.8735C270.091 11.6069 269.623 11.2993 269.206 10.9507C268.789 10.6021 268.458 10.1919 268.211 9.72021C267.972 9.2417 267.853 8.68115 267.853 8.03857C267.853 7.40967 267.965 6.83887 268.191 6.32617C268.423 5.81348 268.751 5.37598 269.175 5.01367C269.599 4.64453 270.095 4.36084 270.662 4.1626C271.236 3.96436 271.875 3.86523 272.58 3.86523C273.537 3.86523 274.364 4.06348 275.061 4.45996C275.765 4.85645 276.309 5.3999 276.691 6.09033C277.081 6.78076 277.276 7.57373 277.276 8.46924H274.282C274.282 8.04541 274.22 7.67285 274.097 7.35156C273.981 7.02344 273.793 6.76709 273.533 6.58252C273.273 6.39795 272.938 6.30566 272.528 6.30566C272.146 6.30566 271.828 6.38428 271.575 6.5415C271.329 6.69189 271.144 6.90039 271.021 7.16699C270.905 7.42676 270.847 7.7207 270.847 8.04883C270.847 8.29492 270.905 8.51709 271.021 8.71533C271.144 8.90674 271.312 9.08105 271.523 9.23828C271.735 9.38867 271.985 9.53564 272.272 9.6792C272.566 9.82275 272.887 9.96289 273.236 10.0996C273.913 10.3662 274.511 10.6602 275.03 10.9814C275.55 11.2959 275.984 11.6514 276.333 12.0479C276.681 12.4375 276.944 12.8784 277.122 13.3706C277.3 13.8628 277.389 14.4233 277.389 15.0522C277.389 15.6743 277.279 16.2417 277.061 16.7544C276.849 17.2603 276.538 17.6978 276.127 18.0669C275.717 18.4292 275.222 18.7095 274.641 18.9077C274.066 19.106 273.424 19.2051 272.713 19.2051C272.022 19.2051 271.37 19.1094 270.754 18.918C270.139 18.7197 269.596 18.4224 269.124 18.0259C268.659 17.6226 268.293 17.1133 268.027 16.498C267.76 15.876 267.627 15.1411 267.627 14.2935H270.631C270.631 14.7446 270.676 15.1309 270.765 15.4521C270.854 15.7666 270.99 16.0195 271.175 16.2109C271.359 16.3955 271.585 16.5356 271.852 16.6313C272.125 16.7202 272.436 16.7646 272.785 16.7646C273.181 16.7646 273.496 16.6895 273.728 16.5391C273.967 16.3887 274.138 16.187 274.241 15.9341C274.343 15.6812 274.395 15.394 274.395 15.0728ZM289.909 10.3765V12.8682C289.909 13.9209 289.779 14.8438 289.519 15.6367C289.266 16.4229 288.904 17.0825 288.432 17.6157C287.967 18.1421 287.403 18.5386 286.74 18.8052C286.084 19.0718 285.356 19.2051 284.556 19.2051C283.756 19.2051 283.025 19.0718 282.362 18.8052C281.706 18.5386 281.138 18.1421 280.66 17.6157C280.188 17.0825 279.822 16.4229 279.562 15.6367C279.303 14.8438 279.173 13.9209 279.173 12.8682V10.3765C279.173 9.29639 279.299 8.35303 279.552 7.54639C279.805 6.73291 280.171 6.05615 280.649 5.51611C281.128 4.96924 281.695 4.55908 282.352 4.28564C283.008 4.00537 283.736 3.86523 284.536 3.86523C285.335 3.86523 286.063 4.00537 286.72 4.28564C287.376 4.55908 287.943 4.96924 288.422 5.51611C288.9 6.05615 289.266 6.73291 289.519 7.54639C289.779 8.35303 289.909 9.29639 289.909 10.3765ZM286.925 12.8682V10.356C286.925 9.64502 286.874 9.04004 286.771 8.54102C286.668 8.03516 286.515 7.62158 286.31 7.30029C286.104 6.979 285.855 6.74316 285.561 6.59277C285.267 6.44238 284.925 6.36719 284.536 6.36719C284.146 6.36719 283.801 6.44238 283.5 6.59277C283.206 6.74316 282.957 6.979 282.751 7.30029C282.553 7.62158 282.403 8.03516 282.3 8.54102C282.205 9.04004 282.157 9.64502 282.157 10.356V12.8682C282.157 13.5518 282.208 14.1362 282.311 14.6216C282.413 15.1069 282.567 15.5034 282.772 15.811C282.977 16.1187 283.227 16.3477 283.521 16.498C283.821 16.6416 284.167 16.7134 284.556 16.7134C284.939 16.7134 285.277 16.6416 285.571 16.498C285.872 16.3477 286.122 16.1187 286.32 15.811C286.518 15.5034 286.668 15.1069 286.771 14.6216C286.874 14.1362 286.925 13.5518 286.925 12.8682Z" fill="#00ACBE"/>
</svg>
