<svg width="216" height="38" viewBox="0 0 216 38" fill="none" xmlns="http://www.w3.org/2000/svg">
<rect width="216" height="38" rx="19" fill="#00ACBE"/>
<path d="M42.3227 23.6367V26H36.141V23.6367H42.3227ZM37.0297 11.7812V26H34.1684V11.7812H37.0297ZM41.4926 17.543V19.8379H36.141V17.543H41.4926ZM42.3031 11.7812V14.1543H36.141V11.7812H42.3031ZM54.134 11.7812V26H51.3703L46.9074 17.1035V26H44.1926V11.7812H46.9172L51.4191 20.7754V11.7812H54.134ZM61.0625 22.9629L63.7578 11.7812H66.8438L62.7227 26H60.6426L61.0625 22.9629ZM58.7578 11.7812L61.4434 22.9629L61.8828 26H59.793L55.7012 11.7812H58.7578ZM71.3699 11.7812V26H68.5281V11.7812H71.3699ZM79.3336 14.3203L76.277 26H73.2594L77.7027 11.7812H79.5875L79.3336 14.3203ZM81.7457 26L78.6695 14.3203L78.3863 11.7812H80.3004L84.7828 26H81.7457ZM81.8531 20.6973V23.0703H75.4371V20.6973H81.8531ZM86.35 11.7812H90.9105C91.8611 11.7812 92.6716 11.944 93.3422 12.2695C94.0128 12.5951 94.5271 13.0768 94.8852 13.7148C95.2432 14.3529 95.4223 15.1406 95.4223 16.0781C95.4223 16.8464 95.3181 17.5039 95.1098 18.0508C94.9014 18.5911 94.6052 19.0436 94.2211 19.4082C93.837 19.7663 93.378 20.0527 92.8441 20.2676L91.975 20.7852H88.2738L88.2641 18.4121H90.8324C91.223 18.4121 91.5453 18.3275 91.7992 18.1582C92.0596 17.9824 92.2517 17.7383 92.3754 17.4258C92.5056 17.1068 92.5707 16.7357 92.5707 16.3125C92.5707 15.8633 92.5121 15.4792 92.3949 15.1602C92.2842 14.8346 92.1052 14.5872 91.8578 14.418C91.6169 14.2422 91.3012 14.1543 90.9105 14.1543H89.2113V26H86.35V11.7812ZM92.8051 26L90.1977 19.6621L93.1957 19.6523L95.8617 25.8633V26H92.8051ZM107.57 14.3203L104.514 26H101.496L105.939 11.7812H107.824L107.57 14.3203ZM109.982 26L106.906 14.3203L106.623 11.7812H108.537L113.02 26H109.982ZM110.09 20.6973V23.0703H103.674V20.6973H110.09ZM122.248 11.7812V26H119.386V11.7812H122.248ZM126.701 17.8262V20.1895H121.525V17.8262H126.701ZM127.248 11.7812V14.1543H121.525V11.7812H127.248ZM132.389 14.3203L129.332 26H126.315L130.758 11.7812H132.643L132.389 14.3203ZM134.801 26L131.725 14.3203L131.442 11.7812H133.356L137.838 26H134.801ZM134.909 20.6973V23.0703H128.493V20.6973H134.909ZM143.888 11.7812V26H141.046V11.7812H143.888ZM147.423 11.7812V14.1543H137.579V11.7812H147.423ZM155.67 11.7812H158.521V21.5469C158.521 22.6406 158.32 23.5326 157.916 24.2227C157.519 24.9062 156.969 25.4076 156.266 25.7266C155.562 26.0391 154.758 26.1953 153.854 26.1953C152.942 26.1953 152.132 26.0391 151.422 25.7266C150.712 25.4076 150.159 24.9062 149.762 24.2227C149.371 23.5326 149.176 22.6406 149.176 21.5469V11.7812H152.027V21.5469C152.027 22.1654 152.096 22.6406 152.232 22.9727C152.376 23.3047 152.581 23.5326 152.848 23.6562C153.121 23.7734 153.456 23.832 153.854 23.832C154.257 23.832 154.589 23.7734 154.85 23.6562C155.117 23.5326 155.318 23.3047 155.455 22.9727C155.598 22.6406 155.67 22.1654 155.67 21.5469V11.7812ZM160.919 11.7812H165.479C166.43 11.7812 167.24 11.944 167.911 12.2695C168.582 12.5951 169.096 13.0768 169.454 13.7148C169.812 14.3529 169.991 15.1406 169.991 16.0781C169.991 16.8464 169.887 17.5039 169.679 18.0508C169.47 18.5911 169.174 19.0436 168.79 19.4082C168.406 19.7663 167.947 20.0527 167.413 20.2676L166.544 20.7852H162.843L162.833 18.4121H165.401C165.792 18.4121 166.114 18.3275 166.368 18.1582C166.628 17.9824 166.82 17.7383 166.944 17.4258C167.074 17.1068 167.139 16.7357 167.139 16.3125C167.139 15.8633 167.081 15.4792 166.964 15.1602C166.853 14.8346 166.674 14.5872 166.427 14.418C166.186 14.2422 165.87 14.1543 165.479 14.1543H163.78V26H160.919V11.7812ZM167.374 26L164.766 19.6621L167.764 19.6523L170.43 25.8633V26H167.374ZM177.33 14.3203L174.273 26H171.255L175.699 11.7812H177.584L177.33 14.3203ZM179.742 26L176.666 14.3203L176.382 11.7812H178.296L182.779 26H179.742ZM179.849 20.6973V23.0703H173.433V20.6973H179.849Z" fill="white"/>
</svg>
